<svg xmlns="http://www.w3.org/2000/svg" viewBox="0 0 1920 1080" width="1920" height="1080" preserveAspectRatio="xMidYMax slice"><title>ZaruTech duck opening, frame 118/180</title><g id="cover"><defs><clipPath id="cp"><path d="M-300 -300H2220L2220 1256.3C2213.3 1256.3 2193.3 1256.3 2180 1256.3C2166.7 1256.3 2153.3 1256.3 2140 1256.3C2126.7 1256.3 2113.3 1256.3 2100 1256.3C2086.7 1256.3 2073.3 1256.3 2060 1256.3C2046.7 1256.3 2033.3 1256.3 2020 1256.3C2006.7 1256.3 1993.3 1256.3 1980 1256.3C1966.7 1256.3 1953.3 1256.9 1940 1256.3C1926.7 1255.6 1913.3 1255.5 1900 1252.3C1886.7 1249.1 1873.3 1244.1 1860 1237.2C1846.7 1230.4 1833.3 1221.7 1820 1211.3C1806.7 1201 1793.3 1188.7 1780 1175.1C1766.7 1161.5 1753.3 1146.1 1740 1129.5C1726.7 1113 1713.3 1094.8 1700 1075.7C1686.7 1056.6 1673.3 1036 1660 1014.8C1646.7 993.6 1633.3 971.2 1620 948.4C1606.7 925.6 1593.3 901.8 1580 878C1566.7 854.2 1553.3 829.6 1540 805.3C1526.7 781 1513.3 756.3 1500 732.1C1486.7 707.9 1473.3 683.6 1460 660.1C1446.7 636.6 1433.3 613.3 1420 591.1C1406.7 568.8 1393.3 547.1 1380 526.6C1366.7 506.1 1353.3 486.5 1340 468.3C1326.7 450.1 1313.3 432.9 1300 417.4C1286.7 402 1273.3 387.8 1260 375.4C1246.7 363 1233.3 352.1 1220 343C1206.7 334 1193.3 326.7 1180 321.2C1166.7 315.8 1153.3 312.2 1140 310.5C1126.7 308.8 1113.3 308.9 1100 311C1086.7 313.1 1073.3 317 1060 322.8C1046.7 328.6 1033.3 336.3 1020 345.6C1006.7 355 993.3 366.2 980 378.9C966.7 391.6 953.3 406.1 940 421.9C926.7 437.6 913.3 455 900 473.5C886.7 491.9 873.3 511.8 860 532.4C846.7 553.1 833.3 575 820 597.4C806.7 619.8 793.3 643.2 780 666.8C766.7 690.4 753.3 714.8 740 739C726.7 763.2 713.3 787.9 700 812.2C686.7 836.5 673.3 861 660 884.7C646.7 908.5 633.3 932.2 620 954.8C606.7 977.5 593.3 999.8 580 1020.8C566.7 1041.8 553.3 1062.2 540 1081.1C526.7 1100 513.3 1117.9 500 1134.2C486.7 1150.5 473.3 1165.6 460 1178.9C446.7 1192.3 433.3 1204.2 420 1214.2C406.7 1224.2 393.3 1232.6 380 1239.1C366.7 1245.6 353.3 1250.3 340 1253.1C326.7 1256 313.3 1255.8 300 1256.3C286.7 1256.8 273.3 1256.3 260 1256.3C246.7 1256.3 233.3 1256.3 220 1256.3C206.7 1256.3 193.3 1256.3 180 1256.3C166.7 1256.3 153.3 1256.3 140 1256.3C126.7 1256.3 113.3 1256.3 100 1256.3C86.7 1256.3 73.3 1256.3 60 1256.3C46.7 1256.3 33.3 1256.3 20 1256.3C6.7 1256.3 -6.7 1256.3 -20 1256.3C-33.3 1256.3 -46.7 1256.3 -60 1256.3C-73.3 1256.3 -86.7 1256.3 -100 1256.3C-113.3 1256.3 -126.7 1256.3 -140 1256.3C-153.3 1256.3 -166.7 1256.3 -180 1256.3C-193.3 1256.3 -206.7 1256.3 -220 1256.3C-233.3 1256.3 -246.7 1256.3 -260 1256.3C-273.3 1256.3 -293.3 1256.3 -300 1256.3Z"/></clipPath><radialGradient id="stain"><stop offset="0" stop-color="#8c8574" stop-opacity="0.22"/><stop offset="1" stop-color="#8c8574" stop-opacity="0"/></radialGradient></defs><path d="M-300 -300H2220L2220 1256.3C2213.3 1256.3 2193.3 1256.3 2180 1256.3C2166.7 1256.3 2153.3 1256.3 2140 1256.3C2126.7 1256.3 2113.3 1256.3 2100 1256.3C2086.7 1256.3 2073.3 1256.3 2060 1256.3C2046.7 1256.3 2033.3 1256.3 2020 1256.3C2006.7 1256.3 1993.3 1256.3 1980 1256.3C1966.7 1256.3 1953.3 1256.9 1940 1256.3C1926.7 1255.6 1913.3 1255.5 1900 1252.3C1886.7 1249.1 1873.3 1244.1 1860 1237.2C1846.7 1230.4 1833.3 1221.7 1820 1211.3C1806.7 1201 1793.3 1188.7 1780 1175.1C1766.7 1161.5 1753.3 1146.1 1740 1129.5C1726.7 1113 1713.3 1094.8 1700 1075.7C1686.7 1056.6 1673.3 1036 1660 1014.8C1646.7 993.6 1633.3 971.2 1620 948.4C1606.7 925.6 1593.3 901.8 1580 878C1566.7 854.2 1553.3 829.6 1540 805.3C1526.7 781 1513.3 756.3 1500 732.1C1486.7 707.9 1473.3 683.6 1460 660.1C1446.7 636.6 1433.3 613.3 1420 591.1C1406.7 568.8 1393.3 547.1 1380 526.6C1366.7 506.1 1353.3 486.5 1340 468.3C1326.7 450.1 1313.3 432.9 1300 417.4C1286.7 402 1273.3 387.8 1260 375.4C1246.7 363 1233.3 352.1 1220 343C1206.7 334 1193.3 326.7 1180 321.2C1166.7 315.8 1153.3 312.2 1140 310.5C1126.7 308.8 1113.3 308.9 1100 311C1086.7 313.1 1073.3 317 1060 322.8C1046.7 328.6 1033.3 336.3 1020 345.6C1006.7 355 993.3 366.2 980 378.9C966.7 391.6 953.3 406.1 940 421.9C926.7 437.6 913.3 455 900 473.5C886.7 491.9 873.3 511.8 860 532.4C846.7 553.1 833.3 575 820 597.4C806.7 619.8 793.3 643.2 780 666.8C766.7 690.4 753.3 714.8 740 739C726.7 763.2 713.3 787.9 700 812.2C686.7 836.5 673.3 861 660 884.7C646.7 908.5 633.3 932.2 620 954.8C606.7 977.5 593.3 999.8 580 1020.8C566.7 1041.8 553.3 1062.2 540 1081.1C526.7 1100 513.3 1117.9 500 1134.2C486.7 1150.5 473.3 1165.6 460 1178.9C446.7 1192.3 433.3 1204.2 420 1214.2C406.7 1224.2 393.3 1232.6 380 1239.1C366.7 1245.6 353.3 1250.3 340 1253.1C326.7 1256 313.3 1255.8 300 1256.3C286.7 1256.8 273.3 1256.3 260 1256.3C246.7 1256.3 233.3 1256.3 220 1256.3C206.7 1256.3 193.3 1256.3 180 1256.3C166.7 1256.3 153.3 1256.3 140 1256.3C126.7 1256.3 113.3 1256.3 100 1256.3C86.7 1256.3 73.3 1256.3 60 1256.3C46.7 1256.3 33.3 1256.3 20 1256.3C6.7 1256.3 -6.7 1256.3 -20 1256.3C-33.3 1256.3 -46.7 1256.3 -60 1256.3C-73.3 1256.3 -86.7 1256.3 -100 1256.3C-113.3 1256.3 -126.7 1256.3 -140 1256.3C-153.3 1256.3 -166.7 1256.3 -180 1256.3C-193.3 1256.3 -206.7 1256.3 -220 1256.3C-233.3 1256.3 -246.7 1256.3 -260 1256.3C-273.3 1256.3 -293.3 1256.3 -300 1256.3Z" fill="#EFEADF"/><g clip-path="url(#cp)"><ellipse cx="560" cy="360" rx="520" ry="300" fill="url(#stain)" opacity="1"/><ellipse cx="1380" cy="460" rx="560" ry="320" fill="url(#stain)" opacity="0.8"/><ellipse cx="980" cy="880" rx="640" ry="240" fill="url(#stain)" opacity="0.5"/><path d="M18 30L150 130" stroke="#111" stroke-width="3" stroke-linecap="round" opacity="0.55"/><path d="M18 80L110 160" stroke="#111" stroke-width="2.5" stroke-linecap="round" opacity="0.55"/><path d="M60 22L200 70" stroke="#111" stroke-width="2.5" stroke-linecap="round" opacity="0.55"/><path d="M1902 30L1770 130" stroke="#111" stroke-width="3" stroke-linecap="round" opacity="0.55"/><path d="M1902 80L1810 160" stroke="#111" stroke-width="2.5" stroke-linecap="round" opacity="0.55"/><path d="M1860 22L1720 70" stroke="#111" stroke-width="2.5" stroke-linecap="round" opacity="0.55"/><path d="M16 1050L150 960" stroke="#111" stroke-width="3" stroke-linecap="round" opacity="0.55"/><path d="M16 1000L100 940" stroke="#111" stroke-width="2.5" stroke-linecap="round" opacity="0.55"/><path d="M1904 1050L1770 960" stroke="#111" stroke-width="3" stroke-linecap="round" opacity="0.55"/><path d="M1904 1000L1820 940" stroke="#111" stroke-width="2.5" stroke-linecap="round" opacity="0.55"/></g><path d="M-300 1256.3C-293.3 1256.3 -273.3 1256.3 -260 1256.3C-246.7 1256.3 -233.3 1256.3 -220 1256.3C-206.7 1256.3 -193.3 1256.3 -180 1256.3C-166.7 1256.3 -153.3 1256.3 -140 1256.3C-126.7 1256.3 -113.3 1256.3 -100 1256.3C-86.7 1256.3 -73.3 1256.3 -60 1256.3C-46.7 1256.3 -33.3 1256.3 -20 1256.3C-6.7 1256.3 6.7 1256.3 20 1256.3C33.3 1256.3 46.7 1256.3 60 1256.3C73.3 1256.3 86.7 1256.3 100 1256.3C113.3 1256.3 126.7 1256.3 140 1256.3C153.3 1256.3 166.7 1256.3 180 1256.3C193.3 1256.3 206.7 1256.3 220 1256.3C233.3 1256.3 246.7 1256.3 260 1256.3C273.3 1256.3 286.7 1256.8 300 1256.3C313.3 1255.8 326.7 1256 340 1253.1C353.3 1250.3 366.7 1245.6 380 1239.1C393.3 1232.6 406.7 1224.2 420 1214.2C433.3 1204.2 446.7 1192.3 460 1178.9C473.3 1165.6 486.7 1150.5 500 1134.2C513.3 1117.9 526.7 1100 540 1081.1C553.3 1062.2 566.7 1041.8 580 1020.8C593.3 999.8 606.7 977.5 620 954.8C633.3 932.2 646.7 908.5 660 884.7C673.3 861 686.7 836.5 700 812.2C713.3 787.9 726.7 763.2 740 739C753.3 714.8 766.7 690.4 780 666.8C793.3 643.2 806.7 619.8 820 597.4C833.3 575 846.7 553.1 860 532.4C873.3 511.8 886.7 491.9 900 473.5C913.3 455 926.7 437.6 940 421.9C953.3 406.1 966.7 391.6 980 378.9C993.3 366.2 1006.7 355 1020 345.6C1033.3 336.3 1046.7 328.6 1060 322.8C1073.3 317 1086.7 313.1 1100 311C1113.3 308.9 1126.7 308.8 1140 310.5C1153.3 312.2 1166.7 315.8 1180 321.2C1193.3 326.7 1206.7 334 1220 343C1233.3 352.1 1246.7 363 1260 375.4C1273.3 387.8 1286.7 402 1300 417.4C1313.3 432.9 1326.7 450.1 1340 468.3C1353.3 486.5 1366.7 506.1 1380 526.6C1393.3 547.1 1406.7 568.8 1420 591.1C1433.3 613.3 1446.7 636.6 1460 660.1C1473.3 683.6 1486.7 707.9 1500 732.1C1513.3 756.3 1526.7 781 1540 805.3C1553.3 829.6 1566.7 854.2 1580 878C1593.3 901.8 1606.7 925.6 1620 948.4C1633.3 971.2 1646.7 993.6 1660 1014.8C1673.3 1036 1686.7 1056.6 1700 1075.7C1713.3 1094.8 1726.7 1113 1740 1129.5C1753.3 1146.1 1766.7 1161.5 1780 1175.1C1793.3 1188.7 1806.7 1201 1820 1211.3C1833.3 1221.7 1846.7 1230.4 1860 1237.2C1873.3 1244.1 1886.7 1249.1 1900 1252.3C1913.3 1255.5 1926.7 1255.6 1940 1256.3C1953.3 1256.9 1966.7 1256.3 1980 1256.3C1993.3 1256.3 2006.7 1256.3 2020 1256.3C2033.3 1256.3 2046.7 1256.3 2060 1256.3C2073.3 1256.3 2086.7 1256.3 2100 1256.3C2113.3 1256.3 2126.7 1256.3 2140 1256.3C2153.3 1256.3 2166.7 1256.3 2180 1256.3C2193.3 1256.3 2213.3 1256.3 2220 1256.3" fill="none" stroke="#D8D1C0" stroke-width="26" stroke-linecap="round" transform="translate(0 -13)" opacity="0.7"/><path d="M-300 1256.3C-293.3 1256.3 -273.3 1256.3 -260 1256.3C-246.7 1256.3 -233.3 1256.3 -220 1256.3C-206.7 1256.3 -193.3 1256.3 -180 1256.3C-166.7 1256.3 -153.3 1256.3 -140 1256.3C-126.7 1256.3 -113.3 1256.3 -100 1256.3C-86.7 1256.3 -73.3 1256.3 -60 1256.3C-46.7 1256.3 -33.3 1256.3 -20 1256.3C-6.7 1256.3 6.7 1256.3 20 1256.3C33.3 1256.3 46.7 1256.3 60 1256.3C73.3 1256.3 86.7 1256.3 100 1256.3C113.3 1256.3 126.7 1256.3 140 1256.3C153.3 1256.3 166.7 1256.3 180 1256.3C193.3 1256.3 206.7 1256.3 220 1256.3C233.3 1256.3 246.7 1256.3 260 1256.3C273.3 1256.3 286.7 1256.8 300 1256.3C313.3 1255.8 326.7 1256 340 1253.1C353.3 1250.3 366.7 1245.6 380 1239.1C393.3 1232.6 406.7 1224.2 420 1214.2C433.3 1204.2 446.7 1192.3 460 1178.9C473.3 1165.6 486.7 1150.5 500 1134.2C513.3 1117.9 526.7 1100 540 1081.1C553.3 1062.2 566.7 1041.8 580 1020.8C593.3 999.8 606.7 977.5 620 954.8C633.3 932.2 646.7 908.5 660 884.7C673.3 861 686.7 836.5 700 812.2C713.3 787.9 726.7 763.2 740 739C753.3 714.8 766.7 690.4 780 666.8C793.3 643.2 806.7 619.8 820 597.4C833.3 575 846.7 553.1 860 532.4C873.3 511.8 886.7 491.9 900 473.5C913.3 455 926.7 437.6 940 421.9C953.3 406.1 966.7 391.6 980 378.9C993.3 366.2 1006.7 355 1020 345.6C1033.3 336.3 1046.7 328.6 1060 322.8C1073.3 317 1086.7 313.1 1100 311C1113.3 308.9 1126.7 308.8 1140 310.5C1153.3 312.2 1166.7 315.8 1180 321.2C1193.3 326.7 1206.7 334 1220 343C1233.3 352.1 1246.7 363 1260 375.4C1273.3 387.8 1286.7 402 1300 417.4C1313.3 432.9 1326.7 450.1 1340 468.3C1353.3 486.5 1366.7 506.1 1380 526.6C1393.3 547.1 1406.7 568.8 1420 591.1C1433.3 613.3 1446.7 636.6 1460 660.1C1473.3 683.6 1486.7 707.9 1500 732.1C1513.3 756.3 1526.7 781 1540 805.3C1553.3 829.6 1566.7 854.2 1580 878C1593.3 901.8 1606.7 925.6 1620 948.4C1633.3 971.2 1646.7 993.6 1660 1014.8C1673.3 1036 1686.7 1056.6 1700 1075.7C1713.3 1094.8 1726.7 1113 1740 1129.5C1753.3 1146.1 1766.7 1161.5 1780 1175.1C1793.3 1188.7 1806.7 1201 1820 1211.3C1833.3 1221.7 1846.7 1230.4 1860 1237.2C1873.3 1244.1 1886.7 1249.1 1900 1252.3C1913.3 1255.5 1926.7 1255.6 1940 1256.3C1953.3 1256.9 1966.7 1256.3 1980 1256.3C1993.3 1256.3 2006.7 1256.3 2020 1256.3C2033.3 1256.3 2046.7 1256.3 2060 1256.3C2073.3 1256.3 2086.7 1256.3 2100 1256.3C2113.3 1256.3 2126.7 1256.3 2140 1256.3C2153.3 1256.3 2166.7 1256.3 2180 1256.3C2193.3 1256.3 2213.3 1256.3 2220 1256.3" fill="none" stroke="#111" stroke-width="5" stroke-linejoin="round"/></g><g id="duck" stroke-linejoin="round" stroke-linecap="round"><ellipse cx="960" cy="1046" rx="299.2" ry="21.1" fill="#000" opacity="0.1"/><path d="M923.9 851.3L810.4 1016.6" stroke="#fff" stroke-opacity="0.4" stroke-width="19" stroke-linecap="round" fill="none"/><path d="M923.9 851.3L810.4 1016.6" stroke="#111" stroke-width="6.7" stroke-linecap="round" fill="none"/><path d="M1014.4 872.2L1140.4 1016.6" stroke="#fff" stroke-opacity="0.4" stroke-width="19" stroke-linecap="round" fill="none"/><path d="M1014.4 872.2L1140.4 1016.6" stroke="#111" stroke-width="6.7" stroke-linecap="round" fill="none"/><path transform="translate(810.4 1020.6) rotate(-8) scale(-0.88 0.88)" d="M-20 -6C-2-18 34-24 74-20L98-10L82-4L98 6L74 10L84 20C56 26 18 24-10 15C-22 9-24 0-20-6Z" fill="#F7C05A" stroke="#111" stroke-width="9" stroke-linejoin="round"/><path transform="translate(1140.4 1020.6) rotate(8) scale(0.88 0.88)" d="M-20 -6C-2-18 34-24 74-20L98-10L82-4L98 6L74 10L84 20C56 26 18 24-10 15C-22 9-24 0-20-6Z" fill="#F7C05A" stroke="#111" stroke-width="9" stroke-linejoin="round"/><g transform="translate(960 1040) scale(0.88) translate(0 -190) rotate(15.3) scale(0.9596 1.0577999999999999) translate(0 190)"><g fill="#111" stroke="#111" stroke-width="18" stroke-linejoin="round"><path d="M142.5 -418.6C154 -423 156.7 -451.6 162.5 -468.2C168.2 -484.7 173.1 -501.3 177 -517.8C180.8 -534.4 183.8 -550.9 185.8 -567.5C187.8 -584 188.8 -600.5 188.9 -617C189 -633.4 188 -649.8 186.2 -666.1C184.3 -682.4 181.4 -698.6 177.7 -714.7C173.9 -730.7 169.2 -746.7 163.6 -762.5C158 -778.3 151.4 -794 144.1 -809.5C136.7 -825.1 127.6 -850.3 119.4 -855.8C111.1 -861.3 95.6 -852.5 94.7 -842.6C93.7 -832.8 108.2 -812 113.7 -796.8C119.2 -781.6 123.8 -766.5 127.6 -751.5C131.4 -736.5 134.4 -721.6 136.6 -706.7C138.8 -691.9 140.2 -677.1 140.9 -662.4C141.5 -647.7 141.4 -633 140.6 -618.4C139.7 -603.7 138.1 -589.1 135.8 -574.4C133.4 -559.8 130.3 -545.1 126.4 -530.4C122.5 -515.7 117.9 -500.9 112.4 -486.1C106.9 -471.2 88.5 -452.7 93.5 -441.4C98.5 -430.2 131 -414.1 142.5 -418.6Z"/><circle cx="103.3" cy="-856.3" r="21"/><circle cx="110" cy="-873.5" r="15"/><circle cx="85.3" cy="-860.3" r="15"/></g><g fill="#FBF8F0"><path d="M142.5 -418.6C154 -423 156.7 -451.6 162.5 -468.2C168.2 -484.7 173.1 -501.3 177 -517.8C180.8 -534.4 183.8 -550.9 185.8 -567.5C187.8 -584 188.8 -600.5 188.9 -617C189 -633.4 188 -649.8 186.2 -666.1C184.3 -682.4 181.4 -698.6 177.7 -714.7C173.9 -730.7 169.2 -746.7 163.6 -762.5C158 -778.3 151.4 -794 144.1 -809.5C136.7 -825.1 127.6 -850.3 119.4 -855.8C111.1 -861.3 95.6 -852.5 94.7 -842.6C93.7 -832.8 108.2 -812 113.7 -796.8C119.2 -781.6 123.8 -766.5 127.6 -751.5C131.4 -736.5 134.4 -721.6 136.6 -706.7C138.8 -691.9 140.2 -677.1 140.9 -662.4C141.5 -647.7 141.4 -633 140.6 -618.4C139.7 -603.7 138.1 -589.1 135.8 -574.4C133.4 -559.8 130.3 -545.1 126.4 -530.4C122.5 -515.7 117.9 -500.9 112.4 -486.1C106.9 -471.2 88.5 -452.7 93.5 -441.4C98.5 -430.2 131 -414.1 142.5 -418.6Z"/><circle cx="103.3" cy="-856.3" r="21"/><circle cx="110" cy="-873.5" r="15"/><circle cx="85.3" cy="-860.3" r="15"/></g><g fill="#111" stroke="#111" stroke-width="18" stroke-linejoin="round"><path d="M-93.5 -441.4C-88.5 -452.7 -106.9 -471.2 -112.4 -486.1C-117.9 -500.9 -122.5 -515.7 -126.4 -530.4C-130.3 -545.1 -133.4 -559.8 -135.8 -574.4C-138.1 -589.1 -139.7 -603.7 -140.6 -618.4C-141.4 -633 -141.5 -647.7 -140.9 -662.4C-140.2 -677.1 -138.8 -691.9 -136.6 -706.7C-134.4 -721.6 -131.4 -736.5 -127.6 -751.5C-123.8 -766.5 -119.2 -781.6 -113.7 -796.8C-108.2 -812 -93.7 -832.8 -94.7 -842.6C-95.6 -852.5 -111.1 -861.3 -119.4 -855.8C-127.6 -850.3 -136.7 -825.1 -144.1 -809.5C-151.4 -794 -158 -778.3 -163.6 -762.5C-169.2 -746.7 -173.9 -730.7 -177.7 -714.7C-181.4 -698.6 -184.3 -682.4 -186.2 -666.1C-188 -649.8 -189 -633.4 -188.9 -617C-188.8 -600.5 -187.8 -584 -185.8 -567.5C-183.8 -550.9 -180.8 -534.4 -177 -517.8C-173.1 -501.3 -168.2 -484.7 -162.5 -468.2C-156.7 -451.6 -154 -423 -142.5 -418.6C-131 -414.1 -98.5 -430.2 -93.5 -441.4Z"/><circle cx="-103.3" cy="-856.3" r="21"/><circle cx="-85.3" cy="-860.3" r="15"/><circle cx="-110" cy="-873.5" r="15"/></g><g fill="#FBF8F0"><path d="M-93.5 -441.4C-88.5 -452.7 -106.9 -471.2 -112.4 -486.1C-117.9 -500.9 -122.5 -515.7 -126.4 -530.4C-130.3 -545.1 -133.4 -559.8 -135.8 -574.4C-138.1 -589.1 -139.7 -603.7 -140.6 -618.4C-141.4 -633 -141.5 -647.7 -140.9 -662.4C-140.2 -677.1 -138.8 -691.9 -136.6 -706.7C-134.4 -721.6 -131.4 -736.5 -127.6 -751.5C-123.8 -766.5 -119.2 -781.6 -113.7 -796.8C-108.2 -812 -93.7 -832.8 -94.7 -842.6C-95.6 -852.5 -111.1 -861.3 -119.4 -855.8C-127.6 -850.3 -136.7 -825.1 -144.1 -809.5C-151.4 -794 -158 -778.3 -163.6 -762.5C-169.2 -746.7 -173.9 -730.7 -177.7 -714.7C-181.4 -698.6 -184.3 -682.4 -186.2 -666.1C-188 -649.8 -189 -633.4 -188.9 -617C-188.8 -600.5 -187.8 -584 -185.8 -567.5C-183.8 -550.9 -180.8 -534.4 -177 -517.8C-173.1 -501.3 -168.2 -484.7 -162.5 -468.2C-156.7 -451.6 -154 -423 -142.5 -418.6C-131 -414.1 -98.5 -430.2 -93.5 -441.4Z"/><circle cx="-103.3" cy="-856.3" r="21"/><circle cx="-85.3" cy="-860.3" r="15"/><circle cx="-110" cy="-873.5" r="15"/></g><g fill="#111" stroke="#111" stroke-width="18" stroke-linejoin="round"><path d="M-80 -482C-110 -470.7 -94.7 -442.8 -104 -420C-113.3 -397.2 -129.7 -369.2 -136 -345C-142.3 -320.8 -148.3 -296.2 -142 -275C-135.7 -253.8 -117.3 -231.8 -98 -218C-78.7 -204.2 -51.3 -196 -26 -192C-0.7 -188 31 -188.3 54 -194C77 -199.7 95.7 -209.7 112 -226C128.3 -242.3 146 -267.7 152 -292C158 -316.3 154 -347 148 -372C142 -397 128 -422.7 116 -442C104 -461.3 108.7 -481.3 76 -488C43.3 -494.7 -50 -493.3 -80 -482Z"/><path d="M64 -441.8C86.7 -446.1 61.9 -456.8 60.5 -464.3C59.1 -471.7 57.4 -479.1 55.5 -486.5C53.6 -493.9 51.5 -501.3 49.2 -508.6C46.8 -516 44.3 -523.3 41.5 -530.7C38.8 -538 35.9 -545.4 32.7 -552.7C29.6 -560.1 26.3 -567.5 22.8 -574.9C19.3 -582.3 15.6 -589.7 11.7 -597.2C7.9 -604.6 3.8 -612.1 -0.5 -619.7C-4.8 -627.2 5 -648.3 -14 -642.3C-32.9 -636.3 -99 -596.7 -114 -583.7C-129 -570.7 -107.1 -570.7 -103.9 -564.3C-100.8 -558 -97.9 -551.8 -95.3 -545.7C-92.7 -539.6 -90.3 -533.6 -88.1 -527.8C-86 -521.9 -84.1 -516.2 -82.5 -510.6C-80.9 -505 -79.5 -499.5 -78.4 -494.2C-77.3 -488.9 -76.5 -483.7 -75.8 -478.7C-75.2 -473.7 -74.8 -468.8 -74.6 -464.2C-74.5 -459.5 -74.5 -455 -74.8 -450.6C-75 -446.3 -99.1 -439.7 -76 -438.2C-52.9 -436.7 41.2 -437.5 64 -441.8Z"/><ellipse cx="-64" cy="-613" rx="92" ry="80"/></g><g fill="#FBF8F0"><path d="M-80 -482C-110 -470.7 -94.7 -442.8 -104 -420C-113.3 -397.2 -129.7 -369.2 -136 -345C-142.3 -320.8 -148.3 -296.2 -142 -275C-135.7 -253.8 -117.3 -231.8 -98 -218C-78.7 -204.2 -51.3 -196 -26 -192C-0.7 -188 31 -188.3 54 -194C77 -199.7 95.7 -209.7 112 -226C128.3 -242.3 146 -267.7 152 -292C158 -316.3 154 -347 148 -372C142 -397 128 -422.7 116 -442C104 -461.3 108.7 -481.3 76 -488C43.3 -494.7 -50 -493.3 -80 -482Z"/><path d="M64 -441.8C86.7 -446.1 61.9 -456.8 60.5 -464.3C59.1 -471.7 57.4 -479.1 55.5 -486.5C53.6 -493.9 51.5 -501.3 49.2 -508.6C46.8 -516 44.3 -523.3 41.5 -530.7C38.8 -538 35.9 -545.4 32.7 -552.7C29.6 -560.1 26.3 -567.5 22.8 -574.9C19.3 -582.3 15.6 -589.7 11.7 -597.2C7.9 -604.6 3.8 -612.1 -0.5 -619.7C-4.8 -627.2 5 -648.3 -14 -642.3C-32.9 -636.3 -99 -596.7 -114 -583.7C-129 -570.7 -107.1 -570.7 -103.9 -564.3C-100.8 -558 -97.9 -551.8 -95.3 -545.7C-92.7 -539.6 -90.3 -533.6 -88.1 -527.8C-86 -521.9 -84.1 -516.2 -82.5 -510.6C-80.9 -505 -79.5 -499.5 -78.4 -494.2C-77.3 -488.9 -76.5 -483.7 -75.8 -478.7C-75.2 -473.7 -74.8 -468.8 -74.6 -464.2C-74.5 -459.5 -74.5 -455 -74.8 -450.6C-75 -446.3 -99.1 -439.7 -76 -438.2C-52.9 -436.7 41.2 -437.5 64 -441.8Z"/><ellipse cx="-64" cy="-613" rx="92" ry="80"/></g><g transform="translate(-86 -372) scale(0.78)"><g transform="translate(0 150) scale(1 -1)"><path d="M215 147 c0 -13 6 -38 10 -39 2 0 6 2 6 4 0 3 6 13 7 13 1 0 2 -3 3 -6 3 -8 4 -10 7 -10 7 1 -1 27 -9 27 -3 0 -10 -6 -10 -8 0 -3 -2 0 -3 5 -3 15 -4 17 -8 17 -3 0 -3 0 -3 -3z M156 134 c-15 -7 -20 -9 -21 -12 0 -3 3 -3 9 -1 7 3 7 3 6 -11 0 -16 1 -23 3 -26 3 -3 4 -1 3 21 l0 21 7 3 c15 7 7 11 -7 5z M198 127 c-13 -6 -10 -24 3 -24 7 0 15 8 12 12 -1 1 -2 1 -5 -1 -10 -8 -15 1 -4 9 6 5 2 8 -6 4z M170 121 c-13 -10 -2 -31 13 -23 5 2 4 5 -1 5 -8 0 -11 2 -5 3 4 1 9 7 9 10 0 8 -10 11 -16 5z m8 -4 c1 -1 -5 -6 -6 -5 0 1 0 2 1 3 2 3 4 4 5 2z M118 102 c-2 0 -5 -3 -7 -5 -4 -3 -4 -3 -6 -1 -6 8 -8 3 -5 -14 3 -15 4 -14 -1 -12 -4 2 -6 5 -6 11 -1 7 -6 12 -13 12 -11 0 -17 -10 -5 -10 5 0 6 -1 6 -3 0 -6 -6 -13 -8 -9 -2 6 -6 4 -6 -2 0 -2 0 -3 -4 -4 -2 -1 -7 -4 -11 -6 -4 -2 -7 -4 -8 -4 0 0 4 8 8 17 14 32 13 34 -14 23 -23 -9 -29 -13 -29 -16 0 -5 5 -4 22 3 9 4 16 7 16 7 1 0 2 2 -9 -21 -11 -25 -12 -26 -10 -30 3 -3 7 -3 16 3 22 13 30 18 32 18 4 0 9 3 11 6 1 3 1 3 5 0 4 -2 9 -3 11 -1 1 1 2 2 3 1 4 -1 7 4 7 12 0 9 1 11 8 18 7 8 6 11 -3 7z M137 102 c-1 -1 -1 -4 -1 -6 -2 -8 -4 -9 -5 -3 -3 8 -5 7 -5 -2 1 -11 6 -16 12 -10 2 3 4 14 4 19 -1 3 -5 5 -5 2z M201 77 c-61 -17 -115 -41 -148 -66 -14 -11 -14 -11 -5 -11 8 0 8 0 19 8 15 11 26 17 43 24 13 6 95 40 107 44 3 1 6 2 6 3 0 3 -8 2 -22 -2z" fill="#111"/></g></g><g transform="translate(-64 -613) rotate(-14) scale(0.86)"><path d="M14 54C64 38 146 34 206 48C214 74 186 104 132 108C80 110 32 104 10 92C6 76 8 60 14 54Z" fill="#F7C05A" stroke="#111" stroke-width="10.465116279069768" stroke-linejoin="round"/><path d="M26 78C80 86 144 84 192 72" fill="none" stroke="#111" stroke-width="5" stroke-linecap="round"/><g transform="translate(8 2.4)"><path d="M-62 -22C0 -30 70 -32 150 -20C158 -10 150 22 118 36C84 48 60 30 52 6C40 12 20 12 6 8C-4 30 -28 46 -54 30C-70 16 -72 -8 -62 -22Z" fill="#111"/><path d="M-40 -12C-30 -16 -16 -14 -8 -10M72 -10C84 -14 100 -14 112 -10" stroke="#fff" stroke-width="4" stroke-linecap="round" fill="none" opacity="0.55"/></g><g transform="rotate(-8)"><path d="M-100 -26C-110 -92-60 -146 18 -146C96 -146 120 -96 110 -58C60 -70-30 -66-100 -26Z" fill="#FBF8F0" stroke="#111" stroke-width="10.465116279069768" stroke-linejoin="round"/><path d="M-100 -26C-140 -34-178 -20-196 12C-160 22-122 14-94 0Z" fill="#FBF8F0" stroke="#111" stroke-width="10.465116279069768" stroke-linejoin="round"/><path d="M-8 -118L38 -118L-8 -78L40 -78" fill="none" stroke="#111" stroke-width="10" stroke-linecap="round" stroke-linejoin="round"/></g></g></g></g><g id="fx"><g opacity="0.8"><path d="M1053.4 266.4L965.4 247.6" stroke="#111" stroke-width="2.5" stroke-linecap="round"/><path d="M1045.6 233.2L937.9 165.9" stroke="#111" stroke-width="2.5" stroke-linecap="round"/><path d="M1054.2 194.2L996.3 120.2" stroke="#111" stroke-width="2.5" stroke-linecap="round"/><path d="M1100.3 214.3L1059.8 89.7" stroke="#111" stroke-width="2.5" stroke-linecap="round"/><path d="M1121.9 190.9L1121.9 92.9" stroke="#111" stroke-width="2.5" stroke-linecap="round"/><path d="M1155.9 176.3L1197.6 47.9" stroke="#111" stroke-width="2.5" stroke-linecap="round"/><path d="M1165 225.7L1227.8 145.4" stroke="#111" stroke-width="2.5" stroke-linecap="round"/><path d="M1198.2 233.2L1316.1 159.6" stroke="#111" stroke-width="2.5" stroke-linecap="round"/><path d="M1229.5 258L1333.2 236" stroke="#111" stroke-width="2.5" stroke-linecap="round"/></g><path d="M1075.9 304.9q18 -22 34 -6M1129.9 300.9q20 -18 38 0" stroke="#111" stroke-width="5" stroke-linecap="round" fill="none"/><path d="M1131.7 378.7q10 18 0 30q-10-12 0-30z" fill="#7CC4F0" stroke="#111" stroke-width="4"/></g></svg>