<svg xmlns="http://www.w3.org/2000/svg" viewBox="0 0 1920 1080" width="1920" height="1080" preserveAspectRatio="xMidYMax slice"><title>ZaruTech duck opening, frame 132/180</title><g id="cover"><defs><clipPath id="cp"><path d="M-300 -300H2220L2220 833.6C2213.3 833.6 2193.3 833.6 2180 833.6C2166.7 833.6 2153.3 833.6 2140 833.6C2126.7 833.6 2113.3 833.6 2100 833.6C2086.7 833.6 2073.3 833.6 2060 833.6C2046.7 833.6 2033.3 833.6 2020 833.6C2006.7 833.6 1993.3 833.6 1980 833.6C1966.7 833.6 1953.3 833.6 1940 833.6C1926.7 833.6 1913.3 833.6 1900 833.6C1886.7 833.6 1873.3 833.6 1860 833.6C1846.7 833.6 1833.3 833.7 1820 833.6C1806.7 833.6 1793.3 834.6 1780 833.6C1766.7 832.6 1753.3 831.2 1740 827.7C1726.7 824.1 1713.3 818.9 1700 812.2C1686.7 805.6 1673.3 797.3 1660 787.8C1646.7 778.3 1633.3 767.3 1620 755.3C1606.7 743.3 1593.3 729.9 1580 715.8C1566.7 701.8 1553.3 686.5 1540 670.8C1526.7 655.2 1513.3 638.6 1500 621.9C1486.7 605.2 1473.3 587.8 1460 570.7C1446.7 553.5 1433.3 536 1420 519C1406.7 502.1 1393.3 485.1 1380 468.9C1366.7 452.7 1353.3 436.7 1340 421.9C1326.7 407 1313.3 392.7 1300 379.7C1286.7 366.7 1273.3 354.6 1260 343.9C1246.7 333.3 1233.3 323.7 1220 315.8C1206.7 307.8 1193.3 301.2 1180 296.2C1166.7 291.2 1153.3 287.8 1140 286C1126.7 284.2 1113.3 284 1100 285.4C1086.7 286.8 1073.3 289.9 1060 294.5C1046.7 299.1 1033.3 305.4 1020 313C1006.7 320.6 993.3 329.8 980 340.2C966.7 350.6 953.3 362.4 940 375.2C926.7 387.9 913.3 402 900 416.6C886.7 431.3 873.3 447.1 860 463.1C846.7 479.2 833.3 496.1 820 513C806.7 530 793.3 547.4 780 564.6C766.7 581.7 753.3 599.2 740 615.9C726.7 632.7 713.3 649.4 700 665.3C686.7 681.1 673.3 696.5 660 710.8C646.7 725.1 633.3 738.7 620 751C606.7 763.3 593.3 774.6 580 784.4C566.7 794.2 553.3 802.8 540 809.8C526.7 816.8 513.3 822.4 500 826.3C486.7 830.3 473.3 832.2 460 833.4C446.7 834.6 433.3 833.6 420 833.6C406.7 833.7 393.3 833.6 380 833.6C366.7 833.6 353.3 833.6 340 833.6C326.7 833.6 313.3 833.6 300 833.6C286.7 833.6 273.3 833.6 260 833.6C246.7 833.6 233.3 833.6 220 833.6C206.7 833.6 193.3 833.6 180 833.6C166.7 833.6 153.3 833.6 140 833.6C126.7 833.6 113.3 833.6 100 833.6C86.7 833.6 73.3 833.6 60 833.6C46.7 833.6 33.3 833.6 20 833.6C6.7 833.6 -6.7 833.6 -20 833.6C-33.3 833.6 -46.7 833.6 -60 833.6C-73.3 833.6 -86.7 833.6 -100 833.6C-113.3 833.6 -126.7 833.6 -140 833.6C-153.3 833.6 -166.7 833.6 -180 833.6C-193.3 833.6 -206.7 833.6 -220 833.6C-233.3 833.6 -246.7 833.6 -260 833.6C-273.3 833.6 -293.3 833.6 -300 833.6Z"/></clipPath><radialGradient id="stain"><stop offset="0" stop-color="#8c8574" stop-opacity="0.22"/><stop offset="1" stop-color="#8c8574" stop-opacity="0"/></radialGradient></defs><path d="M-300 -300H2220L2220 833.6C2213.3 833.6 2193.3 833.6 2180 833.6C2166.7 833.6 2153.3 833.6 2140 833.6C2126.7 833.6 2113.3 833.6 2100 833.6C2086.7 833.6 2073.3 833.6 2060 833.6C2046.7 833.6 2033.3 833.6 2020 833.6C2006.7 833.6 1993.3 833.6 1980 833.6C1966.7 833.6 1953.3 833.6 1940 833.6C1926.7 833.6 1913.3 833.6 1900 833.6C1886.7 833.6 1873.3 833.6 1860 833.6C1846.7 833.6 1833.3 833.7 1820 833.6C1806.7 833.6 1793.3 834.6 1780 833.6C1766.7 832.6 1753.3 831.2 1740 827.7C1726.7 824.1 1713.3 818.9 1700 812.2C1686.7 805.6 1673.3 797.3 1660 787.8C1646.7 778.3 1633.3 767.3 1620 755.3C1606.7 743.3 1593.3 729.9 1580 715.8C1566.7 701.8 1553.3 686.5 1540 670.8C1526.7 655.2 1513.3 638.6 1500 621.9C1486.7 605.2 1473.3 587.8 1460 570.7C1446.7 553.5 1433.3 536 1420 519C1406.7 502.1 1393.3 485.1 1380 468.9C1366.7 452.7 1353.3 436.7 1340 421.9C1326.7 407 1313.3 392.7 1300 379.7C1286.7 366.7 1273.3 354.6 1260 343.9C1246.7 333.3 1233.3 323.7 1220 315.8C1206.7 307.8 1193.3 301.2 1180 296.2C1166.7 291.2 1153.3 287.8 1140 286C1126.7 284.2 1113.3 284 1100 285.4C1086.7 286.8 1073.3 289.9 1060 294.5C1046.7 299.1 1033.3 305.4 1020 313C1006.7 320.6 993.3 329.8 980 340.2C966.7 350.6 953.3 362.4 940 375.2C926.7 387.9 913.3 402 900 416.6C886.7 431.3 873.3 447.1 860 463.1C846.7 479.2 833.3 496.1 820 513C806.7 530 793.3 547.4 780 564.6C766.7 581.7 753.3 599.2 740 615.9C726.7 632.7 713.3 649.4 700 665.3C686.7 681.1 673.3 696.5 660 710.8C646.7 725.1 633.3 738.7 620 751C606.7 763.3 593.3 774.6 580 784.4C566.7 794.2 553.3 802.8 540 809.8C526.7 816.8 513.3 822.4 500 826.3C486.7 830.3 473.3 832.2 460 833.4C446.7 834.6 433.3 833.6 420 833.6C406.7 833.7 393.3 833.6 380 833.6C366.7 833.6 353.3 833.6 340 833.6C326.7 833.6 313.3 833.6 300 833.6C286.7 833.6 273.3 833.6 260 833.6C246.7 833.6 233.3 833.6 220 833.6C206.7 833.6 193.3 833.6 180 833.6C166.7 833.6 153.3 833.6 140 833.6C126.7 833.6 113.3 833.6 100 833.6C86.7 833.6 73.3 833.6 60 833.6C46.7 833.6 33.3 833.6 20 833.6C6.7 833.6 -6.7 833.6 -20 833.6C-33.3 833.6 -46.7 833.6 -60 833.6C-73.3 833.6 -86.7 833.6 -100 833.6C-113.3 833.6 -126.7 833.6 -140 833.6C-153.3 833.6 -166.7 833.6 -180 833.6C-193.3 833.6 -206.7 833.6 -220 833.6C-233.3 833.6 -246.7 833.6 -260 833.6C-273.3 833.6 -293.3 833.6 -300 833.6Z" fill="#EFEADF"/><g clip-path="url(#cp)"><ellipse cx="560" cy="360" rx="520" ry="300" fill="url(#stain)" opacity="1"/><ellipse cx="1380" cy="460" rx="560" ry="320" fill="url(#stain)" opacity="0.8"/><ellipse cx="980" cy="880" rx="640" ry="240" fill="url(#stain)" opacity="0.5"/><path d="M18 30L150 130" stroke="#111" stroke-width="3" stroke-linecap="round" opacity="0.55"/><path d="M18 80L110 160" stroke="#111" stroke-width="2.5" stroke-linecap="round" opacity="0.55"/><path d="M60 22L200 70" stroke="#111" stroke-width="2.5" stroke-linecap="round" opacity="0.55"/><path d="M1902 30L1770 130" stroke="#111" stroke-width="3" stroke-linecap="round" opacity="0.55"/><path d="M1902 80L1810 160" stroke="#111" stroke-width="2.5" stroke-linecap="round" opacity="0.55"/><path d="M1860 22L1720 70" stroke="#111" stroke-width="2.5" stroke-linecap="round" opacity="0.55"/><path d="M16 1050L150 960" stroke="#111" stroke-width="3" stroke-linecap="round" opacity="0.55"/><path d="M16 1000L100 940" stroke="#111" stroke-width="2.5" stroke-linecap="round" opacity="0.55"/><path d="M1904 1050L1770 960" stroke="#111" stroke-width="3" stroke-linecap="round" opacity="0.55"/><path d="M1904 1000L1820 940" stroke="#111" stroke-width="2.5" stroke-linecap="round" opacity="0.55"/></g><path d="M-300 833.6C-293.3 833.6 -273.3 833.6 -260 833.6C-246.7 833.6 -233.3 833.6 -220 833.6C-206.7 833.6 -193.3 833.6 -180 833.6C-166.7 833.6 -153.3 833.6 -140 833.6C-126.7 833.6 -113.3 833.6 -100 833.6C-86.7 833.6 -73.3 833.6 -60 833.6C-46.7 833.6 -33.3 833.6 -20 833.6C-6.7 833.6 6.7 833.6 20 833.6C33.3 833.6 46.7 833.6 60 833.6C73.3 833.6 86.7 833.6 100 833.6C113.3 833.6 126.7 833.6 140 833.6C153.3 833.6 166.7 833.6 180 833.6C193.3 833.6 206.7 833.6 220 833.6C233.3 833.6 246.7 833.6 260 833.6C273.3 833.6 286.7 833.6 300 833.6C313.3 833.6 326.7 833.6 340 833.6C353.3 833.6 366.7 833.6 380 833.6C393.3 833.6 406.7 833.7 420 833.6C433.3 833.6 446.7 834.6 460 833.4C473.3 832.2 486.7 830.3 500 826.3C513.3 822.4 526.7 816.8 540 809.8C553.3 802.8 566.7 794.2 580 784.4C593.3 774.6 606.7 763.3 620 751C633.3 738.7 646.7 725.1 660 710.8C673.3 696.5 686.7 681.1 700 665.3C713.3 649.4 726.7 632.7 740 615.9C753.3 599.2 766.7 581.7 780 564.6C793.3 547.4 806.7 530 820 513C833.3 496.1 846.7 479.2 860 463.1C873.3 447.1 886.7 431.3 900 416.6C913.3 402 926.7 387.9 940 375.2C953.3 362.4 966.7 350.6 980 340.2C993.3 329.8 1006.7 320.6 1020 313C1033.3 305.4 1046.7 299.1 1060 294.5C1073.3 289.9 1086.7 286.8 1100 285.4C1113.3 284 1126.7 284.2 1140 286C1153.3 287.8 1166.7 291.2 1180 296.2C1193.3 301.2 1206.7 307.8 1220 315.8C1233.3 323.7 1246.7 333.3 1260 343.9C1273.3 354.6 1286.7 366.7 1300 379.7C1313.3 392.7 1326.7 407 1340 421.9C1353.3 436.7 1366.7 452.7 1380 468.9C1393.3 485.1 1406.7 502.1 1420 519C1433.3 536 1446.7 553.5 1460 570.7C1473.3 587.8 1486.7 605.2 1500 621.9C1513.3 638.6 1526.7 655.2 1540 670.8C1553.3 686.5 1566.7 701.8 1580 715.8C1593.3 729.9 1606.7 743.3 1620 755.3C1633.3 767.3 1646.7 778.3 1660 787.8C1673.3 797.3 1686.7 805.6 1700 812.2C1713.3 818.9 1726.7 824.1 1740 827.7C1753.3 831.2 1766.7 832.6 1780 833.6C1793.3 834.6 1806.7 833.6 1820 833.6C1833.3 833.7 1846.7 833.6 1860 833.6C1873.3 833.6 1886.7 833.6 1900 833.6C1913.3 833.6 1926.7 833.6 1940 833.6C1953.3 833.6 1966.7 833.6 1980 833.6C1993.3 833.6 2006.7 833.6 2020 833.6C2033.3 833.6 2046.7 833.6 2060 833.6C2073.3 833.6 2086.7 833.6 2100 833.6C2113.3 833.6 2126.7 833.6 2140 833.6C2153.3 833.6 2166.7 833.6 2180 833.6C2193.3 833.6 2213.3 833.6 2220 833.6" fill="none" stroke="#D8D1C0" stroke-width="26" stroke-linecap="round" transform="translate(0 -13)" opacity="0.7"/><path d="M-300 833.6C-293.3 833.6 -273.3 833.6 -260 833.6C-246.7 833.6 -233.3 833.6 -220 833.6C-206.7 833.6 -193.3 833.6 -180 833.6C-166.7 833.6 -153.3 833.6 -140 833.6C-126.7 833.6 -113.3 833.6 -100 833.6C-86.7 833.6 -73.3 833.6 -60 833.6C-46.7 833.6 -33.3 833.6 -20 833.6C-6.7 833.6 6.7 833.6 20 833.6C33.3 833.6 46.7 833.6 60 833.6C73.3 833.6 86.7 833.6 100 833.6C113.3 833.6 126.7 833.6 140 833.6C153.3 833.6 166.7 833.6 180 833.6C193.3 833.6 206.7 833.6 220 833.6C233.3 833.6 246.7 833.6 260 833.6C273.3 833.6 286.7 833.6 300 833.6C313.3 833.6 326.7 833.6 340 833.6C353.3 833.6 366.7 833.6 380 833.6C393.3 833.6 406.7 833.7 420 833.6C433.3 833.6 446.7 834.6 460 833.4C473.3 832.2 486.7 830.3 500 826.3C513.3 822.4 526.7 816.8 540 809.8C553.3 802.8 566.7 794.2 580 784.4C593.3 774.6 606.7 763.3 620 751C633.3 738.7 646.7 725.1 660 710.8C673.3 696.5 686.7 681.1 700 665.3C713.3 649.4 726.7 632.7 740 615.9C753.3 599.2 766.7 581.7 780 564.6C793.3 547.4 806.7 530 820 513C833.3 496.1 846.7 479.2 860 463.1C873.3 447.1 886.7 431.3 900 416.6C913.3 402 926.7 387.9 940 375.2C953.3 362.4 966.7 350.6 980 340.2C993.3 329.8 1006.7 320.6 1020 313C1033.3 305.4 1046.7 299.1 1060 294.5C1073.3 289.9 1086.7 286.8 1100 285.4C1113.3 284 1126.7 284.2 1140 286C1153.3 287.8 1166.7 291.2 1180 296.2C1193.3 301.2 1206.7 307.8 1220 315.8C1233.3 323.7 1246.7 333.3 1260 343.9C1273.3 354.6 1286.7 366.7 1300 379.7C1313.3 392.7 1326.7 407 1340 421.9C1353.3 436.7 1366.7 452.7 1380 468.9C1393.3 485.1 1406.7 502.1 1420 519C1433.3 536 1446.7 553.5 1460 570.7C1473.3 587.8 1486.7 605.2 1500 621.9C1513.3 638.6 1526.7 655.2 1540 670.8C1553.3 686.5 1566.7 701.8 1580 715.8C1593.3 729.9 1606.7 743.3 1620 755.3C1633.3 767.3 1646.7 778.3 1660 787.8C1673.3 797.3 1686.7 805.6 1700 812.2C1713.3 818.9 1726.7 824.1 1740 827.7C1753.3 831.2 1766.7 832.6 1780 833.6C1793.3 834.6 1806.7 833.6 1820 833.6C1833.3 833.7 1846.7 833.6 1860 833.6C1873.3 833.6 1886.7 833.6 1900 833.6C1913.3 833.6 1926.7 833.6 1940 833.6C1953.3 833.6 1966.7 833.6 1980 833.6C1993.3 833.6 2006.7 833.6 2020 833.6C2033.3 833.6 2046.7 833.6 2060 833.6C2073.3 833.6 2086.7 833.6 2100 833.6C2113.3 833.6 2126.7 833.6 2140 833.6C2153.3 833.6 2166.7 833.6 2180 833.6C2193.3 833.6 2213.3 833.6 2220 833.6" fill="none" stroke="#111" stroke-width="5" stroke-linejoin="round"/></g><g id="duck" stroke-linejoin="round" stroke-linecap="round"><ellipse cx="960" cy="1046" rx="299.2" ry="21.1" fill="#000" opacity="0.1"/><path d="M923.5 851.5L810.4 1016.6" stroke="#fff" stroke-opacity="0.4" stroke-width="19" stroke-linecap="round" fill="none"/><path d="M923.5 851.5L810.4 1016.6" stroke="#111" stroke-width="6.7" stroke-linecap="round" fill="none"/><path d="M1014.7 872.1L1140.4 1016.6" stroke="#fff" stroke-opacity="0.4" stroke-width="19" stroke-linecap="round" fill="none"/><path d="M1014.7 872.1L1140.4 1016.6" stroke="#111" stroke-width="6.7" stroke-linecap="round" fill="none"/><path transform="translate(810.4 1020.6) rotate(-8) scale(-0.88 0.88)" d="M-20 -6C-2-18 34-24 74-20L98-10L82-4L98 6L74 10L84 20C56 26 18 24-10 15C-22 9-24 0-20-6Z" fill="#F7C05A" stroke="#111" stroke-width="9" stroke-linejoin="round"/><path transform="translate(1140.4 1020.6) rotate(8) scale(0.88 0.88)" d="M-20 -6C-2-18 34-24 74-20L98-10L82-4L98 6L74 10L84 20C56 26 18 24-10 15C-22 9-24 0-20-6Z" fill="#F7C05A" stroke="#111" stroke-width="9" stroke-linejoin="round"/><g transform="translate(960 1040) scale(0.88) translate(0 -190) rotate(15) scale(0.965 1.05) translate(0 190)"><g fill="#111" stroke="#111" stroke-width="18" stroke-linejoin="round"><path d="M142.5 -418.6C154 -423 156.7 -451.6 162.5 -468.2C168.2 -484.7 173.1 -501.3 177 -517.8C180.8 -534.4 183.8 -550.9 185.8 -567.5C187.8 -584 188.8 -600.5 188.9 -617C189 -633.4 188 -649.8 186.2 -666.1C184.3 -682.4 181.4 -698.6 177.7 -714.7C173.9 -730.7 169.2 -746.7 163.6 -762.5C158 -778.3 151.4 -794 144.1 -809.5C136.7 -825.1 127.6 -850.3 119.4 -855.8C111.1 -861.3 95.6 -852.5 94.7 -842.6C93.7 -832.8 108.2 -812 113.7 -796.8C119.2 -781.6 123.8 -766.5 127.6 -751.5C131.4 -736.5 134.4 -721.6 136.6 -706.7C138.8 -691.9 140.2 -677.1 140.9 -662.4C141.5 -647.7 141.4 -633 140.6 -618.4C139.7 -603.7 138.1 -589.1 135.8 -574.4C133.4 -559.8 130.3 -545.1 126.4 -530.4C122.5 -515.7 117.9 -500.9 112.4 -486.1C106.9 -471.2 88.5 -452.7 93.5 -441.4C98.5 -430.2 131 -414.1 142.5 -418.6Z"/><circle cx="103.3" cy="-856.3" r="21"/><circle cx="110" cy="-873.5" r="15"/><circle cx="85.3" cy="-860.3" r="15"/></g><g fill="#FBF8F0"><path d="M142.5 -418.6C154 -423 156.7 -451.6 162.5 -468.2C168.2 -484.7 173.1 -501.3 177 -517.8C180.8 -534.4 183.8 -550.9 185.8 -567.5C187.8 -584 188.8 -600.5 188.9 -617C189 -633.4 188 -649.8 186.2 -666.1C184.3 -682.4 181.4 -698.6 177.7 -714.7C173.9 -730.7 169.2 -746.7 163.6 -762.5C158 -778.3 151.4 -794 144.1 -809.5C136.7 -825.1 127.6 -850.3 119.4 -855.8C111.1 -861.3 95.6 -852.5 94.7 -842.6C93.7 -832.8 108.2 -812 113.7 -796.8C119.2 -781.6 123.8 -766.5 127.6 -751.5C131.4 -736.5 134.4 -721.6 136.6 -706.7C138.8 -691.9 140.2 -677.1 140.9 -662.4C141.5 -647.7 141.4 -633 140.6 -618.4C139.7 -603.7 138.1 -589.1 135.8 -574.4C133.4 -559.8 130.3 -545.1 126.4 -530.4C122.5 -515.7 117.9 -500.9 112.4 -486.1C106.9 -471.2 88.5 -452.7 93.5 -441.4C98.5 -430.2 131 -414.1 142.5 -418.6Z"/><circle cx="103.3" cy="-856.3" r="21"/><circle cx="110" cy="-873.5" r="15"/><circle cx="85.3" cy="-860.3" r="15"/></g><g fill="#111" stroke="#111" stroke-width="18" stroke-linejoin="round"><path d="M-93.5 -441.4C-88.5 -452.7 -106.9 -471.2 -112.4 -486.1C-117.9 -500.9 -122.5 -515.7 -126.4 -530.4C-130.3 -545.1 -133.4 -559.8 -135.8 -574.4C-138.1 -589.1 -139.7 -603.7 -140.6 -618.4C-141.4 -633 -141.5 -647.7 -140.9 -662.4C-140.2 -677.1 -138.8 -691.9 -136.6 -706.7C-134.4 -721.6 -131.4 -736.5 -127.6 -751.5C-123.8 -766.5 -119.2 -781.6 -113.7 -796.8C-108.2 -812 -93.7 -832.8 -94.7 -842.6C-95.6 -852.5 -111.1 -861.3 -119.4 -855.8C-127.6 -850.3 -136.7 -825.1 -144.1 -809.5C-151.4 -794 -158 -778.3 -163.6 -762.5C-169.2 -746.7 -173.9 -730.7 -177.7 -714.7C-181.4 -698.6 -184.3 -682.4 -186.2 -666.1C-188 -649.8 -189 -633.4 -188.9 -617C-188.8 -600.5 -187.8 -584 -185.8 -567.5C-183.8 -550.9 -180.8 -534.4 -177 -517.8C-173.1 -501.3 -168.2 -484.7 -162.5 -468.2C-156.7 -451.6 -154 -423 -142.5 -418.6C-131 -414.1 -98.5 -430.2 -93.5 -441.4Z"/><circle cx="-103.3" cy="-856.3" r="21"/><circle cx="-85.3" cy="-860.3" r="15"/><circle cx="-110" cy="-873.5" r="15"/></g><g fill="#FBF8F0"><path d="M-93.5 -441.4C-88.5 -452.7 -106.9 -471.2 -112.4 -486.1C-117.9 -500.9 -122.5 -515.7 -126.4 -530.4C-130.3 -545.1 -133.4 -559.8 -135.8 -574.4C-138.1 -589.1 -139.7 -603.7 -140.6 -618.4C-141.4 -633 -141.5 -647.7 -140.9 -662.4C-140.2 -677.1 -138.8 -691.9 -136.6 -706.7C-134.4 -721.6 -131.4 -736.5 -127.6 -751.5C-123.8 -766.5 -119.2 -781.6 -113.7 -796.8C-108.2 -812 -93.7 -832.8 -94.7 -842.6C-95.6 -852.5 -111.1 -861.3 -119.4 -855.8C-127.6 -850.3 -136.7 -825.1 -144.1 -809.5C-151.4 -794 -158 -778.3 -163.6 -762.5C-169.2 -746.7 -173.9 -730.7 -177.7 -714.7C-181.4 -698.6 -184.3 -682.4 -186.2 -666.1C-188 -649.8 -189 -633.4 -188.9 -617C-188.8 -600.5 -187.8 -584 -185.8 -567.5C-183.8 -550.9 -180.8 -534.4 -177 -517.8C-173.1 -501.3 -168.2 -484.7 -162.5 -468.2C-156.7 -451.6 -154 -423 -142.5 -418.6C-131 -414.1 -98.5 -430.2 -93.5 -441.4Z"/><circle cx="-103.3" cy="-856.3" r="21"/><circle cx="-85.3" cy="-860.3" r="15"/><circle cx="-110" cy="-873.5" r="15"/></g><g fill="#111" stroke="#111" stroke-width="18" stroke-linejoin="round"><path d="M-80 -482C-110 -470.7 -94.7 -442.8 -104 -420C-113.3 -397.2 -129.7 -369.2 -136 -345C-142.3 -320.8 -148.3 -296.2 -142 -275C-135.7 -253.8 -117.3 -231.8 -98 -218C-78.7 -204.2 -51.3 -196 -26 -192C-0.7 -188 31 -188.3 54 -194C77 -199.7 95.7 -209.7 112 -226C128.3 -242.3 146 -267.7 152 -292C158 -316.3 154 -347 148 -372C142 -397 128 -422.7 116 -442C104 -461.3 108.7 -481.3 76 -488C43.3 -494.7 -50 -493.3 -80 -482Z"/><path d="M64 -441.8C86.7 -446.1 61.9 -456.8 60.5 -464.3C59.1 -471.7 57.4 -479.1 55.5 -486.5C53.6 -493.9 51.5 -501.3 49.2 -508.6C46.8 -516 44.3 -523.3 41.5 -530.7C38.8 -538 35.9 -545.4 32.7 -552.7C29.6 -560.1 26.3 -567.5 22.8 -574.9C19.3 -582.3 15.6 -589.7 11.7 -597.2C7.9 -604.6 3.8 -612.1 -0.5 -619.7C-4.8 -627.2 5 -648.3 -14 -642.3C-32.9 -636.3 -99 -596.7 -114 -583.7C-129 -570.7 -107.1 -570.7 -103.9 -564.3C-100.8 -558 -97.9 -551.8 -95.3 -545.7C-92.7 -539.6 -90.3 -533.6 -88.1 -527.8C-86 -521.9 -84.1 -516.2 -82.5 -510.6C-80.9 -505 -79.5 -499.5 -78.4 -494.2C-77.3 -488.9 -76.5 -483.7 -75.8 -478.7C-75.2 -473.7 -74.8 -468.8 -74.6 -464.2C-74.5 -459.5 -74.5 -455 -74.8 -450.6C-75 -446.3 -99.1 -439.7 -76 -438.2C-52.9 -436.7 41.2 -437.5 64 -441.8Z"/><ellipse cx="-64" cy="-613" rx="92" ry="80"/></g><g fill="#FBF8F0"><path d="M-80 -482C-110 -470.7 -94.7 -442.8 -104 -420C-113.3 -397.2 -129.7 -369.2 -136 -345C-142.3 -320.8 -148.3 -296.2 -142 -275C-135.7 -253.8 -117.3 -231.8 -98 -218C-78.7 -204.2 -51.3 -196 -26 -192C-0.7 -188 31 -188.3 54 -194C77 -199.7 95.7 -209.7 112 -226C128.3 -242.3 146 -267.7 152 -292C158 -316.3 154 -347 148 -372C142 -397 128 -422.7 116 -442C104 -461.3 108.7 -481.3 76 -488C43.3 -494.7 -50 -493.3 -80 -482Z"/><path d="M64 -441.8C86.7 -446.1 61.9 -456.8 60.5 -464.3C59.1 -471.7 57.4 -479.1 55.5 -486.5C53.6 -493.9 51.5 -501.3 49.2 -508.6C46.8 -516 44.3 -523.3 41.5 -530.7C38.8 -538 35.9 -545.4 32.7 -552.7C29.6 -560.1 26.3 -567.5 22.8 -574.9C19.3 -582.3 15.6 -589.7 11.7 -597.2C7.9 -604.6 3.8 -612.1 -0.5 -619.7C-4.8 -627.2 5 -648.3 -14 -642.3C-32.9 -636.3 -99 -596.7 -114 -583.7C-129 -570.7 -107.1 -570.7 -103.9 -564.3C-100.8 -558 -97.9 -551.8 -95.3 -545.7C-92.7 -539.6 -90.3 -533.6 -88.1 -527.8C-86 -521.9 -84.1 -516.2 -82.5 -510.6C-80.9 -505 -79.5 -499.5 -78.4 -494.2C-77.3 -488.9 -76.5 -483.7 -75.8 -478.7C-75.2 -473.7 -74.8 -468.8 -74.6 -464.2C-74.5 -459.5 -74.5 -455 -74.8 -450.6C-75 -446.3 -99.1 -439.7 -76 -438.2C-52.9 -436.7 41.2 -437.5 64 -441.8Z"/><ellipse cx="-64" cy="-613" rx="92" ry="80"/></g><g transform="translate(-86 -372) scale(0.78)"><g transform="translate(0 150) scale(1 -1)"><path d="M215 147 c0 -13 6 -38 10 -39 2 0 6 2 6 4 0 3 6 13 7 13 1 0 2 -3 3 -6 3 -8 4 -10 7 -10 7 1 -1 27 -9 27 -3 0 -10 -6 -10 -8 0 -3 -2 0 -3 5 -3 15 -4 17 -8 17 -3 0 -3 0 -3 -3z M156 134 c-15 -7 -20 -9 -21 -12 0 -3 3 -3 9 -1 7 3 7 3 6 -11 0 -16 1 -23 3 -26 3 -3 4 -1 3 21 l0 21 7 3 c15 7 7 11 -7 5z M198 127 c-13 -6 -10 -24 3 -24 7 0 15 8 12 12 -1 1 -2 1 -5 -1 -10 -8 -15 1 -4 9 6 5 2 8 -6 4z M170 121 c-13 -10 -2 -31 13 -23 5 2 4 5 -1 5 -8 0 -11 2 -5 3 4 1 9 7 9 10 0 8 -10 11 -16 5z m8 -4 c1 -1 -5 -6 -6 -5 0 1 0 2 1 3 2 3 4 4 5 2z M118 102 c-2 0 -5 -3 -7 -5 -4 -3 -4 -3 -6 -1 -6 8 -8 3 -5 -14 3 -15 4 -14 -1 -12 -4 2 -6 5 -6 11 -1 7 -6 12 -13 12 -11 0 -17 -10 -5 -10 5 0 6 -1 6 -3 0 -6 -6 -13 -8 -9 -2 6 -6 4 -6 -2 0 -2 0 -3 -4 -4 -2 -1 -7 -4 -11 -6 -4 -2 -7 -4 -8 -4 0 0 4 8 8 17 14 32 13 34 -14 23 -23 -9 -29 -13 -29 -16 0 -5 5 -4 22 3 9 4 16 7 16 7 1 0 2 2 -9 -21 -11 -25 -12 -26 -10 -30 3 -3 7 -3 16 3 22 13 30 18 32 18 4 0 9 3 11 6 1 3 1 3 5 0 4 -2 9 -3 11 -1 1 1 2 2 3 1 4 -1 7 4 7 12 0 9 1 11 8 18 7 8 6 11 -3 7z M137 102 c-1 -1 -1 -4 -1 -6 -2 -8 -4 -9 -5 -3 -3 8 -5 7 -5 -2 1 -11 6 -16 12 -10 2 3 4 14 4 19 -1 3 -5 5 -5 2z M201 77 c-61 -17 -115 -41 -148 -66 -14 -11 -14 -11 -5 -11 8 0 8 0 19 8 15 11 26 17 43 24 13 6 95 40 107 44 3 1 6 2 6 3 0 3 -8 2 -22 -2z" fill="#111"/></g></g><g transform="translate(-64 -613) rotate(-14) scale(0.86)"><path d="M14 54C64 38 146 34 206 48C214 74 186 104 132 108C80 110 32 104 10 92C6 76 8 60 14 54Z" fill="#F7C05A" stroke="#111" stroke-width="10.465116279069768" stroke-linejoin="round"/><path d="M26 78C80 86 144 84 192 72" fill="none" stroke="#111" stroke-width="5" stroke-linecap="round"/><g transform="translate(8 4)"><path d="M-62 -22C0 -30 70 -32 150 -20C158 -10 150 22 118 36C84 48 60 30 52 6C40 12 20 12 6 8C-4 30 -28 46 -54 30C-70 16 -72 -8 -62 -22Z" fill="#111"/><path d="M-40 -12C-30 -16 -16 -14 -8 -10M72 -10C84 -14 100 -14 112 -10" stroke="#fff" stroke-width="4" stroke-linecap="round" fill="none" opacity="0.55"/></g><g transform="rotate(-8)"><path d="M-100 -26C-110 -92-60 -146 18 -146C96 -146 120 -96 110 -58C60 -70-30 -66-100 -26Z" fill="#FBF8F0" stroke="#111" stroke-width="10.465116279069768" stroke-linejoin="round"/><path d="M-100 -26C-140 -34-178 -20-196 12C-160 22-122 14-94 0Z" fill="#FBF8F0" stroke="#111" stroke-width="10.465116279069768" stroke-linejoin="round"/><path d="M-8 -118L38 -118L-8 -78L40 -78" fill="none" stroke="#111" stroke-width="10" stroke-linecap="round" stroke-linejoin="round"/></g></g></g></g><g id="fx"><g opacity="0.8"><path d="M1049.2 269.9L961.1 251.2" stroke="#111" stroke-width="2.5" stroke-linecap="round"/><path d="M1041.3 236.7L933.6 169.4" stroke="#111" stroke-width="2.5" stroke-linecap="round"/><path d="M1049.9 197.8L992.1 123.7" stroke="#111" stroke-width="2.5" stroke-linecap="round"/><path d="M1096 217.9L1055.5 93.3" stroke="#111" stroke-width="2.5" stroke-linecap="round"/><path d="M1117.7 194.4L1117.7 96.4" stroke="#111" stroke-width="2.5" stroke-linecap="round"/><path d="M1151.6 179.8L1193.4 51.4" stroke="#111" stroke-width="2.5" stroke-linecap="round"/><path d="M1160.7 229.3L1223.5 148.9" stroke="#111" stroke-width="2.5" stroke-linecap="round"/><path d="M1194 236.7L1311.9 163.1" stroke="#111" stroke-width="2.5" stroke-linecap="round"/><path d="M1225.2 261.6L1328.9 239.5" stroke="#111" stroke-width="2.5" stroke-linecap="round"/></g><path d="M1071.7 308.4q18 -22 34 -6M1125.7 304.4q20 -18 38 0" stroke="#111" stroke-width="5" stroke-linecap="round" fill="none"/><path d="M1170 920L1222 916" stroke="#111" stroke-width="6" stroke-linecap="round"/><path d="M1180 962L1242 966" stroke="#111" stroke-width="6" stroke-linecap="round"/></g></svg>