<svg xmlns="http://www.w3.org/2000/svg" viewBox="0 0 1920 1080" width="1920" height="1080" preserveAspectRatio="xMidYMax slice"><title>ZaruTech duck opening, frame 105/180</title><g id="cover"><defs><clipPath id="cp"><path d="M-300 -300H2220L2220 1483.3C2213.3 1483.3 2193.3 1483.3 2180 1483.3C2166.7 1483.3 2153.3 1483.3 2140 1483.3C2126.7 1483.3 2113.3 1483.3 2100 1483.3C2086.7 1483.3 2073.3 1483.3 2060 1483.3C2046.7 1483.3 2033.3 1483.4 2020 1483.3C2006.7 1483.1 1993.3 1483 1980 1482.2C1966.7 1481.4 1953.3 1480.1 1940 1478.4C1926.7 1476.8 1913.3 1474.6 1900 1472C1886.7 1469.5 1873.3 1466.5 1860 1463.1C1846.7 1459.7 1833.3 1455.9 1820 1451.8C1806.7 1447.7 1793.3 1443.2 1780 1438.4C1766.7 1433.7 1753.3 1428.5 1740 1423.2C1726.7 1417.9 1713.3 1412.2 1700 1406.4C1686.7 1400.6 1673.3 1394.5 1660 1388.4C1646.7 1382.2 1633.3 1375.9 1620 1369.5C1606.7 1363.2 1593.3 1356.6 1580 1350.2C1566.7 1343.7 1553.3 1337.2 1540 1330.7C1526.7 1324.3 1513.3 1317.9 1500 1311.6C1486.7 1305.3 1473.3 1299.1 1460 1293.1C1446.7 1287.1 1433.3 1281.2 1420 1275.7C1406.7 1270.1 1393.3 1264.7 1380 1259.6C1366.7 1254.5 1353.3 1249.7 1340 1245.3C1326.7 1240.8 1313.3 1236.7 1300 1232.9C1286.7 1229.2 1273.3 1225.8 1260 1222.8C1246.7 1219.8 1233.3 1217.2 1220 1215.1C1206.7 1213 1193.3 1211.3 1180 1210C1166.7 1208.8 1153.3 1208 1140 1207.6C1126.7 1207.3 1113.3 1207.4 1100 1208C1086.7 1208.6 1073.3 1209.6 1060 1211.1C1046.7 1212.6 1033.3 1214.5 1020 1216.8C1006.7 1219.2 993.3 1222 980 1225.1C966.7 1228.3 953.3 1231.9 940 1235.9C926.7 1239.8 913.3 1244.1 900 1248.7C886.7 1253.4 873.3 1258.3 860 1263.6C846.7 1268.8 833.3 1274.3 820 1280C806.7 1285.7 793.3 1291.7 780 1297.7C766.7 1303.8 753.3 1310.1 740 1316.4C726.7 1322.7 713.3 1329.2 700 1335.7C686.7 1342.1 673.3 1348.7 660 1355.1C646.7 1361.6 633.3 1368.1 620 1374.4C606.7 1380.7 593.3 1387 580 1393.1C566.7 1399.2 553.3 1405.1 540 1410.8C526.7 1416.5 513.3 1422 500 1427.2C486.7 1432.5 473.3 1437.4 460 1442C446.7 1446.7 433.3 1451 420 1454.9C406.7 1458.9 393.3 1462.5 380 1465.6C366.7 1468.8 353.3 1471.6 340 1473.9C326.7 1476.3 313.3 1478.2 300 1479.7C286.7 1481.1 273.3 1482.1 260 1482.7C246.7 1483.3 233.3 1483.2 220 1483.3C206.7 1483.4 193.3 1483.3 180 1483.3C166.7 1483.3 153.3 1483.3 140 1483.3C126.7 1483.3 113.3 1483.3 100 1483.3C86.7 1483.3 73.3 1483.3 60 1483.3C46.7 1483.3 33.3 1483.3 20 1483.3C6.7 1483.3 -6.7 1483.3 -20 1483.3C-33.3 1483.3 -46.7 1483.3 -60 1483.3C-73.3 1483.3 -86.7 1483.3 -100 1483.3C-113.3 1483.3 -126.7 1483.3 -140 1483.3C-153.3 1483.3 -166.7 1483.3 -180 1483.3C-193.3 1483.3 -206.7 1483.3 -220 1483.3C-233.3 1483.3 -246.7 1483.3 -260 1483.3C-273.3 1483.3 -293.3 1483.3 -300 1483.3Z"/></clipPath><radialGradient id="stain"><stop offset="0" stop-color="#8c8574" stop-opacity="0.22"/><stop offset="1" stop-color="#8c8574" stop-opacity="0"/></radialGradient></defs><path d="M-300 -300H2220L2220 1483.3C2213.3 1483.3 2193.3 1483.3 2180 1483.3C2166.7 1483.3 2153.3 1483.3 2140 1483.3C2126.7 1483.3 2113.3 1483.3 2100 1483.3C2086.7 1483.3 2073.3 1483.3 2060 1483.3C2046.7 1483.3 2033.3 1483.4 2020 1483.3C2006.7 1483.1 1993.3 1483 1980 1482.2C1966.7 1481.4 1953.3 1480.1 1940 1478.4C1926.7 1476.8 1913.3 1474.6 1900 1472C1886.7 1469.5 1873.3 1466.5 1860 1463.1C1846.7 1459.7 1833.3 1455.9 1820 1451.8C1806.7 1447.7 1793.3 1443.2 1780 1438.4C1766.7 1433.7 1753.3 1428.5 1740 1423.2C1726.7 1417.9 1713.3 1412.2 1700 1406.4C1686.7 1400.6 1673.3 1394.5 1660 1388.4C1646.7 1382.2 1633.3 1375.9 1620 1369.5C1606.7 1363.2 1593.3 1356.6 1580 1350.2C1566.7 1343.7 1553.3 1337.2 1540 1330.7C1526.7 1324.3 1513.3 1317.9 1500 1311.6C1486.7 1305.3 1473.3 1299.1 1460 1293.1C1446.7 1287.1 1433.3 1281.2 1420 1275.7C1406.7 1270.1 1393.3 1264.7 1380 1259.6C1366.7 1254.5 1353.3 1249.7 1340 1245.3C1326.7 1240.8 1313.3 1236.7 1300 1232.9C1286.7 1229.2 1273.3 1225.8 1260 1222.8C1246.7 1219.8 1233.3 1217.2 1220 1215.1C1206.7 1213 1193.3 1211.3 1180 1210C1166.7 1208.8 1153.3 1208 1140 1207.6C1126.7 1207.3 1113.3 1207.4 1100 1208C1086.7 1208.6 1073.3 1209.6 1060 1211.1C1046.7 1212.6 1033.3 1214.5 1020 1216.8C1006.7 1219.2 993.3 1222 980 1225.1C966.7 1228.3 953.3 1231.9 940 1235.9C926.7 1239.8 913.3 1244.1 900 1248.7C886.7 1253.4 873.3 1258.3 860 1263.6C846.7 1268.8 833.3 1274.3 820 1280C806.7 1285.7 793.3 1291.7 780 1297.7C766.7 1303.8 753.3 1310.1 740 1316.4C726.7 1322.7 713.3 1329.2 700 1335.7C686.7 1342.1 673.3 1348.7 660 1355.1C646.7 1361.6 633.3 1368.1 620 1374.4C606.7 1380.7 593.3 1387 580 1393.1C566.7 1399.2 553.3 1405.1 540 1410.8C526.7 1416.5 513.3 1422 500 1427.2C486.7 1432.5 473.3 1437.4 460 1442C446.7 1446.7 433.3 1451 420 1454.9C406.7 1458.9 393.3 1462.5 380 1465.6C366.7 1468.8 353.3 1471.6 340 1473.9C326.7 1476.3 313.3 1478.2 300 1479.7C286.7 1481.1 273.3 1482.1 260 1482.7C246.7 1483.3 233.3 1483.2 220 1483.3C206.7 1483.4 193.3 1483.3 180 1483.3C166.7 1483.3 153.3 1483.3 140 1483.3C126.7 1483.3 113.3 1483.3 100 1483.3C86.7 1483.3 73.3 1483.3 60 1483.3C46.7 1483.3 33.3 1483.3 20 1483.3C6.7 1483.3 -6.7 1483.3 -20 1483.3C-33.3 1483.3 -46.7 1483.3 -60 1483.3C-73.3 1483.3 -86.7 1483.3 -100 1483.3C-113.3 1483.3 -126.7 1483.3 -140 1483.3C-153.3 1483.3 -166.7 1483.3 -180 1483.3C-193.3 1483.3 -206.7 1483.3 -220 1483.3C-233.3 1483.3 -246.7 1483.3 -260 1483.3C-273.3 1483.3 -293.3 1483.3 -300 1483.3Z" fill="#EFEADF"/><g clip-path="url(#cp)"><ellipse cx="560" cy="360" rx="520" ry="300" fill="url(#stain)" opacity="1"/><ellipse cx="1380" cy="460" rx="560" ry="320" fill="url(#stain)" opacity="0.8"/><ellipse cx="980" cy="880" rx="640" ry="240" fill="url(#stain)" opacity="0.5"/><path d="M18 30L150 130" stroke="#111" stroke-width="3" stroke-linecap="round" opacity="0.55"/><path d="M18 80L110 160" stroke="#111" stroke-width="2.5" stroke-linecap="round" opacity="0.55"/><path d="M60 22L200 70" stroke="#111" stroke-width="2.5" stroke-linecap="round" opacity="0.55"/><path d="M1902 30L1770 130" stroke="#111" stroke-width="3" stroke-linecap="round" opacity="0.55"/><path d="M1902 80L1810 160" stroke="#111" stroke-width="2.5" stroke-linecap="round" opacity="0.55"/><path d="M1860 22L1720 70" stroke="#111" stroke-width="2.5" stroke-linecap="round" opacity="0.55"/><path d="M16 1050L150 960" stroke="#111" stroke-width="3" stroke-linecap="round" opacity="0.55"/><path d="M16 1000L100 940" stroke="#111" stroke-width="2.5" stroke-linecap="round" opacity="0.55"/><path d="M1904 1050L1770 960" stroke="#111" stroke-width="3" stroke-linecap="round" opacity="0.55"/><path d="M1904 1000L1820 940" stroke="#111" stroke-width="2.5" stroke-linecap="round" opacity="0.55"/></g><path d="M-300 1483.3C-293.3 1483.3 -273.3 1483.3 -260 1483.3C-246.7 1483.3 -233.3 1483.3 -220 1483.3C-206.7 1483.3 -193.3 1483.3 -180 1483.3C-166.7 1483.3 -153.3 1483.3 -140 1483.3C-126.7 1483.3 -113.3 1483.3 -100 1483.3C-86.7 1483.3 -73.3 1483.3 -60 1483.3C-46.7 1483.3 -33.3 1483.3 -20 1483.3C-6.7 1483.3 6.7 1483.3 20 1483.3C33.3 1483.3 46.7 1483.3 60 1483.3C73.3 1483.3 86.7 1483.3 100 1483.3C113.3 1483.3 126.7 1483.3 140 1483.3C153.3 1483.3 166.7 1483.3 180 1483.3C193.3 1483.3 206.7 1483.4 220 1483.3C233.3 1483.2 246.7 1483.3 260 1482.7C273.3 1482.1 286.7 1481.1 300 1479.7C313.3 1478.2 326.7 1476.3 340 1473.9C353.3 1471.6 366.7 1468.8 380 1465.6C393.3 1462.5 406.7 1458.9 420 1454.9C433.3 1451 446.7 1446.7 460 1442C473.3 1437.4 486.7 1432.5 500 1427.2C513.3 1422 526.7 1416.5 540 1410.8C553.3 1405.1 566.7 1399.2 580 1393.1C593.3 1387 606.7 1380.7 620 1374.4C633.3 1368.1 646.7 1361.6 660 1355.1C673.3 1348.7 686.7 1342.1 700 1335.7C713.3 1329.2 726.7 1322.7 740 1316.4C753.3 1310.1 766.7 1303.8 780 1297.7C793.3 1291.7 806.7 1285.7 820 1280C833.3 1274.3 846.7 1268.8 860 1263.6C873.3 1258.3 886.7 1253.4 900 1248.7C913.3 1244.1 926.7 1239.8 940 1235.9C953.3 1231.9 966.7 1228.3 980 1225.1C993.3 1222 1006.7 1219.2 1020 1216.8C1033.3 1214.5 1046.7 1212.6 1060 1211.1C1073.3 1209.6 1086.7 1208.6 1100 1208C1113.3 1207.4 1126.7 1207.3 1140 1207.6C1153.3 1208 1166.7 1208.8 1180 1210C1193.3 1211.3 1206.7 1213 1220 1215.1C1233.3 1217.2 1246.7 1219.8 1260 1222.8C1273.3 1225.8 1286.7 1229.2 1300 1232.9C1313.3 1236.7 1326.7 1240.8 1340 1245.3C1353.3 1249.7 1366.7 1254.5 1380 1259.6C1393.3 1264.7 1406.7 1270.1 1420 1275.7C1433.3 1281.2 1446.7 1287.1 1460 1293.1C1473.3 1299.1 1486.7 1305.3 1500 1311.6C1513.3 1317.9 1526.7 1324.3 1540 1330.7C1553.3 1337.2 1566.7 1343.7 1580 1350.2C1593.3 1356.6 1606.7 1363.2 1620 1369.5C1633.3 1375.9 1646.7 1382.2 1660 1388.4C1673.3 1394.5 1686.7 1400.6 1700 1406.4C1713.3 1412.2 1726.7 1417.9 1740 1423.2C1753.3 1428.5 1766.7 1433.7 1780 1438.4C1793.3 1443.2 1806.7 1447.7 1820 1451.8C1833.3 1455.9 1846.7 1459.7 1860 1463.1C1873.3 1466.5 1886.7 1469.5 1900 1472C1913.3 1474.6 1926.7 1476.8 1940 1478.4C1953.3 1480.1 1966.7 1481.4 1980 1482.2C1993.3 1483 2006.7 1483.1 2020 1483.3C2033.3 1483.4 2046.7 1483.3 2060 1483.3C2073.3 1483.3 2086.7 1483.3 2100 1483.3C2113.3 1483.3 2126.7 1483.3 2140 1483.3C2153.3 1483.3 2166.7 1483.3 2180 1483.3C2193.3 1483.3 2213.3 1483.3 2220 1483.3" fill="none" stroke="#D8D1C0" stroke-width="26" stroke-linecap="round" transform="translate(0 -13)" opacity="0.7"/><path d="M-300 1483.3C-293.3 1483.3 -273.3 1483.3 -260 1483.3C-246.7 1483.3 -233.3 1483.3 -220 1483.3C-206.7 1483.3 -193.3 1483.3 -180 1483.3C-166.7 1483.3 -153.3 1483.3 -140 1483.3C-126.7 1483.3 -113.3 1483.3 -100 1483.3C-86.7 1483.3 -73.3 1483.3 -60 1483.3C-46.7 1483.3 -33.3 1483.3 -20 1483.3C-6.7 1483.3 6.7 1483.3 20 1483.3C33.3 1483.3 46.7 1483.3 60 1483.3C73.3 1483.3 86.7 1483.3 100 1483.3C113.3 1483.3 126.7 1483.3 140 1483.3C153.3 1483.3 166.7 1483.3 180 1483.3C193.3 1483.3 206.7 1483.4 220 1483.3C233.3 1483.2 246.7 1483.3 260 1482.7C273.3 1482.1 286.7 1481.1 300 1479.7C313.3 1478.2 326.7 1476.3 340 1473.9C353.3 1471.6 366.7 1468.8 380 1465.6C393.3 1462.5 406.7 1458.9 420 1454.9C433.3 1451 446.7 1446.7 460 1442C473.3 1437.4 486.7 1432.5 500 1427.2C513.3 1422 526.7 1416.5 540 1410.8C553.3 1405.1 566.7 1399.2 580 1393.1C593.3 1387 606.7 1380.7 620 1374.4C633.3 1368.1 646.7 1361.6 660 1355.1C673.3 1348.7 686.7 1342.1 700 1335.7C713.3 1329.2 726.7 1322.7 740 1316.4C753.3 1310.1 766.7 1303.8 780 1297.7C793.3 1291.7 806.7 1285.7 820 1280C833.3 1274.3 846.7 1268.8 860 1263.6C873.3 1258.3 886.7 1253.4 900 1248.7C913.3 1244.1 926.7 1239.8 940 1235.9C953.3 1231.9 966.7 1228.3 980 1225.1C993.3 1222 1006.7 1219.2 1020 1216.8C1033.3 1214.5 1046.7 1212.6 1060 1211.1C1073.3 1209.6 1086.7 1208.6 1100 1208C1113.3 1207.4 1126.7 1207.3 1140 1207.6C1153.3 1208 1166.7 1208.8 1180 1210C1193.3 1211.3 1206.7 1213 1220 1215.1C1233.3 1217.2 1246.7 1219.8 1260 1222.8C1273.3 1225.8 1286.7 1229.2 1300 1232.9C1313.3 1236.7 1326.7 1240.8 1340 1245.3C1353.3 1249.7 1366.7 1254.5 1380 1259.6C1393.3 1264.7 1406.7 1270.1 1420 1275.7C1433.3 1281.2 1446.7 1287.1 1460 1293.1C1473.3 1299.1 1486.7 1305.3 1500 1311.6C1513.3 1317.9 1526.7 1324.3 1540 1330.7C1553.3 1337.2 1566.7 1343.7 1580 1350.2C1593.3 1356.6 1606.7 1363.2 1620 1369.5C1633.3 1375.9 1646.7 1382.2 1660 1388.4C1673.3 1394.5 1686.7 1400.6 1700 1406.4C1713.3 1412.2 1726.7 1417.9 1740 1423.2C1753.3 1428.5 1766.7 1433.7 1780 1438.4C1793.3 1443.2 1806.7 1447.7 1820 1451.8C1833.3 1455.9 1846.7 1459.7 1860 1463.1C1873.3 1466.5 1886.7 1469.5 1900 1472C1913.3 1474.6 1926.7 1476.8 1940 1478.4C1953.3 1480.1 1966.7 1481.4 1980 1482.2C1993.3 1483 2006.7 1483.1 2020 1483.3C2033.3 1483.4 2046.7 1483.3 2060 1483.3C2073.3 1483.3 2086.7 1483.3 2100 1483.3C2113.3 1483.3 2126.7 1483.3 2140 1483.3C2153.3 1483.3 2166.7 1483.3 2180 1483.3C2193.3 1483.3 2213.3 1483.3 2220 1483.3" fill="none" stroke="#111" stroke-width="5" stroke-linejoin="round"/></g><g id="duck" stroke-linejoin="round" stroke-linecap="round"><ellipse cx="960" cy="1046" rx="299.2" ry="21.1" fill="#000" opacity="0.1"/><path d="M924.2 851.2L810.4 1016.6" stroke="#fff" stroke-opacity="0.4" stroke-width="19" stroke-linecap="round" fill="none"/><path d="M924.2 851.2L810.4 1016.6" stroke="#111" stroke-width="6.7" stroke-linecap="round" fill="none"/><path d="M1014.2 872.3L1140.4 1016.6" stroke="#fff" stroke-opacity="0.4" stroke-width="19" stroke-linecap="round" fill="none"/><path d="M1014.2 872.3L1140.4 1016.6" stroke="#111" stroke-width="6.7" stroke-linecap="round" fill="none"/><path transform="translate(810.4 1020.6) rotate(-8) scale(-0.88 0.88)" d="M-20 -6C-2-18 34-24 74-20L98-10L82-4L98 6L74 10L84 20C56 26 18 24-10 15C-22 9-24 0-20-6Z" fill="#F7C05A" stroke="#111" stroke-width="9" stroke-linejoin="round"/><path transform="translate(1140.4 1020.6) rotate(8) scale(0.88 0.88)" d="M-20 -6C-2-18 34-24 74-20L98-10L82-4L98 6L74 10L84 20C56 26 18 24-10 15C-22 9-24 0-20-6Z" fill="#F7C05A" stroke="#111" stroke-width="9" stroke-linejoin="round"/><g transform="translate(960 1040) scale(0.88) translate(0 -190) rotate(15.5) scale(0.9545 1.065) translate(0 190)"><g fill="#111" stroke="#111" stroke-width="18" stroke-linejoin="round"><path d="M142.5 -418.6C154 -423 156.7 -451.6 162.5 -468.2C168.2 -484.7 173.1 -501.3 177 -517.8C180.8 -534.4 183.8 -550.9 185.8 -567.5C187.8 -584 188.8 -600.5 188.9 -617C189 -633.4 188 -649.8 186.2 -666.1C184.3 -682.4 181.4 -698.6 177.7 -714.7C173.9 -730.7 169.2 -746.7 163.6 -762.5C158 -778.3 151.4 -794 144.1 -809.5C136.7 -825.1 127.6 -850.3 119.4 -855.8C111.1 -861.3 95.6 -852.5 94.7 -842.6C93.7 -832.8 108.2 -812 113.7 -796.8C119.2 -781.6 123.8 -766.5 127.6 -751.5C131.4 -736.5 134.4 -721.6 136.6 -706.7C138.8 -691.9 140.2 -677.1 140.9 -662.4C141.5 -647.7 141.4 -633 140.6 -618.4C139.7 -603.7 138.1 -589.1 135.8 -574.4C133.4 -559.8 130.3 -545.1 126.4 -530.4C122.5 -515.7 117.9 -500.9 112.4 -486.1C106.9 -471.2 88.5 -452.7 93.5 -441.4C98.5 -430.2 131 -414.1 142.5 -418.6Z"/><circle cx="103.3" cy="-856.3" r="21"/><circle cx="110" cy="-873.5" r="15"/><circle cx="85.3" cy="-860.3" r="15"/></g><g fill="#FBF8F0"><path d="M142.5 -418.6C154 -423 156.7 -451.6 162.5 -468.2C168.2 -484.7 173.1 -501.3 177 -517.8C180.8 -534.4 183.8 -550.9 185.8 -567.5C187.8 -584 188.8 -600.5 188.9 -617C189 -633.4 188 -649.8 186.2 -666.1C184.3 -682.4 181.4 -698.6 177.7 -714.7C173.9 -730.7 169.2 -746.7 163.6 -762.5C158 -778.3 151.4 -794 144.1 -809.5C136.7 -825.1 127.6 -850.3 119.4 -855.8C111.1 -861.3 95.6 -852.5 94.7 -842.6C93.7 -832.8 108.2 -812 113.7 -796.8C119.2 -781.6 123.8 -766.5 127.6 -751.5C131.4 -736.5 134.4 -721.6 136.6 -706.7C138.8 -691.9 140.2 -677.1 140.9 -662.4C141.5 -647.7 141.4 -633 140.6 -618.4C139.7 -603.7 138.1 -589.1 135.8 -574.4C133.4 -559.8 130.3 -545.1 126.4 -530.4C122.5 -515.7 117.9 -500.9 112.4 -486.1C106.9 -471.2 88.5 -452.7 93.5 -441.4C98.5 -430.2 131 -414.1 142.5 -418.6Z"/><circle cx="103.3" cy="-856.3" r="21"/><circle cx="110" cy="-873.5" r="15"/><circle cx="85.3" cy="-860.3" r="15"/></g><g fill="#111" stroke="#111" stroke-width="18" stroke-linejoin="round"><path d="M-93.5 -441.4C-88.5 -452.7 -106.9 -471.2 -112.4 -486.1C-117.9 -500.9 -122.5 -515.7 -126.4 -530.4C-130.3 -545.1 -133.4 -559.8 -135.8 -574.4C-138.1 -589.1 -139.7 -603.7 -140.6 -618.4C-141.4 -633 -141.5 -647.7 -140.9 -662.4C-140.2 -677.1 -138.8 -691.9 -136.6 -706.7C-134.4 -721.6 -131.4 -736.5 -127.6 -751.5C-123.8 -766.5 -119.2 -781.6 -113.7 -796.8C-108.2 -812 -93.7 -832.8 -94.7 -842.6C-95.6 -852.5 -111.1 -861.3 -119.4 -855.8C-127.6 -850.3 -136.7 -825.1 -144.1 -809.5C-151.4 -794 -158 -778.3 -163.6 -762.5C-169.2 -746.7 -173.9 -730.7 -177.7 -714.7C-181.4 -698.6 -184.3 -682.4 -186.2 -666.1C-188 -649.8 -189 -633.4 -188.9 -617C-188.8 -600.5 -187.8 -584 -185.8 -567.5C-183.8 -550.9 -180.8 -534.4 -177 -517.8C-173.1 -501.3 -168.2 -484.7 -162.5 -468.2C-156.7 -451.6 -154 -423 -142.5 -418.6C-131 -414.1 -98.5 -430.2 -93.5 -441.4Z"/><circle cx="-103.3" cy="-856.3" r="21"/><circle cx="-85.3" cy="-860.3" r="15"/><circle cx="-110" cy="-873.5" r="15"/></g><g fill="#FBF8F0"><path d="M-93.5 -441.4C-88.5 -452.7 -106.9 -471.2 -112.4 -486.1C-117.9 -500.9 -122.5 -515.7 -126.4 -530.4C-130.3 -545.1 -133.4 -559.8 -135.8 -574.4C-138.1 -589.1 -139.7 -603.7 -140.6 -618.4C-141.4 -633 -141.5 -647.7 -140.9 -662.4C-140.2 -677.1 -138.8 -691.9 -136.6 -706.7C-134.4 -721.6 -131.4 -736.5 -127.6 -751.5C-123.8 -766.5 -119.2 -781.6 -113.7 -796.8C-108.2 -812 -93.7 -832.8 -94.7 -842.6C-95.6 -852.5 -111.1 -861.3 -119.4 -855.8C-127.6 -850.3 -136.7 -825.1 -144.1 -809.5C-151.4 -794 -158 -778.3 -163.6 -762.5C-169.2 -746.7 -173.9 -730.7 -177.7 -714.7C-181.4 -698.6 -184.3 -682.4 -186.2 -666.1C-188 -649.8 -189 -633.4 -188.9 -617C-188.8 -600.5 -187.8 -584 -185.8 -567.5C-183.8 -550.9 -180.8 -534.4 -177 -517.8C-173.1 -501.3 -168.2 -484.7 -162.5 -468.2C-156.7 -451.6 -154 -423 -142.5 -418.6C-131 -414.1 -98.5 -430.2 -93.5 -441.4Z"/><circle cx="-103.3" cy="-856.3" r="21"/><circle cx="-85.3" cy="-860.3" r="15"/><circle cx="-110" cy="-873.5" r="15"/></g><g fill="#111" stroke="#111" stroke-width="18" stroke-linejoin="round"><path d="M-80 -482C-110 -470.7 -94.7 -442.8 -104 -420C-113.3 -397.2 -129.7 -369.2 -136 -345C-142.3 -320.8 -148.3 -296.2 -142 -275C-135.7 -253.8 -117.3 -231.8 -98 -218C-78.7 -204.2 -51.3 -196 -26 -192C-0.7 -188 31 -188.3 54 -194C77 -199.7 95.7 -209.7 112 -226C128.3 -242.3 146 -267.7 152 -292C158 -316.3 154 -347 148 -372C142 -397 128 -422.7 116 -442C104 -461.3 108.7 -481.3 76 -488C43.3 -494.7 -50 -493.3 -80 -482Z"/><path d="M64 -441.8C86.7 -446.1 61.9 -456.8 60.5 -464.3C59.1 -471.7 57.4 -479.1 55.5 -486.5C53.6 -493.9 51.5 -501.3 49.2 -508.6C46.8 -516 44.3 -523.3 41.5 -530.7C38.8 -538 35.9 -545.4 32.7 -552.7C29.6 -560.1 26.3 -567.5 22.8 -574.9C19.3 -582.3 15.6 -589.7 11.7 -597.2C7.9 -604.6 3.8 -612.1 -0.5 -619.7C-4.8 -627.2 5 -648.3 -14 -642.3C-32.9 -636.3 -99 -596.7 -114 -583.7C-129 -570.7 -107.1 -570.7 -103.9 -564.3C-100.8 -558 -97.9 -551.8 -95.3 -545.7C-92.7 -539.6 -90.3 -533.6 -88.1 -527.8C-86 -521.9 -84.1 -516.2 -82.5 -510.6C-80.9 -505 -79.5 -499.5 -78.4 -494.2C-77.3 -488.9 -76.5 -483.7 -75.8 -478.7C-75.2 -473.7 -74.8 -468.8 -74.6 -464.2C-74.5 -459.5 -74.5 -455 -74.8 -450.6C-75 -446.3 -99.1 -439.7 -76 -438.2C-52.9 -436.7 41.2 -437.5 64 -441.8Z"/><ellipse cx="-64" cy="-613" rx="92" ry="80"/></g><g fill="#FBF8F0"><path d="M-80 -482C-110 -470.7 -94.7 -442.8 -104 -420C-113.3 -397.2 -129.7 -369.2 -136 -345C-142.3 -320.8 -148.3 -296.2 -142 -275C-135.7 -253.8 -117.3 -231.8 -98 -218C-78.7 -204.2 -51.3 -196 -26 -192C-0.7 -188 31 -188.3 54 -194C77 -199.7 95.7 -209.7 112 -226C128.3 -242.3 146 -267.7 152 -292C158 -316.3 154 -347 148 -372C142 -397 128 -422.7 116 -442C104 -461.3 108.7 -481.3 76 -488C43.3 -494.7 -50 -493.3 -80 -482Z"/><path d="M64 -441.8C86.7 -446.1 61.9 -456.8 60.5 -464.3C59.1 -471.7 57.4 -479.1 55.5 -486.5C53.6 -493.9 51.5 -501.3 49.2 -508.6C46.8 -516 44.3 -523.3 41.5 -530.7C38.8 -538 35.9 -545.4 32.7 -552.7C29.6 -560.1 26.3 -567.5 22.8 -574.9C19.3 -582.3 15.6 -589.7 11.7 -597.2C7.9 -604.6 3.8 -612.1 -0.5 -619.7C-4.8 -627.2 5 -648.3 -14 -642.3C-32.9 -636.3 -99 -596.7 -114 -583.7C-129 -570.7 -107.1 -570.7 -103.9 -564.3C-100.8 -558 -97.9 -551.8 -95.3 -545.7C-92.7 -539.6 -90.3 -533.6 -88.1 -527.8C-86 -521.9 -84.1 -516.2 -82.5 -510.6C-80.9 -505 -79.5 -499.5 -78.4 -494.2C-77.3 -488.9 -76.5 -483.7 -75.8 -478.7C-75.2 -473.7 -74.8 -468.8 -74.6 -464.2C-74.5 -459.5 -74.5 -455 -74.8 -450.6C-75 -446.3 -99.1 -439.7 -76 -438.2C-52.9 -436.7 41.2 -437.5 64 -441.8Z"/><ellipse cx="-64" cy="-613" rx="92" ry="80"/></g><g transform="translate(-86 -372) scale(0.78)"><g transform="translate(0 150) scale(1 -1)"><path d="M215 147 c0 -13 6 -38 10 -39 2 0 6 2 6 4 0 3 6 13 7 13 1 0 2 -3 3 -6 3 -8 4 -10 7 -10 7 1 -1 27 -9 27 -3 0 -10 -6 -10 -8 0 -3 -2 0 -3 5 -3 15 -4 17 -8 17 -3 0 -3 0 -3 -3z M156 134 c-15 -7 -20 -9 -21 -12 0 -3 3 -3 9 -1 7 3 7 3 6 -11 0 -16 1 -23 3 -26 3 -3 4 -1 3 21 l0 21 7 3 c15 7 7 11 -7 5z M198 127 c-13 -6 -10 -24 3 -24 7 0 15 8 12 12 -1 1 -2 1 -5 -1 -10 -8 -15 1 -4 9 6 5 2 8 -6 4z M170 121 c-13 -10 -2 -31 13 -23 5 2 4 5 -1 5 -8 0 -11 2 -5 3 4 1 9 7 9 10 0 8 -10 11 -16 5z m8 -4 c1 -1 -5 -6 -6 -5 0 1 0 2 1 3 2 3 4 4 5 2z M118 102 c-2 0 -5 -3 -7 -5 -4 -3 -4 -3 -6 -1 -6 8 -8 3 -5 -14 3 -15 4 -14 -1 -12 -4 2 -6 5 -6 11 -1 7 -6 12 -13 12 -11 0 -17 -10 -5 -10 5 0 6 -1 6 -3 0 -6 -6 -13 -8 -9 -2 6 -6 4 -6 -2 0 -2 0 -3 -4 -4 -2 -1 -7 -4 -11 -6 -4 -2 -7 -4 -8 -4 0 0 4 8 8 17 14 32 13 34 -14 23 -23 -9 -29 -13 -29 -16 0 -5 5 -4 22 3 9 4 16 7 16 7 1 0 2 2 -9 -21 -11 -25 -12 -26 -10 -30 3 -3 7 -3 16 3 22 13 30 18 32 18 4 0 9 3 11 6 1 3 1 3 5 0 4 -2 9 -3 11 -1 1 1 2 2 3 1 4 -1 7 4 7 12 0 9 1 11 8 18 7 8 6 11 -3 7z M137 102 c-1 -1 -1 -4 -1 -6 -2 -8 -4 -9 -5 -3 -3 8 -5 7 -5 -2 1 -11 6 -16 12 -10 2 3 4 14 4 19 -1 3 -5 5 -5 2z M201 77 c-61 -17 -115 -41 -148 -66 -14 -11 -14 -11 -5 -11 8 0 8 0 19 8 15 11 26 17 43 24 13 6 95 40 107 44 3 1 6 2 6 3 0 3 -8 2 -22 -2z" fill="#111"/></g></g><g transform="translate(-64 -613) rotate(-14) scale(0.86)"><path d="M14 54C64 38 146 34 206 48C214 74 186 104 132 108C80 110 32 104 10 92C6 76 8 60 14 54Z" fill="#F7C05A" stroke="#111" stroke-width="10.465116279069768" stroke-linejoin="round"/><path d="M26 78C80 86 144 84 192 72" fill="none" stroke="#111" stroke-width="5" stroke-linecap="round"/><g transform="translate(8 0)"><path d="M-62 -22C0 -30 70 -32 150 -20C158 -10 150 22 118 36C84 48 60 30 52 6C40 12 20 12 6 8C-4 30 -28 46 -54 30C-70 16 -72 -8 -62 -22Z" fill="#111"/><path d="M-40 -12C-30 -16 -16 -14 -8 -10M72 -10C84 -14 100 -14 112 -10" stroke="#fff" stroke-width="4" stroke-linecap="round" fill="none" opacity="0.55"/></g><g transform="rotate(-8)"><path d="M-100 -26C-110 -92-60 -146 18 -146C96 -146 120 -96 110 -58C60 -70-30 -66-100 -26Z" fill="#FBF8F0" stroke="#111" stroke-width="10.465116279069768" stroke-linejoin="round"/><path d="M-100 -26C-140 -34-178 -20-196 12C-160 22-122 14-94 0Z" fill="#FBF8F0" stroke="#111" stroke-width="10.465116279069768" stroke-linejoin="round"/><path d="M-8 -118L38 -118L-8 -78L40 -78" fill="none" stroke="#111" stroke-width="10" stroke-linecap="round" stroke-linejoin="round"/></g></g></g></g><g id="fx"><g opacity="0.8"><path d="M1056.6 262.9L968.6 244.2" stroke="#111" stroke-width="2.5" stroke-linecap="round"/><path d="M1048.8 229.8L941.1 162.5" stroke="#111" stroke-width="2.5" stroke-linecap="round"/><path d="M1057.4 190.8L999.5 116.7" stroke="#111" stroke-width="2.5" stroke-linecap="round"/><path d="M1103.5 210.9L1063 86.3" stroke="#111" stroke-width="2.5" stroke-linecap="round"/><path d="M1125.1 187.4L1125.1 89.4" stroke="#111" stroke-width="2.5" stroke-linecap="round"/><path d="M1159.1 172.8L1200.8 44.4" stroke="#111" stroke-width="2.5" stroke-linecap="round"/><path d="M1168.2 222.3L1231 141.9" stroke="#111" stroke-width="2.5" stroke-linecap="round"/><path d="M1201.4 229.8L1319.3 156.1" stroke="#111" stroke-width="2.5" stroke-linecap="round"/><path d="M1232.7 254.6L1336.4 232.5" stroke="#111" stroke-width="2.5" stroke-linecap="round"/></g><path d="M1079.1 301.4q18 -22 34 -6M1133.1 297.4q20 -18 38 0" stroke="#111" stroke-width="5" stroke-linecap="round" fill="none"/><path d="M1134.1 376.4q10 18 0 30q-10-12 0-30z" fill="#7CC4F0" stroke="#111" stroke-width="4"/></g></svg>