<svg xmlns="http://www.w3.org/2000/svg" viewBox="0 0 1920 1080" width="1920" height="1080" preserveAspectRatio="xMidYMax slice"><title>ZaruTech duck opening, frame 149/180</title><g id="cover"><defs><clipPath id="cp"><path d="M-300 -300H2220L2220 135.3C2213.3 135.1 2193.3 134.3 2180 133.8C2166.7 133.2 2153.3 132.6 2140 132.1C2126.7 131.6 2113.3 131.1 2100 130.7C2086.7 130.4 2073.3 130.1 2060 129.9C2046.7 129.8 2033.3 129.8 2020 129.9C2006.7 130 1993.3 130.3 1980 130.6C1966.7 131 1953.3 131.5 1940 132C1926.7 132.5 1913.3 133.1 1900 133.6C1886.7 134.2 1873.3 134.8 1860 135.2C1846.7 135.7 1833.3 136.1 1820 136.4C1806.7 136.6 1793.3 136.8 1780 136.8C1766.7 136.8 1753.3 136.7 1740 136.5C1726.7 136.3 1713.3 135.9 1700 135.4C1686.7 135 1673.3 134.5 1660 133.9C1646.7 133.4 1633.3 132.8 1620 132.3C1606.7 131.7 1593.3 131.2 1580 130.8C1566.7 130.5 1553.3 130.1 1540 130C1526.7 129.8 1513.3 129.8 1500 129.9C1486.7 130 1473.3 130.2 1460 130.6C1446.7 130.9 1433.3 131.4 1420 131.9C1406.7 132.3 1393.3 132.9 1380 133.5C1366.7 134 1353.3 134.6 1340 135.1C1326.7 135.5 1313.3 136 1300 136.3C1286.7 136.6 1273.3 136.8 1260 136.8C1246.7 136.9 1233.3 136.8 1220 136.6C1206.7 136.3 1193.3 136 1180 135.6C1166.7 135.2 1153.3 134.6 1140 134.1C1126.7 133.5 1113.3 132.9 1100 132.4C1086.7 131.9 1073.3 131.3 1060 131C1046.7 130.6 1033.3 130.2 1020 130C1006.7 129.8 993.3 129.8 980 129.9C966.7 129.9 953.3 130.2 940 130.5C926.7 130.8 913.3 131.2 900 131.7C886.7 132.2 873.3 132.8 860 133.3C846.7 133.9 833.3 134.5 820 134.9C806.7 135.4 793.3 135.9 780 136.2C766.7 136.5 753.3 136.7 740 136.8C726.7 136.9 713.3 136.8 700 136.6C686.7 136.4 673.3 136.1 660 135.7C646.7 135.3 633.3 134.7 620 134.2C606.7 133.7 593.3 133.1 580 132.6C566.7 132 553.3 131.5 540 131.1C526.7 130.7 513.3 130.3 500 130.1C486.7 129.9 473.3 129.8 460 129.8C446.7 129.9 433.3 130.1 420 130.4C406.7 130.7 393.3 131.1 380 131.6C366.7 132.1 353.3 132.6 340 133.2C326.7 133.7 313.3 134.3 300 134.8C286.7 135.3 273.3 135.8 260 136.1C246.7 136.4 233.3 136.7 220 136.8C206.7 136.9 193.3 136.8 180 136.7C166.7 136.5 153.3 136.2 140 135.8C126.7 135.4 113.3 134.9 100 134.4C86.7 133.8 73.3 133.2 60 132.7C46.7 132.2 33.3 131.6 20 131.2C6.7 130.8 -6.7 130.4 -20 130.1C-33.3 129.9 -46.7 129.8 -60 129.8C-73.3 129.9 -86.7 130 -100 130.3C-113.3 130.6 -126.7 131 -140 131.5C-153.3 131.9 -166.7 132.5 -180 133C-193.3 133.6 -206.7 134.2 -220 134.7C-233.3 135.2 -246.7 135.7 -260 136C-273.3 136.4 -293.3 136.6 -300 136.7Z"/></clipPath><radialGradient id="stain"><stop offset="0" stop-color="#8c8574" stop-opacity="0.10"/><stop offset="1" stop-color="#8c8574" stop-opacity="0"/></radialGradient></defs><path d="M-300 -300H2220L2220 135.3C2213.3 135.1 2193.3 134.3 2180 133.8C2166.7 133.2 2153.3 132.6 2140 132.1C2126.7 131.6 2113.3 131.1 2100 130.7C2086.7 130.4 2073.3 130.1 2060 129.9C2046.7 129.8 2033.3 129.8 2020 129.9C2006.7 130 1993.3 130.3 1980 130.6C1966.7 131 1953.3 131.5 1940 132C1926.7 132.5 1913.3 133.1 1900 133.6C1886.7 134.2 1873.3 134.8 1860 135.2C1846.7 135.7 1833.3 136.1 1820 136.4C1806.7 136.6 1793.3 136.8 1780 136.8C1766.7 136.8 1753.3 136.7 1740 136.5C1726.7 136.3 1713.3 135.9 1700 135.4C1686.7 135 1673.3 134.5 1660 133.9C1646.7 133.4 1633.3 132.8 1620 132.3C1606.7 131.7 1593.3 131.2 1580 130.8C1566.7 130.5 1553.3 130.1 1540 130C1526.7 129.8 1513.3 129.8 1500 129.9C1486.7 130 1473.3 130.2 1460 130.6C1446.7 130.9 1433.3 131.4 1420 131.9C1406.7 132.3 1393.3 132.9 1380 133.5C1366.7 134 1353.3 134.6 1340 135.1C1326.7 135.5 1313.3 136 1300 136.3C1286.7 136.6 1273.3 136.8 1260 136.8C1246.7 136.9 1233.3 136.8 1220 136.6C1206.7 136.3 1193.3 136 1180 135.6C1166.7 135.2 1153.3 134.6 1140 134.1C1126.7 133.5 1113.3 132.9 1100 132.4C1086.7 131.9 1073.3 131.3 1060 131C1046.7 130.6 1033.3 130.2 1020 130C1006.7 129.8 993.3 129.8 980 129.9C966.7 129.9 953.3 130.2 940 130.5C926.7 130.8 913.3 131.2 900 131.7C886.7 132.2 873.3 132.8 860 133.3C846.7 133.9 833.3 134.5 820 134.9C806.7 135.4 793.3 135.9 780 136.2C766.7 136.5 753.3 136.7 740 136.8C726.7 136.9 713.3 136.8 700 136.6C686.7 136.4 673.3 136.1 660 135.7C646.7 135.3 633.3 134.7 620 134.2C606.7 133.7 593.3 133.1 580 132.6C566.7 132 553.3 131.5 540 131.1C526.7 130.7 513.3 130.3 500 130.1C486.7 129.9 473.3 129.8 460 129.8C446.7 129.9 433.3 130.1 420 130.4C406.7 130.7 393.3 131.1 380 131.6C366.7 132.1 353.3 132.6 340 133.2C326.7 133.7 313.3 134.3 300 134.8C286.7 135.3 273.3 135.8 260 136.1C246.7 136.4 233.3 136.7 220 136.8C206.7 136.9 193.3 136.8 180 136.7C166.7 136.5 153.3 136.2 140 135.8C126.7 135.4 113.3 134.9 100 134.4C86.7 133.8 73.3 133.2 60 132.7C46.7 132.2 33.3 131.6 20 131.2C6.7 130.8 -6.7 130.4 -20 130.1C-33.3 129.9 -46.7 129.8 -60 129.8C-73.3 129.9 -86.7 130 -100 130.3C-113.3 130.6 -126.7 131 -140 131.5C-153.3 131.9 -166.7 132.5 -180 133C-193.3 133.6 -206.7 134.2 -220 134.7C-233.3 135.2 -246.7 135.7 -260 136C-273.3 136.4 -293.3 136.6 -300 136.7Z" fill="#EFEADF"/><g clip-path="url(#cp)"><ellipse cx="560" cy="360" rx="520" ry="300" fill="url(#stain)" opacity="1"/><ellipse cx="1380" cy="460" rx="560" ry="320" fill="url(#stain)" opacity="0.8"/><ellipse cx="980" cy="880" rx="640" ry="240" fill="url(#stain)" opacity="0.5"/><path d="M18 30L150 130" stroke="#111" stroke-width="3" stroke-linecap="round" opacity="0.55"/><path d="M18 80L110 160" stroke="#111" stroke-width="2.5" stroke-linecap="round" opacity="0.55"/><path d="M60 22L200 70" stroke="#111" stroke-width="2.5" stroke-linecap="round" opacity="0.55"/><path d="M1902 30L1770 130" stroke="#111" stroke-width="3" stroke-linecap="round" opacity="0.55"/><path d="M1902 80L1810 160" stroke="#111" stroke-width="2.5" stroke-linecap="round" opacity="0.55"/><path d="M1860 22L1720 70" stroke="#111" stroke-width="2.5" stroke-linecap="round" opacity="0.55"/><path d="M16 1050L150 960" stroke="#111" stroke-width="3" stroke-linecap="round" opacity="0.55"/><path d="M16 1000L100 940" stroke="#111" stroke-width="2.5" stroke-linecap="round" opacity="0.55"/><path d="M1904 1050L1770 960" stroke="#111" stroke-width="3" stroke-linecap="round" opacity="0.55"/><path d="M1904 1000L1820 940" stroke="#111" stroke-width="2.5" stroke-linecap="round" opacity="0.55"/></g><path d="M-300 136.7C-293.3 136.6 -273.3 136.4 -260 136C-246.7 135.7 -233.3 135.2 -220 134.7C-206.7 134.2 -193.3 133.6 -180 133C-166.7 132.5 -153.3 131.9 -140 131.5C-126.7 131 -113.3 130.6 -100 130.3C-86.7 130 -73.3 129.9 -60 129.8C-46.7 129.8 -33.3 129.9 -20 130.1C-6.7 130.4 6.7 130.8 20 131.2C33.3 131.6 46.7 132.2 60 132.7C73.3 133.2 86.7 133.8 100 134.4C113.3 134.9 126.7 135.4 140 135.8C153.3 136.2 166.7 136.5 180 136.7C193.3 136.8 206.7 136.9 220 136.8C233.3 136.7 246.7 136.4 260 136.1C273.3 135.8 286.7 135.3 300 134.8C313.3 134.3 326.7 133.7 340 133.2C353.3 132.6 366.7 132.1 380 131.6C393.3 131.1 406.7 130.7 420 130.4C433.3 130.1 446.7 129.9 460 129.8C473.3 129.8 486.7 129.9 500 130.1C513.3 130.3 526.7 130.7 540 131.1C553.3 131.5 566.7 132 580 132.6C593.3 133.1 606.7 133.7 620 134.2C633.3 134.7 646.7 135.3 660 135.7C673.3 136.1 686.7 136.4 700 136.6C713.3 136.8 726.7 136.9 740 136.8C753.3 136.7 766.7 136.5 780 136.2C793.3 135.9 806.7 135.4 820 134.9C833.3 134.5 846.7 133.9 860 133.3C873.3 132.8 886.7 132.2 900 131.7C913.3 131.2 926.7 130.8 940 130.5C953.3 130.2 966.7 129.9 980 129.9C993.3 129.8 1006.7 129.8 1020 130C1033.3 130.2 1046.7 130.6 1060 131C1073.3 131.3 1086.7 131.9 1100 132.4C1113.3 132.9 1126.7 133.5 1140 134.1C1153.3 134.6 1166.7 135.2 1180 135.6C1193.3 136 1206.7 136.3 1220 136.6C1233.3 136.8 1246.7 136.9 1260 136.8C1273.3 136.8 1286.7 136.6 1300 136.3C1313.3 136 1326.7 135.5 1340 135.1C1353.3 134.6 1366.7 134 1380 133.5C1393.3 132.9 1406.7 132.3 1420 131.9C1433.3 131.4 1446.7 130.9 1460 130.6C1473.3 130.2 1486.7 130 1500 129.9C1513.3 129.8 1526.7 129.8 1540 130C1553.3 130.1 1566.7 130.5 1580 130.8C1593.3 131.2 1606.7 131.7 1620 132.3C1633.3 132.8 1646.7 133.4 1660 133.9C1673.3 134.5 1686.7 135 1700 135.4C1713.3 135.9 1726.7 136.3 1740 136.5C1753.3 136.7 1766.7 136.8 1780 136.8C1793.3 136.8 1806.7 136.6 1820 136.4C1833.3 136.1 1846.7 135.7 1860 135.2C1873.3 134.8 1886.7 134.2 1900 133.6C1913.3 133.1 1926.7 132.5 1940 132C1953.3 131.5 1966.7 131 1980 130.6C1993.3 130.3 2006.7 130 2020 129.9C2033.3 129.8 2046.7 129.8 2060 129.9C2073.3 130.1 2086.7 130.4 2100 130.7C2113.3 131.1 2126.7 131.6 2140 132.1C2153.3 132.6 2166.7 133.2 2180 133.8C2193.3 134.3 2213.3 135.1 2220 135.3" fill="none" stroke="#D8D1C0" stroke-width="26" stroke-linecap="round" transform="translate(0 -13)" opacity="0.7"/><path d="M-300 133.8L-282.6 133.6L-260.1 133.2L-240.1 132.6L-220.1 131.9L-200.1 131.1L-180.1 130.3L-160.1 129.5L-140.1 128.7L-120.1 128L-100.1 127.5L-80 127.1L-60 127L-40 127L-20 127.3L0.1 127.8L20.1 128.5L40.1 129.2L60.1 130.1L80.1 131.1L100.1 132L120.1 132.8L140.1 133.5L160 134.1L180 134.5L200 134.6L220 134.6L240 134.3L259.9 133.8L279.9 133.1L299.9 132.3L319.9 131.3L339.9 130.4L359.9 129.4L379.9 128.5L399.9 127.6L419.9 127L440 126.5L460 126.2L480 126.2L500.1 126.4L520.1 126.8L540.1 127.4L560.1 128.1L580.1 129L600.1 129.9L620.1 130.8L640.1 131.7L660.1 132.4L680.1 133L700 133.5L720 133.7L740 133.7L760 133.5L779.9 133.1L799.9 132.6L819.9 131.9L839.9 131.1L859.9 130.2L879.9 129.3L899.9 128.5L919.9 127.9L939.9 127.3L960 127L980 126.8L1000 126.9L1020 127.2L1040.1 127.6L1060.1 128.3L1080.1 129.1L1100.1 130L1120.1 130.9L1140.1 131.9L1160.1 132.7L1180.1 133.5L1200.1 134.1L1220 134.5L1240 134.7L1260 134.7L1280 134.4L1299.9 133.9L1319.9 133.3L1339.9 132.5L1359.9 131.6L1379.9 130.6L1399.9 129.6L1419.9 128.7L1439.9 127.9L1459.9 127.2L1479.9 126.8L1500 126.5L1520 126.4L1540 126.6L1560.1 126.9L1580.1 127.5L1600.1 128.2L1620.1 129L1640.1 129.9L1660.1 130.7L1680.1 131.6L1700.1 132.3L1720.1 132.9L1740.1 133.3L1760 133.5L1780 133.6L1800 133.4L1819.9 133L1839.9 132.4L1859.9 131.8L1879.9 131L1899.9 130.1L1919.9 129.3L1939.9 128.5L1959.9 127.8L1979.9 127.3L1999.9 126.9L2020 126.8L2040 126.8L2060 127.1L2080.1 127.6L2100.1 128.2L2120.1 129L2140.1 129.8L2160.1 130.7L2180.1 131.6L2202.6 132.6L2220.1 133.3L2219.9 137.4L2202.4 136.7L2179.9 135.9L2159.9 135.1L2139.9 134.4L2119.9 133.8L2099.9 133.3L2079.9 133L2060 132.8L2040 132.8L2020 133L2000.1 133.4L1980.1 134L1960.1 134.7L1940.1 135.5L1920.1 136.3L1900.1 137.1L1880.1 137.9L1860.1 138.7L1840.1 139.3L1820.1 139.7L1800 140L1780 140.1L1760 140L1739.9 139.7L1719.9 139.2L1699.9 138.6L1679.9 137.9L1659.9 137.1L1639.9 136.3L1619.9 135.5L1599.9 134.8L1579.9 134.2L1559.9 133.7L1540 133.4L1520 133.2L1500 133.3L1480.1 133.5L1460.1 133.9L1440.1 134.4L1420.1 135L1400.1 135.7L1380.1 136.4L1360.1 137L1340.1 137.7L1320.1 138.2L1300.1 138.6L1280 138.9L1260 139L1240 138.9L1220 138.6L1199.9 138.2L1179.9 137.6L1159.9 137L1139.9 136.3L1119.9 135.5L1099.9 134.8L1079.9 134.2L1059.9 133.6L1039.9 133.2L1020 132.9L1000 132.8L980 132.9L960 133.2L940.1 133.6L920.1 134.2L900.1 134.9L880.1 135.7L860.1 136.5L840.1 137.3L820.1 138L800.1 138.7L780.1 139.2L760 139.6L740 139.8L720 139.9L700 139.7L679.9 139.4L659.9 138.9L639.9 138.3L619.9 137.6L599.9 136.9L579.9 136.1L559.9 135.4L539.9 134.7L519.9 134.2L499.9 133.8L480 133.5L460 133.4L440 133.5L420.1 133.8L400.1 134.2L380.1 134.7L360.1 135.3L340.1 136L320.1 136.7L300.1 137.4L280.1 137.9L260.1 138.4L240 138.8L220 139L200 139L180 138.8L160 138.5L139.9 138L119.9 137.5L99.9 136.8L79.9 136L59.9 135.3L39.9 134.6L19.9 133.9L-0.1 133.4L-20 133L-40 132.7L-60 132.7L-80 132.8L-99.9 133.1L-119.9 133.6L-139.9 134.2L-159.9 135L-179.9 135.8L-199.9 136.6L-219.9 137.4L-239.9 138.2L-259.9 138.8L-282.4 139.3L-300 139.7Z" fill="#111"/><path d="M14 16.9L23.9 16.1L37.9 14.8L52 13.5L64.6 13.4L77.3 13.3L89.9 13.2L102.6 13.1L115.3 12.8L127.9 12.6L140.6 12.3L153.2 12L165.9 11.7L178.6 11.3L191.2 11L203.9 10.6L216.6 10.2L229.2 9.8L241.9 9.4L254.6 9.1L267.3 8.7L279.9 8.4L292.6 8.2L305.3 8L318 7.8L330.7 7.8L343.3 7.7L356 7.8L368.7 7.9L381.4 8.1L394.1 8.4L406.7 8.7L419.4 9.1L432.1 9.5L444.8 10L457.4 10.5L470.1 11L482.8 11.5L495.4 12.1L508.1 12.6L520.7 13.1L533.4 13.6L546.1 14L558.7 14.3L571.4 14.6L584 14.8L596.7 15L609.3 15L622 15L634.7 14.9L647.3 14.7L660 14.5L672.6 14.1L685.3 13.8L697.9 13.3L710.6 12.9L723.2 12.4L735.9 11.8L748.6 11.3L761.2 10.8L773.9 10.3L786.5 9.8L799.2 9.4L811.9 8.9L824.6 8.6L837.2 8.3L849.9 8L862.6 7.8L875.3 7.7L888 7.6L900.7 7.6L913.3 7.6L926 7.7L938.7 7.8L951.4 8L964.1 8.2L976.7 8.5L989.4 8.8L1002.1 9.1L1014.8 9.5L1027.4 9.9L1040.1 10.3L1052.8 10.7L1065.5 11.1L1078.1 11.5L1090.8 11.9L1103.4 12.3L1116.1 12.7L1128.7 13L1141.4 13.4L1154 13.6L1166.7 13.9L1179.4 14.1L1192 14.2L1204.7 14.3L1217.3 14.4L1230 14.4L1242.6 14.3L1255.3 14.1L1267.9 13.9L1280.6 13.7L1293.3 13.4L1305.9 13L1318.6 12.6L1331.3 12.2L1343.9 11.7L1356.6 11.2L1369.3 10.7L1381.9 10.3L1394.6 9.8L1407.3 9.4L1419.9 9L1432.6 8.6L1445.3 8.3L1458 8.1L1470.7 7.9L1483.3 7.8L1496 7.8L1508.7 7.9L1521.4 8L1534.1 8.2L1546.7 8.5L1559.4 8.8L1572.1 9.1L1584.8 9.6L1597.4 10L1610.1 10.5L1622.8 10.9L1635.4 11.4L1648.1 11.8L1660.8 12.3L1673.4 12.6L1686.1 13L1698.7 13.3L1711.4 13.5L1724 13.7L1736.7 13.8L1749.4 13.8L1762 13.8L1774.7 13.7L1787.3 13.6L1800 13.4L1812.6 13.1L1825.3 12.9L1837.9 12.5L1852 13.5L1866.1 14.5L1876 15.1L1876 15.1L1866.2 16.4L1852.1 18.2L1838.1 19.9L1825.4 20.2L1812.7 20.4L1800 20.6L1787.4 20.6L1774.7 20.7L1762 20.6L1749.3 20.5L1736.6 20.3L1724 20.1L1711.3 19.8L1698.6 19.5L1685.9 19.1L1673.2 18.7L1660.6 18.3L1647.9 17.9L1635.2 17.5L1622.6 17.1L1609.9 16.6L1597.2 16.2L1584.6 15.8L1571.9 15.5L1559.2 15.1L1546.6 14.8L1533.9 14.5L1521.3 14.3L1508.6 14.1L1496 13.9L1483.3 13.8L1470.7 13.7L1458 13.7L1445.4 13.7L1432.7 13.8L1420.1 14L1407.4 14.2L1394.7 14.4L1382.1 14.7L1369.4 15L1356.7 15.4L1344.1 15.8L1331.4 16.2L1318.7 16.7L1306.1 17.1L1293.4 17.6L1280.7 18.1L1268.1 18.5L1255.4 18.9L1242.7 19.2L1230 19.6L1217.4 19.8L1204.7 20L1192 20.2L1179.3 20.2L1166.6 20.2L1154 20.1L1141.3 20L1128.6 19.8L1115.9 19.5L1103.2 19.1L1090.6 18.7L1077.9 18.3L1065.2 17.9L1052.5 17.4L1039.9 16.9L1027.2 16.4L1014.6 16L1001.9 15.5L989.2 15.2L976.6 14.8L963.9 14.5L951.3 14.3L938.6 14.1L926 14L913.3 14L900.7 14.1L888 14.2L875.4 14.4L862.7 14.6L850.1 14.9L837.4 15.2L824.8 15.6L812.1 15.9L799.4 16.3L786.8 16.7L774.1 17.1L761.5 17.5L748.8 17.9L736.1 18.2L723.4 18.5L710.8 18.8L698.1 19L685.4 19.2L672.7 19.3L660 19.4L647.4 19.4L634.7 19.4L622 19.4L609.3 19.3L596.6 19.1L584 19L571.3 18.8L558.6 18.5L545.9 18.2L533.3 18L520.6 17.6L507.9 17.3L495.2 17L482.6 16.6L469.9 16.3L457.2 15.9L444.6 15.6L431.9 15.3L419.3 15L406.6 14.7L393.9 14.4L381.3 14.2L368.6 14.1L356 13.9L343.3 13.9L330.7 13.9L318 13.9L305.4 14L292.7 14.2L280.1 14.4L267.4 14.7L254.7 15L242.1 15.4L229.4 15.8L216.8 16.3L204.1 16.8L191.4 17.3L178.8 17.8L166.1 18.3L153.4 18.8L140.8 19.3L128.1 19.7L115.4 20.1L102.7 20.4L90.1 20.6L77.4 20.8L64.7 20.9L52 20.9L37.9 19.5L23.8 18L14 16.9Z" fill="#111"/><path d="M16.8 14L19.7 23.3L19.3 36.7L20.1 50L20.2 62L20 74L18.7 86L19.4 99.1L19 112.1L19.1 122.1L18.4 127.4L16.8 129.7L15.3 131L15.3 131L13.8 129.6L12.4 127.2L12 121.9L12.7 111.9L13.1 98.9L14.4 86L13.5 74L13.6 62L13.9 50L14.6 36.7L14 23.4L16.8 14Z" fill="#111"/><path d="M1908.5 14L1911 23.4L1910.3 36.7L1910.5 50.1L1910.4 62.1L1909.8 74.1L1908.3 86.1L1908.6 99L1908.2 111.9L1908.3 122.1L1907.7 128.2L1906.7 131.4L1904.3 133.4L1904.3 133.4L1902.1 131.3L1901.3 127.9L1901.1 121.9L1901.9 111.7L1902.6 98.8L1903.8 85.9L1903.3 73.9L1903.6 61.9L1904.4 49.9L1905.4 36.6L1905.4 23.3L1908.5 14Z" fill="#111"/></g><g id="duck" stroke-linejoin="round" stroke-linecap="round"><ellipse cx="960" cy="1046" rx="299.2" ry="21.1" fill="#000" opacity="0.1"/><path d="M918.7 910.6Q854.1 965.6 803.4 1016.6" stroke="#fff" stroke-opacity="0.4" stroke-width="25.3" stroke-linecap="round" fill="none"/><path d="M918.7 910.6Q854.1 965.6 803.4 1016.6" stroke="#111" stroke-width="8.4" stroke-linecap="round" fill="none"/><path d="M1006.2 885.4Q1082.5 953 1144.8 1016.6" stroke="#fff" stroke-opacity="0.4" stroke-width="25.3" stroke-linecap="round" fill="none"/><path d="M1006.2 885.4Q1082.5 953 1144.8 1016.6" stroke="#111" stroke-width="8.4" stroke-linecap="round" fill="none"/><path transform="translate(803.4 1020.6) rotate(-16) scale(-1.126 1.126)" d="M-20 -6C-2-18 34-24 74-20L98-10L82-4L98 6L74 10L84 20C56 26 18 24-10 15C-22 9-24 0-20-6Z" fill="#F7C05A" stroke="#111" stroke-width="10.2" stroke-linejoin="round"/><path transform="translate(1144.8 1020.6) rotate(16) scale(1.126 1.126)" d="M-20 -6C-2-18 34-24 74-20L98-10L82-4L98 6L74 10L84 20C56 26 18 24-10 15C-22 9-24 0-20-6Z" fill="#F7C05A" stroke="#111" stroke-width="10.2" stroke-linejoin="round"/><g transform="translate(960 1040) scale(0.88) translate(0 45) translate(0 -190) rotate(-13.7) scale(0.9591000000000001 1.087) translate(0 190)"><path d="M140.7 -419.4C151.8 -425.1 156.7 -456.4 162.3 -474.5C167.9 -492.6 172 -510.5 174.3 -528.1C176.6 -545.6 177.3 -563.1 176.2 -580C175.1 -596.9 172.2 -613.6 167.6 -629.6C163 -645.6 156.6 -661.1 148.6 -675.9C140.7 -690.7 131 -704.8 119.9 -718.3C108.8 -731.8 96.1 -744.5 82 -756.7C68 -768.9 43.4 -781.9 35.7 -791.4C28 -800.8 36.6 -809 35.6 -813.4C34.6 -817.7 31.8 -816.5 29.6 -817.4C27.5 -818.3 24.9 -818.7 22.6 -818.6C20.2 -818.5 17.7 -817.7 15.6 -816.8C13.5 -815.8 11.9 -813.8 10 -813C8 -812.2 5.8 -812.7 3.8 -812.1C1.8 -811.5 -0.2 -810.5 -1.9 -809.3C-3.6 -808.1 -5.3 -806.5 -6.5 -804.8C-7.8 -803 -8.8 -801 -9.4 -799C-10.1 -797 -10.4 -794.7 -10.3 -792.7C-10.3 -790.6 -9.1 -788.6 -9.3 -786.5C-9.4 -784.4 -10.9 -782.3 -11.1 -780C-11.3 -777.7 -11.3 -775.1 -10.7 -772.8C-10.1 -770.6 -8.9 -768.3 -7.4 -766.5C-5.9 -764.7 -6.1 -761.7 -1.7 -762C2.7 -762.4 9.2 -773.7 19.2 -768.7C29.3 -763.8 47.1 -744.6 58.7 -732.3C70.2 -719.9 80.1 -707.4 88.6 -694.8C97 -682.2 103.9 -669.5 109.5 -656.7C115.1 -643.8 119.2 -631 122.1 -617.8C125.1 -604.6 126.7 -591.4 127.1 -577.5C127.6 -563.7 126.8 -549.7 124.6 -535C122.5 -520.3 119.1 -505.1 114.2 -489.4C109.3 -473.6 90.9 -452.2 95.3 -440.6C99.7 -428.9 129.5 -413.8 140.7 -419.4Z" fill="#FBF8F0"/><path d="M140.7 -419.4L143.6 -429.9L147.6 -444.9L152 -461.4L156.7 -476.3L160.3 -489.6L163.4 -502.8L166.1 -515.9L168.3 -528.9L170 -541.7L171.1 -554.5L171.7 -567.1L171.5 -579.7L170.6 -592.1L168.9 -604.4L166.5 -616.5L163.4 -628.4L159.6 -640L155.1 -651.4L150 -662.6L144.4 -673.6L138.2 -684.3L131.5 -694.9L124.2 -705.3L116.4 -715.4L108 -725.3L99 -735L89.4 -744.3L79.2 -753.3L67.2 -762.1L53.6 -770.8L40.7 -779.2L31.1 -787.7L26.9 -797.1L27.4 -805.5L29.2 -811L29.6 -813L29.4 -811.8L30.5 -810.5L30 -810.4L27.8 -810.9L26.1 -811.4L25 -811.6L23.9 -811.7L22.9 -811.7L21.9 -811.6L20.8 -811.4L19.6 -811L18.6 -810.7L17.9 -810.3L16.8 -809.5L15.1 -808.2L12.5 -806.7L9.5 -805.9L7.4 -805.7L6.2 -805.7L5.6 -805.6L4.8 -805.4L3.8 -805L2.8 -804.5L1.9 -804L1 -803.4L0.1 -802.7L-0.7 -801.9L-1.4 -801.1L-2.1 -800.2L-2.7 -799.2L-3.3 -798.2L-3.8 -797.2L-4.1 -796.2L-4.4 -795L-4.6 -793.9L-4.8 -792.9L-4.7 -792.2L-4.4 -791L-4 -788.9L-3.8 -786.2L-4.2 -783.5L-4.8 -781.4L-5.4 -780.1L-5.8 -779.2L-5.9 -778L-6 -776.6L-5.9 -775.3L-5.7 -774.2L-5.4 -773L-4.9 -771.8L-4.2 -770.7L-3.2 -769.2L-2.1 -767.4L-1.8 -766.6L-2.6 -767L-2.9 -766.8L-0.6 -768L4.3 -771.6L11.8 -774.6L21.2 -773L31 -766.4L41.7 -756.7L52.5 -745.9L62.3 -735.6L70.7 -726.2L78.5 -716.6L85.6 -706.9L92.1 -697.2L98.1 -687.4L103.4 -677.6L108.3 -667.9L112.6 -658.1L116.6 -648.2L120 -638.4L123.1 -628.6L125.8 -618.6L128 -608.6L129.8 -598.4L131.2 -588.2L132.1 -577.7L132.5 -567.1L132.4 -556.3L131.7 -545.3L130.5 -534.1L128.6 -522.8L126.2 -511.2L123.2 -499.6L119.6 -487.6L114.8 -474.3L107.2 -460.9L100.2 -448.9L95.3 -440.6L95.3 -440.6L97.7 -449.9L101 -463.4L104.5 -478.2L108.8 -491.1L112 -502.6L114.7 -513.9L117 -524.9L118.8 -535.8L120.3 -546.5L121.3 -556.9L122 -567.2L122.2 -577.4L122 -587.5L121.3 -597.4L120.2 -607.2L118.5 -617L116.3 -626.7L113.5 -636.3L110.2 -645.8L106.3 -655.3L101.8 -664.7L96.7 -674L91.1 -683.2L85 -692.4L78.3 -701.5L71 -710.7L63.3 -719.8L55 -728.9L45.5 -739.1L35.1 -749.8L25 -759L17.3 -764.4L12.9 -765.1L9 -763.2L4.6 -759.9L-0.5 -757.3L-5.9 -757.7L-9.4 -760.2L-10.8 -762.5L-11.5 -763.7L-12.6 -765.1L-13.9 -767.1L-14.9 -769.3L-15.7 -771.5L-16.2 -773.8L-16.4 -776.1L-16.5 -778.4L-16.4 -780.7L-16 -783.2L-15.4 -785.2L-15 -786.4L-14.7 -786.9L-14.8 -787.2L-15.1 -788.3L-15.6 -790.1L-15.9 -792.4L-15.9 -794.6L-15.8 -796.7L-15.5 -798.7L-15.1 -800.8L-14.4 -802.8L-13.6 -804.7L-12.7 -806.6L-11.6 -808.4L-10.3 -810.2L-8.9 -811.8L-7.4 -813.3L-5.7 -814.6L-3.9 -815.8L-2.1 -816.9L-0.2 -817.8L2.1 -818.6L4.5 -819.1L6.4 -819.3L7.4 -819.3L7.5 -819.3L7.7 -819.4L8.7 -820.1L10.4 -821.5L12.7 -822.9L15 -823.8L17.2 -824.6L19.6 -825.1L22.2 -825.4L24.8 -825.4L27.3 -825.1L29.8 -824.5L31.5 -823.9L32.7 -823.7L35.6 -822.9L39.7 -819.7L41.6 -813.8L40.7 -807.9L38.8 -803.1L38.3 -799.3L40.3 -795.1L47.7 -788.1L59.5 -779.3L72.7 -769.7L84.8 -760.1L95.2 -750.5L105.1 -741L114.5 -731.2L123.3 -721.2L131.6 -710.9L139.4 -700.3L146.5 -689.4L152.9 -678.2L158.6 -666.7L163.7 -654.9L168.1 -643L171.8 -630.8L175 -618.4L177.6 -605.9L179.6 -593.2L181 -580.3L181.8 -567.3L182 -554.1L181.5 -540.7L180.3 -527.3L178.4 -513.7L175.6 -500.1L172.1 -486.4L167.8 -472.7L162.1 -457.6L153.9 -442.3L146 -428.9L140.7 -419.4Z" fill="#111"/><path d="M-95.3 -440.6C-90.9 -452.2 -109.3 -473.6 -114.2 -489.4C-119.1 -505.1 -122.5 -520.3 -124.6 -535C-126.8 -549.7 -127.6 -563.7 -127.1 -577.5C-126.7 -591.4 -125.1 -604.6 -122.1 -617.8C-119.2 -631 -115.1 -643.8 -109.5 -656.7C-103.9 -669.5 -97 -682.2 -88.6 -694.8C-80.1 -707.4 -70.2 -719.9 -58.7 -732.3C-47.1 -744.6 -29.3 -763.8 -19.2 -768.7C-9.2 -773.7 -2.7 -762.4 1.7 -762C6.1 -761.7 5.9 -764.7 7.4 -766.5C8.9 -768.3 10.1 -770.6 10.7 -772.8C11.3 -775.1 11.3 -777.7 11.1 -780C10.9 -782.3 9.4 -784.4 9.3 -786.5C9.1 -788.6 10.3 -790.6 10.3 -792.7C10.4 -794.7 10.1 -797 9.4 -799C8.8 -801 7.8 -803 6.5 -804.8C5.3 -806.5 3.6 -808.1 1.9 -809.3C0.2 -810.5 -1.8 -811.5 -3.8 -812.1C-5.8 -812.7 -8 -812.2 -10 -813C-11.9 -813.8 -13.5 -815.8 -15.6 -816.8C-17.7 -817.7 -20.2 -818.5 -22.6 -818.6C-24.9 -818.7 -27.5 -818.3 -29.6 -817.4C-31.8 -816.5 -34.6 -817.7 -35.6 -813.4C-36.6 -809 -28 -800.8 -35.7 -791.4C-43.4 -781.9 -68 -768.9 -82 -756.7C-96.1 -744.5 -108.8 -731.8 -119.9 -718.3C-131 -704.8 -140.7 -690.7 -148.6 -675.9C-156.6 -661.1 -163 -645.6 -167.6 -629.6C-172.2 -613.6 -175.1 -596.9 -176.2 -580C-177.3 -563.1 -176.6 -545.6 -174.3 -528.1C-172 -510.5 -167.9 -492.6 -162.3 -474.5C-156.7 -456.4 -151.8 -425.1 -140.7 -419.4C-129.5 -413.8 -99.7 -428.9 -95.3 -440.6Z" fill="#FBF8F0"/><path d="M-95.3 -440.6L-100.1 -449L-107.1 -461L-114.8 -474.3L-119.8 -487.6L-123.5 -499.5L-126.6 -511.2L-129.1 -522.7L-130.9 -534L-132.2 -545.2L-132.8 -556.2L-132.9 -567.1L-132.5 -577.7L-131.7 -588.2L-130.4 -598.5L-128.6 -608.7L-126.4 -618.8L-123.8 -628.8L-120.8 -638.7L-117.3 -648.5L-113.3 -658.4L-108.9 -668.2L-103.9 -677.9L-98.4 -687.6L-92.3 -697.3L-85.5 -706.9L-78.2 -716.4L-70.2 -725.8L-61.7 -735L-51.8 -745.2L-41 -756L-30.4 -765.6L-20.8 -772.2L-11.9 -773.7L-4.7 -770.9L0.2 -767.4L2.8 -766.2L2.8 -766.4L2.3 -766.3L2.6 -767.2L3.6 -769L4.6 -770.4L5.3 -771.6L5.8 -772.9L6.1 -774.1L6.3 -775.3L6.4 -776.6L6.3 -778L6.1 -779.3L5.7 -780.2L5.1 -781.5L4.4 -783.5L4 -786.2L4.2 -788.9L4.6 -790.9L4.9 -792.1L5 -792.9L4.8 -793.9L4.6 -795.1L4.3 -796.2L3.9 -797.2L3.4 -798.3L2.9 -799.3L2.2 -800.3L1.5 -801.1L0.8 -801.9L-0.1 -802.7L-0.9 -803.4L-1.8 -804L-2.8 -804.6L-3.8 -805L-4.8 -805.4L-5.6 -805.7L-6.2 -805.7L-7.3 -805.8L-9.5 -805.9L-12.4 -806.7L-15.1 -808.2L-16.8 -809.5L-17.9 -810.3L-18.6 -810.7L-19.6 -811L-20.8 -811.4L-21.9 -811.6L-22.9 -811.7L-23.9 -811.7L-25 -811.6L-26.1 -811.4L-27.8 -810.8L-30 -810.3L-30.5 -810.4L-29.4 -811.7L-29.5 -813L-29.2 -811L-27.3 -805.5L-26.7 -797L-31 -787.6L-40.6 -779L-53.3 -770.4L-66.8 -761.5L-78.7 -752.6L-88.7 -743.6L-98.3 -734.2L-107.3 -724.7L-115.7 -714.9L-123.7 -704.9L-131.2 -694.7L-138.1 -684.3L-144.5 -673.7L-150.4 -662.8L-155.7 -651.7L-160.3 -640.2L-164.2 -628.6L-167.3 -616.7L-169.6 -604.5L-171.2 -592.2L-172 -579.7L-172.2 -567.2L-171.6 -554.5L-170.4 -541.7L-168.7 -528.8L-166.6 -515.8L-163.9 -502.7L-160.7 -489.5L-157 -476.2L-152.1 -461.4L-147.4 -445L-143.4 -429.9L-140.7 -419.4L-140.7 -419.4L-146.1 -428.8L-154 -442.3L-162 -457.7L-167.5 -472.8L-171.7 -486.5L-175.2 -500.2L-177.9 -513.8L-179.9 -527.3L-181.1 -540.8L-181.5 -554.1L-181.3 -567.3L-180.4 -580.3L-178.9 -593.1L-176.8 -605.8L-174.2 -618.3L-171.1 -630.6L-167.4 -642.7L-163.1 -654.7L-158.2 -666.5L-152.7 -678.1L-146.6 -689.4L-139.7 -700.5L-132.2 -711.3L-124 -721.7L-115.2 -731.8L-105.8 -741.7L-95.9 -751.3L-85.4 -760.8L-73.1 -770.3L-59.7 -779.7L-47.9 -788.4L-40.4 -795.2L-38.4 -799.4L-38.9 -803.1L-40.7 -807.9L-41.7 -813.8L-39.7 -819.7L-35.6 -822.9L-32.7 -823.7L-31.5 -824L-29.8 -824.5L-27.3 -825.1L-24.8 -825.4L-22.2 -825.4L-19.6 -825.1L-17.2 -824.6L-15 -823.8L-12.7 -822.8L-10.4 -821.5L-8.7 -820.1L-7.7 -819.4L-7.5 -819.3L-7.4 -819.3L-6.4 -819.2L-4.5 -819.1L-2.1 -818.6L0.1 -817.8L2.1 -816.9L3.9 -815.8L5.7 -814.6L7.3 -813.2L8.8 -811.7L10.2 -810.1L11.5 -808.4L12.6 -806.6L13.5 -804.7L14.3 -802.7L14.9 -800.7L15.4 -798.7L15.6 -796.6L15.8 -794.6L15.7 -792.4L15.4 -790.1L14.9 -788.3L14.5 -787.3L14.5 -786.9L14.7 -786.3L15.1 -785.1L15.7 -783.1L16.1 -780.7L16.1 -778.4L16 -776.2L15.8 -773.9L15.2 -771.6L14.5 -769.4L13.4 -767.4L12.2 -765.4L11.1 -764L10.3 -762.8L9 -760.6L5.7 -758.2L0.6 -757.9L-4.3 -760.4L-8.7 -763.9L-12.8 -765.9L-17.7 -765.3L-25.7 -759.8L-35.8 -750.6L-46.2 -739.8L-55.6 -729.5L-63.8 -720.2L-71.3 -710.9L-78.3 -701.6L-84.8 -692.3L-90.8 -683L-96.2 -673.7L-101.2 -664.4L-105.6 -655L-109.5 -645.6L-112.8 -636.1L-115.6 -626.5L-117.8 -616.9L-119.6 -607.1L-120.8 -597.3L-121.5 -587.4L-121.7 -577.4L-121.5 -567.2L-120.9 -556.9L-119.8 -546.5L-118.3 -535.9L-116.5 -525L-114.3 -514L-111.7 -502.7L-108.6 -491.2L-104.5 -478.2L-101.2 -463.3L-97.8 -449.9L-95.3 -440.6Z" fill="#111"/><path d="M67.2 -463.2C56.2 -474.4 64 -479.1 61.8 -486.9C59.6 -494.7 57 -502.3 54.1 -509.8C51.3 -517.4 48 -524.8 44.6 -532.1C41.1 -539.4 37.3 -546.7 33.3 -553.8C29.2 -561 24.9 -568.1 20.4 -575.2C15.8 -582.3 11 -589.4 5.9 -596.5C0.9 -603.5 -8.2 -620.2 -10 -617.6C-11.8 -615 -7 -579.6 -4.8 -580.9C-2.6 -582.1 5 -611 3.3 -625.2C1.5 -639.4 -5.5 -654.9 -15.3 -666.2C-25.1 -677.5 -40.2 -687.7 -55.4 -693C-70.6 -698.4 -89.9 -700.4 -106.5 -698.4C-123 -696.3 -141.3 -689.7 -154.7 -680.8C-168.2 -672 -180.4 -658.5 -187.2 -645.1C-194 -631.8 -197 -615 -195.3 -600.8C-193.5 -586.6 -189.8 -571 -176.7 -559.8C-163.6 -548.5 -128.4 -540.4 -116.5 -533.4C-104.5 -526.5 -108.6 -523.1 -105.2 -518.2C-101.8 -513.2 -98.8 -508.4 -96.1 -503.7C-93.4 -499 -91.1 -494.5 -89.2 -490.2C-87.2 -485.8 -85.6 -481.6 -84.3 -477.7C-83 -473.7 -82.1 -469.9 -81.4 -466.4C-80.7 -462.9 -80.4 -459.6 -80.3 -456.5C-80.1 -453.5 -78.6 -452.5 -80.6 -448.1C-82.5 -443.7 -85.1 -442.7 -92 -430C-98.9 -417.3 -113.5 -393.7 -122 -372C-130.5 -350.3 -140 -322.3 -142.7 -300C-145.4 -277.7 -147.5 -254.2 -138 -238C-128.5 -221.8 -107.3 -210.7 -86 -203C-64.7 -195.3 -36 -192.8 -10 -192C16 -191.2 45.8 -190.7 70 -198C94.2 -205.3 116.1 -219.7 135.3 -236C154.4 -252.3 177.7 -274.3 185 -296C192.2 -317.7 188.5 -345.3 179 -366C169.4 -386.7 146.1 -403.8 127.5 -420C108.9 -436.2 78.1 -452.1 67.2 -463.2Z" fill="#FBF8F0"/><g transform="translate(-98 -384) scale(0.9)"><g transform="translate(0 150) scale(1 -1)"><path d="M215 147 c0 -13 6 -38 10 -39 2 0 6 2 6 4 0 3 6 13 7 13 1 0 2 -3 3 -6 3 -8 4 -10 7 -10 7 1 -1 27 -9 27 -3 0 -10 -6 -10 -8 0 -3 -2 0 -3 5 -3 15 -4 17 -8 17 -3 0 -3 0 -3 -3z M156 134 c-15 -7 -20 -9 -21 -12 0 -3 3 -3 9 -1 7 3 7 3 6 -11 0 -16 1 -23 3 -26 3 -3 4 -1 3 21 l0 21 7 3 c15 7 7 11 -7 5z M198 127 c-13 -6 -10 -24 3 -24 7 0 15 8 12 12 -1 1 -2 1 -5 -1 -10 -8 -15 1 -4 9 6 5 2 8 -6 4z M170 121 c-13 -10 -2 -31 13 -23 5 2 4 5 -1 5 -8 0 -11 2 -5 3 4 1 9 7 9 10 0 8 -10 11 -16 5z m8 -4 c1 -1 -5 -6 -6 -5 0 1 0 2 1 3 2 3 4 4 5 2z M118 102 c-2 0 -5 -3 -7 -5 -4 -3 -4 -3 -6 -1 -6 8 -8 3 -5 -14 3 -15 4 -14 -1 -12 -4 2 -6 5 -6 11 -1 7 -6 12 -13 12 -11 0 -17 -10 -5 -10 5 0 6 -1 6 -3 0 -6 -6 -13 -8 -9 -2 6 -6 4 -6 -2 0 -2 0 -3 -4 -4 -2 -1 -7 -4 -11 -6 -4 -2 -7 -4 -8 -4 0 0 4 8 8 17 14 32 13 34 -14 23 -23 -9 -29 -13 -29 -16 0 -5 5 -4 22 3 9 4 16 7 16 7 1 0 2 2 -9 -21 -11 -25 -12 -26 -10 -30 3 -3 7 -3 16 3 22 13 30 18 32 18 4 0 9 3 11 6 1 3 1 3 5 0 4 -2 9 -3 11 -1 1 1 2 2 3 1 4 -1 7 4 7 12 0 9 1 11 8 18 7 8 6 11 -3 7z M137 102 c-1 -1 -1 -4 -1 -6 -2 -8 -4 -9 -5 -3 -3 8 -5 7 -5 -2 1 -11 6 -16 12 -10 2 3 4 14 4 19 -1 3 -5 5 -5 2z M201 77 c-61 -17 -115 -41 -148 -66 -14 -11 -14 -11 -5 -11 8 0 8 0 19 8 15 11 26 17 43 24 13 6 95 40 107 44 3 1 6 2 6 3 0 3 -8 2 -22 -2z" fill="#111"/></g></g><path d="M70.5 -466.6L66.7 -471.5L65.8 -474.7L66.2 -477.9L66.8 -482.4L66.3 -487.8L64.8 -492.9L63.3 -497.6L61.8 -502.2L60.1 -506.8L58.3 -511.4L56.5 -516L54.6 -520.5L52.6 -525L50.6 -529.5L48.5 -533.9L46.3 -538.4L44 -542.8L41.7 -547.2L39.3 -551.5L36.9 -555.9L34.4 -560.2L31.8 -564.5L29.2 -568.8L26.5 -573.1L23.8 -577.4L21 -581.7L18.2 -586L15.3 -590.3L12.3 -594.6L9.3 -598.8L6 -603.9L2.2 -610L-1.6 -615.8L-5.3 -620.3L-13.9 -619.6L-14.8 -612.5L-14.3 -602.7L-13 -591.7L-11.4 -582.5L-3.7 -575L2.2 -582.8L4.8 -591.6L7.4 -602.9L9 -614.8L9.1 -625.7L7.4 -635.3L4.5 -644.7L0.5 -653.9L-4.5 -662.6L-10.4 -670.5L-17.4 -677.7L-25.4 -684.3L-34.2 -690.1L-43.6 -695.1L-53.3 -699.1L-63.5 -702L-74.3 -703.9L-85.4 -705L-96.4 -705L-107.2 -704.1L-117.8 -702.1L-128.4 -699.1L-138.7 -695.2L-148.5 -690.5L-157.5 -685.1L-165.8 -678.8L-173.5 -671.7L-180.5 -664L-186.5 -655.8L-191.5 -647.3L-195.3 -638.4L-198.2 -629L-199.9 -619.3L-200.6 -609.6L-200.3 -600.3L-199 -591.1L-196.8 -581.8L-193.3 -572.5L-188 -563.5L-180.4 -555.2L-169.3 -548.1L-155.4 -542.2L-141 -537L-128.1 -532.5L-119.1 -528.6L-114.5 -525.6L-112.5 -523.8L-111.7 -522.2L-111 -519.4L-109.4 -515.8L-107.3 -512.5L-105.4 -509.7L-103.5 -506.9L-101.8 -504.1L-100.1 -501.4L-98.6 -498.7L-97.1 -496.1L-95.7 -493.5L-94.4 -490.9L-93.1 -488.4L-92 -485.9L-90.9 -483.4L-90 -481L-89.1 -478.7L-88.2 -476.4L-87.5 -474.1L-86.8 -472L-86.2 -469.8L-85.7 -467.7L-85.3 -465.7L-84.9 -463.7L-84.6 -461.8L-84.3 -459.9L-84.1 -458.1L-84 -456.2L-83.9 -454.3L-83.5 -452.9L-83.3 -452.1L-83.3 -451.3L-83.9 -449.6L-85 -447.7L-86.4 -445.6L-88.6 -442.6L-91.5 -438.2L-95.2 -431.8L-100.2 -423L-106.5 -412.2L-113.4 -400L-120.2 -387L-126.3 -373.7L-131.8 -360L-137.2 -345.3L-142.1 -330.2L-146 -315.2L-148.7 -300.8L-150.3 -287L-151.1 -273.3L-150.8 -259.7L-148.6 -246.7L-143.8 -234.6L-136 -224.2L-125.8 -215.4L-114.1 -208L-101.4 -201.9L-88.1 -196.8L-73.9 -192.7L-58.6 -189.7L-42.5 -187.7L-26.2 -186.4L-10.2 -185.6L5.9 -185.2L22.6 -185.2L39.4 -186L56 -188L71.9 -191.7L86.8 -197.2L101 -204.2L114.4 -212.4L127.1 -221.7L139 -231.6L150.8 -242.4L162.7 -254.4L173.6 -267.2L182.7 -280.8L188.8 -294.7L191.7 -309.1L192.3 -324.1L190.7 -339.2L187.4 -353.9L182.3 -367.6L174.8 -380.2L165 -392.1L153.8 -403.2L142.1 -413.7L130.6 -423.8L118.1 -433.8L104.4 -443.5L90.9 -452.5L79.3 -460.6ZM63.9 -459.9L58.5 -467L56.5 -473.6L56.7 -479L57.4 -482.7L57.2 -486L56 -490.2L54.6 -494.7L53.1 -499.3L51.6 -503.8L49.9 -508.2L48.2 -512.7L46.5 -517.1L44.6 -521.5L42.7 -525.9L40.7 -530.2L38.6 -534.6L36.5 -538.9L34.3 -543.2L32 -547.5L29.6 -551.8L27.2 -556.1L24.8 -560.3L22.2 -564.6L19.6 -568.8L17 -573.1L14.2 -577.3L11.4 -581.5L8.5 -585.7L5.6 -589.9L2.5 -594.1L-1 -599.3L-4.9 -605.4L-8.6 -610.8L-11 -613.8L-6.1 -615.6L-5.9 -612.8L-4.9 -603.7L-3.3 -593.3L-1.4 -585.4L-5.9 -586.8L-8 -586.4L-5.8 -594.2L-3.7 -604.8L-2.4 -615.6L-2.6 -624.7L-4.2 -632.3L-7 -640.3L-10.6 -648.1L-15.1 -655.4L-20.2 -662L-26.2 -668L-33.2 -673.7L-40.9 -678.9L-49.2 -683.4L-57.6 -687L-66.5 -689.7L-76.1 -691.6L-86.1 -692.8L-96.1 -693.2L-105.8 -692.6L-115.3 -691.1L-125.1 -688.7L-134.7 -685.3L-143.7 -681.3L-151.9 -676.6L-159.4 -671.1L-166.5 -664.8L-173 -657.8L-178.5 -650.4L-182.9 -642.9L-186.3 -635.1L-188.8 -626.7L-190.3 -618.1L-190.8 -609.6L-190.3 -601.3L-188.9 -593.2L-186.7 -585.1L-183.5 -577.4L-179 -570.4L-173.1 -564.3L-163.8 -558.6L-151.1 -553.1L-137.1 -547.9L-123.9 -543L-113.8 -538.3L-107.6 -533.7L-104.1 -529.2L-102.7 -525.2L-102.1 -522.6L-101 -520.6L-99.2 -517.9L-97.3 -514.9L-95.5 -511.9L-93.7 -508.9L-92.1 -506L-90.5 -503.1L-89.1 -500.3L-87.7 -497.5L-86.4 -494.7L-85.2 -492L-84.1 -489.3L-83 -486.6L-82.1 -484L-81.2 -481.4L-80.4 -478.9L-79.7 -476.5L-79 -474L-78.5 -471.7L-78 -469.4L-77.6 -467.1L-77.2 -464.9L-77 -462.8L-76.8 -460.7L-76.6 -458.7L-76.5 -456.9L-76.3 -455.6L-76 -454.2L-75.9 -452.1L-76.2 -449.5L-77.3 -446.6L-78.8 -443.8L-80.5 -441.4L-82.5 -438.5L-85.2 -434.4L-88.8 -428.2L-93.7 -419.3L-99.7 -408.4L-106.1 -396.2L-112.4 -383.3L-117.7 -370.3L-122.5 -356.7L-127.2 -342.1L-131.3 -327.3L-134.7 -312.8L-136.8 -299.2L-138 -286L-138.7 -273.1L-138.2 -261L-136.1 -250.3L-132.2 -241.4L-126.1 -233.6L-117.7 -226.4L-107.5 -219.9L-96 -214.2L-83.9 -209.2L-70.9 -205.3L-56.5 -202.4L-41.2 -200.4L-25.4 -199.1L-9.8 -198.4L6.1 -198L22.2 -198.1L38.3 -199L53.7 -201L68.1 -204.3L81.7 -209.2L94.9 -215.5L107.6 -222.9L119.8 -231.3L131.6 -240.4L143.4 -250.5L155.2 -261.5L166.1 -273.2L175 -285.2L181.1 -297.3L184.4 -310.1L185.3 -324L183.9 -338.1L180.6 -351.8L175.7 -364.4L168.6 -375.7L159.1 -386.5L148 -396.7L136.1 -406.6L124.4 -416.2L112.1 -425.5L98.4 -434.5L84.7 -443.2L72.5 -451.5Z" fill="#111" fill-rule="evenodd"/><g transform="translate(-96 -613) rotate(-14) scale(0.93)"><path d="M14 53.8C23.3 50.5 42 43.3 64 40C86 36.7 122.3 32.7 146 34C169.7 35.3 194.7 41.1 206 47.7C217.3 54.2 217.3 64 214 73.3C210.7 82.6 199.7 97.5 186 103.3C172.3 109.1 149.7 106.9 132 108C114.3 109.1 96.7 110.7 80 110C63.3 109.3 43.7 107 32 104C20.3 101 14.3 96.7 10 92C5.7 87.3 6.3 81.3 6 76C5.7 70.7 6.7 63.7 8 60C9.3 56.3 4.7 57.1 14 53.8Z" fill="#F7C05A"/><path d="M12.1 48.7L20.8 45.3L32.6 41.5L47.1 38.2L63.3 35.9L82.3 33.9L104.1 31.5L126.2 29.9L146.2 30.2L164.3 32.2L181.5 34.9L196.8 38.4L208.7 43L216.9 49.6L221.1 58.1L221.5 66.9L219.4 75.4L214.9 84L207.8 93.1L198.7 101.4L187.9 107.9L175.1 111.3L160.7 112.6L146.1 112.7L132.2 112.7L119 113.2L105.8 113.8L92.7 114.6L79.8 115.1L66.6 115L53.4 114.1L41 112.4L30.5 110L22.1 107L15.4 103.5L10.2 99.6L6 95.4L3.1 90.3L1.9 85.1L1.5 80.4L1.4 76.1L1.4 71.6L1.7 66.8L2.5 62.3L3.3 59L3.4 57.9L3.7 54.7L7.2 51.4ZM15.9 58.9L24.5 56.1L35.9 52.3L49.4 48L64.7 44.1L83.2 41.1L104.7 39.1L126.4 38L145.8 37.8L163.3 39.3L179.7 42.8L193.6 47.5L203.3 52.3L208.1 56.7L209.9 60.8L210 65.7L208.6 71.3L205.4 78.2L200 86.2L192.7 93.6L184.1 98.7L173.5 101.3L160.3 102.2L145.9 102.5L131.8 103.3L118.5 104.6L105.4 105.5L92.6 105.7L80.2 104.9L67.6 103.4L54.9 101.6L43.2 99.8L33.5 98L26.4 96L21.1 93.7L17 91.2L14 88.6L12.1 86.2L11.1 83.4L10.8 79.8L10.6 75.9L10.6 72L11 68L11.7 64.3L12.7 61L12.9 57.9L12.3 58.9L11.4 59.9Z" fill="#111" fill-rule="evenodd"/><path d="M30 78C84 87 148 85 198 70" fill="none" stroke="#111" stroke-width="5" stroke-linecap="round"/><g transform="translate(0 -6.5) scale(1.12)"><path d="M-62 -22C0 -30 70 -32 150 -20C158 -10 150 22 118 36C84 48 60 30 52 6C40 12 20 12 6 8C-4 30 -28 46 -54 30C-70 16 -72 -8 -62 -22Z" fill="#111"/><path d="M-40 -12C-30 -16 -16 -14 -8 -10M72 -10C84 -14 100 -14 112 -10" stroke="#fff" stroke-width="4" stroke-linecap="round" fill="none" opacity="0.55"/></g><g transform="rotate(-7.6)"><path d="M-100 -26C-110.7 -28.7 -111.7 -56 -108 -72C-104.3 -88 -91.3 -110.2 -78 -122C-64.7 -133.8 -44.3 -139 -28 -143C-11.7 -147 3.7 -147.2 20 -146C36.3 -144.8 55.3 -143.3 70 -136C84.7 -128.7 101 -114.3 108 -102C115 -89.7 119.3 -68 112 -62C104.7 -56 81.3 -65.7 64 -66C46.7 -66.3 26 -65.7 8 -64C-10 -62.3 -26 -62.3 -44 -56C-62 -49.7 -89.3 -23.3 -100 -26Z" fill="#FBF8F0"/><path d="M-101.1 -20.7L-110.2 -30L-113.2 -43.5L-113.5 -58.6L-112 -72.9L-107.7 -86.6L-100.6 -100.9L-91.4 -114.3L-80.9 -125.4L-69 -133.6L-55.8 -139.8L-42.3 -144.7L-29.3 -148.7L-16.8 -151.5L-4.3 -152.8L8 -152.8L20.4 -151.7L33.2 -150L46.4 -147.8L59.5 -144.5L71.8 -139.7L83.6 -132.9L94.9 -124.2L104.6 -114.4L111.8 -104.2L116.6 -92.7L119.3 -80.1L119.5 -68.3L114.9 -58.2L103.9 -54.8L90.8 -56L76.8 -58L63.6 -58.9L50.5 -58.7L36.5 -58.6L22.3 -58.5L8.5 -57.9L-4.7 -57.2L-17.3 -56.1L-29.6 -54L-41.8 -50.6L-56 -43.4L-72 -33.4L-87.4 -24.5ZM-98.9 -31.3L-102.3 -34.1L-105.6 -44.5L-106 -58.3L-104 -71.1L-99.6 -83.2L-92.6 -96.2L-84.2 -108.6L-75.1 -118.6L-64.7 -125.8L-52.4 -131.1L-39.4 -134.7L-26.7 -137.3L-15 -139.1L-3.7 -140.1L7.8 -140.4L19.6 -140.3L32.1 -139.9L44.8 -138.9L57.1 -136.5L68.2 -132.3L78.7 -125.8L88.9 -117.5L97.7 -108.5L104.2 -99.8L108.7 -90.1L111.5 -79.1L111.4 -69.8L109.1 -65.8L103.7 -65.3L92.7 -67.3L78.8 -70.8L64.4 -73.1L50.4 -73.4L36 -72.9L21.5 -71.7L7.5 -70.1L-5.7 -68.7L-18.7 -67.4L-32.1 -65.4L-46.2 -61.4L-61.7 -53.1L-77.5 -41.8L-91.2 -32.8Z" fill="#111" fill-rule="evenodd"/><path d="M-100 -26C-107.7 -31.7 -127 -34.7 -140 -34C-153 -33.3 -168.7 -29.7 -178 -22C-187.3 -14.3 -199 4.7 -196 12C-193 19.3 -172.3 21.7 -160 22C-147.7 22.3 -133 17.7 -122 14C-111 10.3 -97.7 6.7 -94 0C-90.3 -6.7 -92.3 -20.3 -100 -26Z" fill="#FBF8F0"/><path d="M-97.7 -29L-106.4 -33.4L-117.1 -37L-128.9 -39.5L-140.2 -39.5L-150.9 -37.5L-161.5 -34.5L-171.7 -30.6L-180.7 -25.2L-188.2 -16.9L-194.6 -6.5L-199.3 3.8L-200.3 13.8L-193.6 21.8L-183 25.9L-171.1 27.4L-160 27.5L-149.7 26.7L-139.2 24.9L-129.4 21.9L-120.6 18.3L-112.2 15L-103.6 11.9L-95.6 8.3L-89.6 2.5L-87.2 -5.6L-87.7 -14.4L-91 -23ZM-102.3 -23L-109 -26.1L-118.9 -27.7L-129.8 -28.2L-139.8 -28.5L-149.3 -28.3L-159.2 -26.8L-168.2 -23.4L-175.3 -18.8L-182.1 -12.1L-188.7 -3.3L-192.3 5.6L-191.7 10.2L-188.1 11.4L-180 13.3L-169.7 15.3L-160 16.5L-151.1 16.1L-141.8 14.1L-132.3 11.8L-123.4 9.7L-114.8 7.5L-106.9 4.4L-101.1 0.7L-98.4 -2.5L-97.4 -6.6L-97.8 -12.3L-99.6 -18Z" fill="#111" fill-rule="evenodd"/><path d="M-8 -118L38 -118L-8 -78L40 -78" fill="none" stroke="#111" stroke-width="10" stroke-linecap="round" stroke-linejoin="round"/></g></g></g></g><g id="fx"><g opacity="0.13"><path d="M757.8 349.5L669.8 330.7" stroke="#111" stroke-width="2.5" stroke-linecap="round"/><path d="M750 316.3L642.3 249" stroke="#111" stroke-width="2.5" stroke-linecap="round"/><path d="M758.6 277.3L700.7 203.3" stroke="#111" stroke-width="2.5" stroke-linecap="round"/><path d="M804.6 297.4L764.2 172.9" stroke="#111" stroke-width="2.5" stroke-linecap="round"/><path d="M826.3 274L826.3 176" stroke="#111" stroke-width="2.5" stroke-linecap="round"/><path d="M860.3 259.4L902 131" stroke="#111" stroke-width="2.5" stroke-linecap="round"/><path d="M869.4 308.9L932.2 228.5" stroke="#111" stroke-width="2.5" stroke-linecap="round"/><path d="M902.6 316.3L1020.5 242.7" stroke="#111" stroke-width="2.5" stroke-linecap="round"/><path d="M933.9 341.1L1037.6 319.1" stroke="#111" stroke-width="2.5" stroke-linecap="round"/></g><path d="M780.3 388q18 -22 34 -6M834.3 384q20 -18 38 0" stroke="#111" stroke-width="5" stroke-linecap="round" fill="none"/></g></svg>