<svg xmlns="http://www.w3.org/2000/svg" viewBox="0 0 1920 1080" width="1920" height="1080" preserveAspectRatio="xMidYMax slice"><title>ZaruTech duck opening, frame 170/180</title><g id="cover"></g><g id="duck" stroke-linejoin="round" stroke-linecap="round"><ellipse cx="440" cy="1046" rx="229.5" ry="21.1" fill="#000" opacity="0.1"/><path d="M397.6 902.6Q366.8 961.6 350 1016.6" stroke="#fff" stroke-opacity="0.4" stroke-width="25.3" stroke-linecap="round" fill="none"/><path d="M397.6 902.6Q366.8 961.6 350 1016.6" stroke="#111" stroke-width="8.4" stroke-linecap="round" fill="none"/><path d="M494.3 897.4Q527.1 959 545.8 1016.6" stroke="#fff" stroke-opacity="0.4" stroke-width="25.3" stroke-linecap="round" fill="none"/><path d="M494.3 897.4Q527.1 959 545.8 1016.6" stroke="#111" stroke-width="8.4" stroke-linecap="round" fill="none"/><path transform="translate(350 1020.6) rotate(-10.7) scale(-1.126 1.126)" d="M-20 -6C-2-18 34-24 74-20L98-10L82-4L98 6L74 10L84 20C56 26 18 24-10 15C-22 9-24 0-20-6Z" fill="#F7C05A" stroke="#111" stroke-width="10.2" stroke-linejoin="round"/><path transform="translate(545.8 1020.6) rotate(10.7) scale(1.126 1.126)" d="M-20 -6C-2-18 34-24 74-20L98-10L82-4L98 6L74 10L84 20C56 26 18 24-10 15C-22 9-24 0-20-6Z" fill="#F7C05A" stroke="#111" stroke-width="10.2" stroke-linejoin="round"/><g transform="translate(440 1040) scale(0.88) translate(0 45) translate(0 -190) rotate(-1) scale(1 1) translate(0 190)"><path d="M67.1 -464.1C57.1 -475.3 64.3 -479.7 62.4 -487.5C60.6 -495.2 58.4 -502.9 56 -510.6C53.6 -518.2 51 -525.8 48.1 -533.4C45.3 -541 42.2 -548.6 38.9 -556.1C35.6 -563.7 32 -571.2 28.3 -578.8C24.6 -586.3 20.6 -593.9 16.5 -601.4C12.3 -609 5.9 -627.7 3.3 -624.2C0.7 -620.6 -1.4 -580.7 1 -580.3C3.4 -580 16.6 -607.9 17.7 -622.2C18.8 -636.4 15 -653 7.7 -666.1C0.4 -679.1 -12.5 -692 -26.3 -700.3C-40.1 -708.6 -58.6 -714.4 -75.3 -715.7C-91.9 -717 -111.1 -714.2 -126 -708.2C-141 -702.2 -155.7 -691.4 -165 -679.7C-174.2 -667.9 -180.6 -652.1 -181.7 -637.8C-182.8 -623.6 -183.2 -607.9 -171.7 -593.9C-160.2 -580 -124.3 -563.6 -112.9 -554.1C-101.4 -544.6 -106.2 -542.6 -103.3 -537C-100.4 -531.4 -97.7 -526 -95.4 -520.6C-93.1 -515.2 -91 -510 -89.3 -504.9C-87.5 -499.8 -86 -494.8 -84.8 -489.9C-83.6 -485.1 -82.7 -480.4 -82 -475.9C-81.4 -471.4 -81 -467 -80.7 -462.8C-80.5 -458.6 -78.9 -456.2 -80.8 -450.7C-82.7 -445.2 -85.1 -443.1 -92 -430C-98.9 -416.9 -113 -393.7 -122 -372C-131 -350.3 -143.1 -322.3 -145.8 -300C-148.4 -277.7 -148 -254.2 -138 -238C-128 -221.8 -107.3 -210.7 -86 -203C-64.7 -195.3 -36 -192.8 -10 -192C16 -191.2 46.3 -190.7 70 -198C93.7 -205.3 114.8 -219.7 132.2 -236C149.7 -252.3 168.7 -274.3 174.8 -296C180.9 -317.7 177.5 -345.3 168.8 -366C160.1 -386.7 139.3 -403.7 122.4 -420C105.5 -436.3 77.1 -452.8 67.1 -464.1Z" fill="#FBF8F0"/><g transform="translate(-98 -384) scale(0.9)"><g transform="translate(0 150) scale(1 -1)"><path d="M215 147 c0 -13 6 -38 10 -39 2 0 6 2 6 4 0 3 6 13 7 13 1 0 2 -3 3 -6 3 -8 4 -10 7 -10 7 1 -1 27 -9 27 -3 0 -10 -6 -10 -8 0 -3 -2 0 -3 5 -3 15 -4 17 -8 17 -3 0 -3 0 -3 -3z M156 134 c-15 -7 -20 -9 -21 -12 0 -3 3 -3 9 -1 7 3 7 3 6 -11 0 -16 1 -23 3 -26 3 -3 4 -1 3 21 l0 21 7 3 c15 7 7 11 -7 5z M198 127 c-13 -6 -10 -24 3 -24 7 0 15 8 12 12 -1 1 -2 1 -5 -1 -10 -8 -15 1 -4 9 6 5 2 8 -6 4z M170 121 c-13 -10 -2 -31 13 -23 5 2 4 5 -1 5 -8 0 -11 2 -5 3 4 1 9 7 9 10 0 8 -10 11 -16 5z m8 -4 c1 -1 -5 -6 -6 -5 0 1 0 2 1 3 2 3 4 4 5 2z M118 102 c-2 0 -5 -3 -7 -5 -4 -3 -4 -3 -6 -1 -6 8 -8 3 -5 -14 3 -15 4 -14 -1 -12 -4 2 -6 5 -6 11 -1 7 -6 12 -13 12 -11 0 -17 -10 -5 -10 5 0 6 -1 6 -3 0 -6 -6 -13 -8 -9 -2 6 -6 4 -6 -2 0 -2 0 -3 -4 -4 -2 -1 -7 -4 -11 -6 -4 -2 -7 -4 -8 -4 0 0 4 8 8 17 14 32 13 34 -14 23 -23 -9 -29 -13 -29 -16 0 -5 5 -4 22 3 9 4 16 7 16 7 1 0 2 2 -9 -21 -11 -25 -12 -26 -10 -30 3 -3 7 -3 16 3 22 13 30 18 32 18 4 0 9 3 11 6 1 3 1 3 5 0 4 -2 9 -3 11 -1 1 1 2 2 3 1 4 -1 7 4 7 12 0 9 1 11 8 18 7 8 6 11 -3 7z M137 102 c-1 -1 -1 -4 -1 -6 -2 -8 -4 -9 -5 -3 -3 8 -5 7 -5 -2 1 -11 6 -16 12 -10 2 3 4 14 4 19 -1 3 -5 5 -5 2z M201 77 c-61 -17 -115 -41 -148 -66 -14 -11 -14 -11 -5 -11 8 0 8 0 19 8 15 11 26 17 43 24 13 6 95 40 107 44 3 1 6 2 6 3 0 3 -8 2 -22 -2z" fill="#111"/></g></g><path d="M-144.8 -454.1C-158.6 -456.7 -165.8 -432.8 -174.4 -421.6C-183 -410.3 -190.6 -398.7 -196.3 -386.6C-202 -374.4 -206.4 -361.5 -208.5 -348.7C-210.6 -335.8 -210.7 -322.1 -208.7 -309.5C-206.7 -296.8 -202.2 -284 -196.4 -272.7C-190.5 -261.4 -182.5 -250.9 -173.6 -241.5C-164.7 -232 -154.2 -223.8 -142.9 -216.1C-131.7 -208.3 -112.7 -201.5 -106.1 -195C-99.4 -188.5 -104.6 -180.7 -103.1 -177.1C-101.6 -173.4 -99.3 -173.9 -97.1 -173.1C-94.9 -172.2 -92.3 -171.8 -90 -171.9C-87.7 -172 -85.2 -172.8 -83.1 -173.7C-81 -174.6 -79.4 -176.7 -77.4 -177.5C-75.5 -178.2 -73.2 -177.7 -71.3 -178.3C-69.3 -179 -67.3 -179.9 -65.5 -181.2C-63.8 -182.4 -62.2 -184 -60.9 -185.7C-59.7 -187.4 -58.7 -189.5 -58 -191.5C-57.4 -193.5 -57.1 -195.7 -57.1 -197.8C-57.1 -199.9 -58.3 -201.8 -58.2 -203.9C-58.1 -206 -56.6 -208.2 -56.4 -210.5C-56.1 -212.8 -56.1 -215.4 -56.8 -217.6C-57.4 -219.9 -58.6 -222.2 -60.1 -224C-61.6 -225.8 -61.8 -228.1 -65.7 -228.4C-69.7 -228.7 -77 -221.5 -83.8 -225.8C-90.5 -230 -100.1 -245.1 -106 -254C-111.9 -263 -116.1 -271.7 -119.3 -279.5C-122.5 -287.3 -124 -294.4 -125.1 -300.8C-126.2 -307.2 -126.3 -312.5 -126.2 -318.1C-126.1 -323.8 -125.6 -328.6 -124.5 -334.6C-123.4 -340.6 -122.2 -346.8 -119.6 -354C-117.1 -361.2 -113.9 -369.3 -109.2 -377.9C-104.5 -386.6 -85.3 -393.2 -91.2 -405.9C-97.2 -418.6 -130.9 -451.5 -144.8 -454.1Z" fill="#FBF8F0"/><path d="M-144.8 -454.1L-149 -447.1L-154.8 -436.9L-161.9 -426.3L-169.1 -417.4L-175.2 -409.3L-181.1 -401L-186.5 -392.8L-191.4 -384.3L-195.7 -375.5L-199.4 -366.5L-202.3 -357.3L-204.3 -348L-205.5 -338.6L-205.9 -329L-205.5 -319.4L-204.3 -310.2L-202.4 -301L-199.8 -292L-196.6 -283.1L-192.7 -274.6L-188.3 -266.4L-183 -258.6L-177.1 -251.2L-170.7 -244.2L-163.7 -237.7L-156.2 -231.7L-148.2 -226.1L-139.9 -220.7L-130.5 -215.6L-120 -210.6L-109.9 -205.2L-101.8 -199.3L-97.5 -191.9L-96.9 -184.9L-97.6 -180.2L-97.8 -178.5L-97.8 -178.6L-98 -178.8L-97.2 -178.6L-95.5 -178L-94 -177.5L-92.8 -177.1L-91.5 -176.9L-90.3 -176.9L-89.1 -177L-87.8 -177.2L-86.4 -177.6L-85.2 -178L-84.3 -178.5L-83.1 -179.4L-81.4 -180.6L-79.2 -181.8L-76.7 -182.5L-74.7 -182.6L-73.4 -182.7L-72.5 -182.8L-71.5 -183.2L-70.3 -183.7L-69.2 -184.3L-68.2 -184.9L-67.3 -185.7L-66.3 -186.5L-65.5 -187.5L-64.7 -188.4L-64 -189.5L-63.4 -190.6L-62.9 -191.7L-62.5 -192.9L-62.2 -194.1L-62 -195.3L-61.9 -196.5L-61.9 -197.6L-62.1 -198.4L-62.5 -199.6L-62.9 -201.6L-63 -204.2L-62.5 -206.8L-61.8 -208.7L-61.3 -210.1L-61.1 -211.2L-61 -212.4L-61.1 -213.8L-61.3 -215.2L-61.6 -216.3L-62 -217.5L-62.6 -218.6L-63.3 -219.7L-64.3 -221L-65.3 -222.5L-65.7 -223.2L-65.6 -223L-65.5 -223.1L-67.5 -222.6L-72.1 -220.8L-78.7 -219.4L-86.2 -221.7L-92.5 -227.7L-98.4 -235.7L-104.2 -244.2L-109.2 -252L-113.5 -258.7L-117.3 -265.4L-120.6 -271.8L-123.4 -277.9L-125.9 -283.8L-127.7 -289.4L-129.2 -294.8L-130.4 -299.9L-131.2 -304.8L-131.7 -309.5L-131.9 -313.9L-131.9 -318.2L-131.8 -322.6L-131.6 -326.8L-131.1 -331.1L-130.3 -335.6L-129.4 -340.3L-128.2 -345.2L-126.8 -350.4L-124.9 -355.8L-122.7 -361.5L-120.1 -367.5L-117.1 -373.8L-113.6 -380.4L-108.8 -387.8L-102 -395L-95.6 -401.5L-91.2 -405.9L-91.2 -405.9L-93.6 -400.1L-97.1 -391.8L-100.8 -382.8L-104.7 -375.4L-107.8 -369.3L-110.3 -363.3L-112.5 -357.6L-114.4 -352.2L-115.9 -347.1L-117 -342.5L-118 -338L-118.8 -333.6L-119.4 -329.5L-119.9 -325.7L-120.2 -321.9L-120.4 -318L-120.5 -314L-120.5 -310L-120.3 -306L-119.8 -301.7L-119.1 -296.9L-118.2 -291.9L-116.9 -286.7L-115.1 -281.2L-112.8 -275.3L-110.1 -269.1L-106.8 -262.7L-102.8 -256.1L-97.8 -248.6L-91.9 -240.6L-86 -233.7L-81.3 -229.8L-78.6 -229.4L-75.3 -230.5L-71 -232.5L-66 -233.8L-61.3 -232.7L-58.3 -230.4L-56.8 -228.3L-55.9 -227L-54.7 -225.4L-53.6 -223.3L-52.6 -221.2L-52 -218.9L-51.6 -216.6L-51.4 -214.3L-51.4 -212.1L-51.6 -209.8L-52.1 -207.5L-52.8 -205.6L-53.3 -204.3L-53.4 -203.6L-53.3 -203.1L-52.9 -202.1L-52.5 -200.3L-52.4 -198L-52.5 -195.9L-52.7 -194L-53 -192L-53.6 -190.1L-54.3 -188.2L-55.1 -186.4L-56.1 -184.6L-57.2 -183L-58.4 -181.4L-59.8 -180L-61.3 -178.6L-62.9 -177.4L-64.5 -176.3L-66.3 -175.4L-68.1 -174.6L-70 -173.9L-72.2 -173.4L-74 -173.3L-75.2 -173.2L-75.7 -173.1L-76.3 -172.7L-77.3 -171.9L-78.9 -170.6L-81 -169.4L-83.1 -168.5L-85.2 -167.7L-87.4 -167.2L-89.8 -166.9L-92.1 -166.9L-94.5 -167.1L-96.8 -167.5L-98.7 -168.1L-100.2 -168.5L-102.7 -169.2L-105.8 -171.4L-108.3 -175.7L-108.8 -180.8L-108.4 -185.1L-108.6 -188.1L-110.3 -190.7L-116.2 -194.7L-125.6 -199.6L-136.2 -205.2L-146 -211.4L-154.3 -217.9L-162.1 -224.5L-169.5 -231.5L-176.4 -238.7L-183 -246.3L-189.2 -254.1L-194.9 -262.3L-200 -270.8L-204.4 -279.8L-208.2 -289.2L-211.1 -298.9L-213.1 -308.8L-214.1 -318.8L-214.3 -329L-213.8 -339.3L-212.6 -349.4L-210.7 -359.4L-208.1 -369.3L-204.9 -379.2L-201.2 -388.9L-196.8 -398.5L-191.8 -407.8L-186 -416.9L-179.7 -425.7L-171.8 -435L-161.6 -443.2L-151.5 -449.5L-144.8 -454.1Z" fill="#111"/><path d="M70.5 -467.1L67 -472.1L66.2 -475.4L66.6 -478.6L67.1 -482.9L66.8 -488.1L65.5 -493.2L64.2 -497.9L62.9 -502.5L61.5 -507.2L60.1 -511.8L58.6 -516.5L57 -521.1L55.4 -525.7L53.7 -530.3L52 -534.9L50.3 -539.5L48.4 -544.1L46.6 -548.7L44.7 -553.2L42.7 -557.8L40.7 -562.4L38.6 -567L36.5 -571.5L34.4 -576.1L32.2 -580.7L30 -585.3L27.7 -589.9L25.4 -594.5L23 -599.1L20.6 -603.6L18.1 -609L15.3 -615.8L12.3 -622.3L8.8 -627.6L-1.1 -626.9L-3.4 -619.1L-4.8 -607.7L-5.7 -595.1L-5.9 -584.3L-1.8 -573.9L9.1 -579.6L13.6 -588L18.3 -598.8L22.3 -610.5L24.3 -621.4L24.3 -631.3L23.3 -641.1L21 -650.9L17.7 -660.4L13.3 -669.2L7.8 -677.6L1.2 -685.5L-6.4 -692.9L-14.6 -699.6L-23.3 -705.3L-32.7 -710.1L-42.9 -714.1L-53.5 -717.3L-64.2 -719.5L-74.9 -720.8L-85.6 -721L-96.5 -720.2L-107.4 -718.5L-117.9 -715.9L-127.8 -712.5L-137.1 -708.2L-146.1 -702.8L-154.5 -696.7L-162.1 -689.9L-168.7 -682.6L-174.3 -674.7L-178.9 -666L-182.6 -656.9L-185.2 -647.6L-186.6 -638.3L-187.1 -629.2L-186.9 -619.8L-185.5 -610L-182 -600.1L-175.8 -590.4L-165.6 -581L-152.2 -572.1L-137.8 -563.7L-124.9 -556.3L-115.8 -550.3L-111.2 -546.2L-109.3 -543.7L-108.6 -541.9L-108.3 -539.1L-107.1 -535.3L-105.4 -531.8L-103.7 -528.5L-102.1 -525.3L-100.6 -522.1L-99.2 -518.9L-97.8 -515.8L-96.6 -512.7L-95.3 -509.6L-94.2 -506.6L-93.1 -503.5L-92.1 -500.6L-91.2 -497.6L-90.3 -494.7L-89.5 -491.8L-88.8 -489L-88.1 -486.2L-87.5 -483.4L-87 -480.6L-86.5 -477.9L-86.1 -475.3L-85.7 -472.7L-85.4 -470.1L-85.2 -467.5L-85 -465L-84.9 -462.4L-84.7 -459.9L-84.4 -457.7L-84.1 -456L-84.2 -454.3L-84.9 -452.1L-86 -449.6L-87.4 -447L-89.5 -443.7L-92.4 -438.9L-96.2 -432.3L-101.2 -423.4L-107.5 -412.7L-114.4 -400.5L-121.3 -387.6L-127.5 -374.4L-133.3 -360.6L-139.3 -345.9L-144.8 -330.7L-149.2 -315.5L-151.9 -300.9L-153 -286.8L-153.1 -272.9L-151.7 -259.4L-148.6 -246.5L-143.2 -234.8L-135.3 -224.6L-125.2 -215.9L-113.7 -208.6L-101.2 -202.4L-88 -197.1L-73.9 -192.9L-58.5 -189.8L-42.5 -187.7L-26.2 -186.3L-10.2 -185.5L6 -185.1L22.7 -185.1L39.6 -186.1L56.2 -188.3L71.8 -192.2L86.2 -197.9L99.8 -205L112.6 -213.3L124.5 -222.6L135.4 -232.6L146 -243.4L156.3 -255.2L165.6 -268L173.3 -281.3L178.5 -294.9L181.1 -309.2L181.7 -324.2L180.5 -339.3L177.5 -354L173 -367.9L166.3 -380.6L157.5 -392.5L147.3 -403.6L136.7 -414.1L126.2 -424.2L114.7 -434.3L102 -444L89.5 -453.1L78.8 -461.2ZM63.8 -461L58.9 -468L57.2 -474.4L57.4 -479.6L58.2 -483.3L58.1 -486.8L57 -491L55.9 -495.6L54.6 -500.2L53.3 -504.7L52 -509.3L50.5 -513.8L49 -518.4L47.5 -522.9L45.9 -527.4L44.2 -532L42.5 -536.5L40.7 -541L38.9 -545.5L37 -550L35 -554.4L33 -558.9L30.9 -563.4L28.8 -567.9L26.6 -572.4L24.4 -576.8L22.1 -581.3L19.7 -585.8L17.3 -590.2L14.9 -594.7L12.3 -599.3L9.4 -605L6.3 -611.7L3.4 -617.4L1.7 -620.1L7.7 -621.5L7.1 -617.5L6.2 -606.9L5.8 -594.7L6 -585.1L3.7 -586.7L-2.1 -586.7L1.6 -593.6L5.7 -603.6L9.2 -614L11.1 -622.9L11.2 -630.6L10.3 -638.9L8.4 -647.3L5.7 -655.4L2.1 -662.9L-2.4 -670.1L-8.1 -677.2L-14.6 -683.9L-21.7 -690.1L-29.3 -695.4L-37.5 -699.9L-46.6 -703.8L-56.2 -707L-66 -709.3L-75.6 -710.7L-85.4 -711.1L-95.5 -710.6L-105.6 -709.1L-115.3 -706.8L-124.2 -703.8L-132.7 -699.9L-140.9 -695L-148.6 -689.3L-155.4 -683.2L-161.2 -676.7L-166 -669.7L-170.1 -661.9L-173.4 -653.8L-175.6 -645.5L-176.8 -637.3L-177.3 -629.1L-177 -620.7L-175.5 -612.6L-172.5 -604.9L-167.6 -597.5L-158.9 -589.7L-146.5 -581.1L-132.6 -572.6L-119.6 -564.7L-109.9 -557.9L-104.3 -552.2L-101.5 -547.5L-100.6 -543.5L-100.3 -541L-99.4 -538.7L-97.8 -535.6L-96.1 -532.2L-94.5 -528.9L-93 -525.5L-91.6 -522.3L-90.2 -519L-88.9 -515.7L-87.7 -512.5L-86.5 -509.3L-85.4 -506.2L-84.4 -503.1L-83.4 -500L-82.5 -496.9L-81.7 -493.9L-80.9 -490.9L-80.2 -488L-79.5 -485L-79 -482.1L-78.5 -479.3L-78 -476.5L-77.6 -473.7L-77.3 -471L-77 -468.3L-76.8 -465.6L-76.6 -463.1L-76.3 -461L-75.9 -458.9L-75.7 -456.2L-75.9 -453L-76.7 -449.4L-78.1 -445.9L-79.7 -442.7L-81.8 -439.1L-84.4 -434.4L-87.8 -427.7L-92.6 -418.6L-98.4 -407.6L-104.7 -395.4L-110.9 -382.6L-116.5 -369.6L-122 -356L-127.6 -341.5L-132.8 -326.8L-137 -312.5L-139.6 -299.1L-140.8 -286.2L-141 -273.4L-139.9 -261.4L-137.2 -250.5L-132.8 -241.2L-126.3 -233.2L-117.8 -225.9L-107.6 -219.4L-96.1 -213.7L-84 -208.9L-70.9 -205.1L-56.5 -202.3L-41.2 -200.4L-25.4 -199.2L-9.8 -198.5L6.1 -198.1L22.4 -198.1L38.5 -198.9L54 -200.7L68.2 -203.8L81.6 -208.5L94.4 -214.7L106.6 -222L118.2 -230.3L129 -239.4L139.6 -249.5L149.7 -260.6L158.8 -272.5L166.2 -284.7L171.1 -297.1L173.6 -310L174 -323.9L172.4 -338L169.2 -351.7L164.6 -364.1L158.2 -375.3L149.7 -385.9L139.7 -396.1L129.1 -406.1L118.6 -415.8L107.5 -425.3L95 -434.6L82.6 -443.7L71.4 -452.3Z" fill="#111" fill-rule="evenodd"/><g transform="translate(-82 -630) rotate(9) scale(0.93)"><path d="M14 54.1C23.3 50.7 42 43.3 64 40C86 36.7 122.3 32.7 146 34C169.7 35.3 194.7 41.4 206 48.1C217.3 54.8 217.3 64.8 214 74.2C210.7 83.5 199.7 98.5 186 104.2C172.3 109.8 149.7 107 132 108C114.3 109 96.7 110.7 80 110C63.3 109.3 43.7 107 32 104C20.3 101 14.3 96.7 10 92C5.7 87.3 6.3 81.3 6 76C5.7 70.7 6.7 63.7 8 60C9.3 56.3 4.7 57.4 14 54.1Z" fill="#F7C05A"/><path d="M12 48.7L20.8 45.7L32.8 42.2L47.3 39.1L63.4 36.5L82.3 33.9L104 31.2L126.2 29.9L146.2 30.3L164.3 31.9L181.7 34.3L197 38L209 43.2L216.9 50.2L220.8 58.9L220.9 67.7L218.8 76L214.3 84.6L207.4 93.7L198.5 102.2L187.8 108.8L175 112.1L160.6 112.9L146 112.5L132.2 112.3L119 113L105.9 114.2L92.8 115.4L79.8 116L66.6 115.6L53.3 114.2L41 112.1L30.6 109.6L22.3 106.6L15.6 103.2L10.4 99.5L6.1 95.3L3.1 90.3L1.9 85.1L1.5 80.4L1.3 76.1L1.3 71.6L1.8 66.8L2.6 62.3L3.5 59.1L3.6 58L4 54.8L7.4 51.8ZM16 59.4L24.5 56.1L35.7 51.8L49.2 47.2L64.6 43.5L83.2 41.1L104.7 39.3L126.4 37.9L145.8 37.7L163.2 39.8L179.5 43.8L193.3 48.5L203 53L208.1 57.2L210.2 61.4L210.6 66.6L209.2 72.4L206 79.5L200.4 87.5L192.8 94.7L184.2 99.6L173.6 102L160.4 102.8L145.9 103.1L131.8 103.7L118.5 104.6L105.4 105L92.6 104.8L80.2 104L67.6 102.8L54.9 101.5L43.1 100.1L33.4 98.4L26.2 96.4L20.9 94L16.9 91.4L13.9 88.7L12.1 86.3L11.1 83.4L10.8 79.8L10.7 75.9L10.6 72L11 68L11.6 64.3L12.5 60.9L12.7 58L12 59L11.2 59.9Z" fill="#111" fill-rule="evenodd"/><path d="M30 78C84 87 148 85 198 70" fill="none" stroke="#111" stroke-width="5" stroke-linecap="round"/><g transform="translate(0 -4) scale(1.12)"><path d="M-62 -22C0 -30 70 -32 150 -20C158 -10 150 22 118 36C84 48 60 30 52 6C40 12 20 12 6 8C-4 30 -28 46 -54 30C-70 16 -72 -8 -62 -22Z" fill="#111"/><path d="M-40 -12C-30 -16 -16 -14 -8 -10M72 -10C84 -14 100 -14 112 -10" stroke="#fff" stroke-width="4" stroke-linecap="round" fill="none" opacity="0.55"/></g><g transform="rotate(-11.7)"><path d="M-100 -26C-110.7 -28.7 -111.7 -56 -108 -72C-104.3 -88 -91.3 -110.2 -78 -122C-64.7 -133.8 -44.3 -139 -28 -143C-11.7 -147 3.7 -147.2 20 -146C36.3 -144.8 55.3 -143.3 70 -136C84.7 -128.7 101 -114.3 108 -102C115 -89.7 119.3 -68 112 -62C104.7 -56 81.3 -65.7 64 -66C46.7 -66.3 26 -65.7 8 -64C-10 -62.3 -26 -62.3 -44 -56C-62 -49.7 -89.3 -23.3 -100 -26Z" fill="#FBF8F0"/><path d="M-100.9 -21.4L-109.9 -30.2L-113.2 -43.5L-113.9 -58.6L-112.4 -73L-108 -86.8L-100.7 -101L-91.4 -114.3L-81 -125.4L-69.2 -133.9L-56.1 -140.5L-42.5 -145.4L-29.4 -149.2L-16.8 -151.6L-4.3 -152.4L8 -152L20.3 -150.8L33.1 -149.3L46.3 -147.3L59.5 -144.4L71.9 -139.9L83.7 -133L94.9 -124.2L104.5 -114.3L111.6 -104L116.4 -92.6L119.4 -80.1L119.9 -68.2L115.3 -57.7L104 -54L90.6 -55L76.7 -57.3L63.6 -58.7L50.5 -59L36.5 -59.3L22.3 -59.1L8.4 -58.4L-4.7 -57.3L-17.3 -56.1L-29.6 -54L-41.9 -50.8L-56.2 -43.9L-72.3 -33.8L-87.4 -24.6ZM-99.1 -30.6L-102.6 -33.9L-105.5 -44.5L-105.7 -58.2L-103.6 -71L-99.3 -83L-92.6 -96.2L-84.2 -108.6L-75 -118.6L-64.5 -125.5L-52.2 -130.4L-39.2 -134L-26.6 -136.8L-15 -139.1L-3.7 -140.5L7.8 -141.2L19.7 -141.2L32.2 -140.7L44.9 -139.3L57.1 -136.6L68.1 -132.1L78.6 -125.6L88.9 -117.5L97.9 -108.7L104.4 -100L108.8 -90.1L111.4 -79.1L111 -69.9L108.7 -66.3L103.7 -66.1L92.9 -68.2L78.9 -71.5L64.4 -73.3L50.4 -73.1L36 -72.2L21.5 -71L7.6 -69.6L-5.7 -68.5L-18.7 -67.4L-32.1 -65.3L-46.1 -61.2L-61.5 -52.7L-77.2 -41.4L-91.2 -32.8Z" fill="#111" fill-rule="evenodd"/><path d="M-100 -26C-107.7 -31.7 -127 -34.7 -140 -34C-153 -33.3 -168.7 -29.7 -178 -22C-187.3 -14.3 -199 4.7 -196 12C-193 19.3 -172.3 21.7 -160 22C-147.7 22.3 -133 17.7 -122 14C-111 10.3 -97.7 6.7 -94 0C-90.3 -6.7 -92.3 -20.3 -100 -26Z" fill="#FBF8F0"/><path d="M-97.6 -29.1L-106.2 -33.9L-117 -37.7L-128.9 -39.5L-140.2 -38.9L-150.8 -36.9L-161.5 -34.3L-171.8 -30.7L-180.6 -25.1L-188 -16.7L-194.7 -6.6L-200 3.6L-201.1 14.1L-193.8 22.3L-182.9 25.8L-171 26.9L-160 27.3L-149.7 26.8L-139.3 24.7L-129.5 21.3L-120.7 17.9L-112.1 15.1L-103.3 12.5L-95.1 9L-89.1 2.8L-87 -5.6L-87.8 -14.4L-91.2 -22.9ZM-102.4 -22.9L-109.1 -25.5L-119 -27L-129.8 -28.2L-139.8 -29.1L-149.4 -28.9L-159.3 -26.9L-168.1 -23.3L-175.4 -18.9L-182.4 -12.3L-188.5 -3.2L-191.5 5.8L-190.9 9.9L-187.9 10.9L-180.1 13.5L-169.8 15.8L-160 16.7L-151.1 16.1L-141.7 14.3L-132.2 12.4L-123.3 10.1L-114.9 7.3L-107.2 3.7L-101.6 0L-98.9 -2.8L-97.7 -6.6L-97.7 -12.3L-99.4 -18.1Z" fill="#111" fill-rule="evenodd"/><path d="M-8 -118L38 -118L-8 -78L40 -78" fill="none" stroke="#111" stroke-width="10" stroke-linecap="round" stroke-linejoin="round"/></g></g></g></g><g id="fx"></g></svg>