<svg xmlns="http://www.w3.org/2000/svg" viewBox="0 0 1920 1080" width="1920" height="1080" preserveAspectRatio="xMidYMax slice"><title>ZaruTech duck opening, frame 49/180</title><g id="cover"><defs><clipPath id="cp"><path d="M-300 -300H2220L2220 1500C2213.3 1500 2193.3 1500 2180 1500C2166.7 1500 2153.3 1500 2140 1500C2126.7 1500 2113.3 1500 2100 1500C2086.7 1500 2073.3 1500 2060 1500C2046.7 1500 2033.3 1500 2020 1500C2006.7 1500 1993.3 1500 1980 1500C1966.7 1500 1953.3 1500 1940 1500C1926.7 1500 1913.3 1500 1900 1500C1886.7 1500 1873.3 1500 1860 1500C1846.7 1500 1833.3 1500 1820 1500C1806.7 1500 1793.3 1500 1780 1500C1766.7 1500 1753.3 1500 1740 1500C1726.7 1500 1713.3 1500 1700 1500C1686.7 1500 1673.3 1500 1660 1500C1646.7 1500 1633.3 1500 1620 1500C1606.7 1500 1593.3 1500 1580 1500C1566.7 1500 1553.3 1500 1540 1500C1526.7 1500 1513.3 1500 1500 1500C1486.7 1500 1473.3 1500 1460 1500C1446.7 1500 1433.3 1500 1420 1500C1406.7 1500 1393.3 1500 1380 1500C1366.7 1500 1353.3 1500 1340 1500C1326.7 1500 1313.3 1500 1300 1500C1286.7 1500 1273.3 1500 1260 1500C1246.7 1500 1233.3 1500 1220 1500C1206.7 1500 1193.3 1500 1180 1500C1166.7 1500 1153.3 1500 1140 1500C1126.7 1500 1113.3 1500 1100 1500C1086.7 1500 1073.3 1500 1060 1500C1046.7 1500 1033.3 1500 1020 1500C1006.7 1500 993.3 1500 980 1500C966.7 1500 953.3 1500 940 1500C926.7 1500 913.3 1500 900 1500C886.7 1500 873.3 1500 860 1500C846.7 1500 833.3 1500 820 1500C806.7 1500 793.3 1500 780 1500C766.7 1500 753.3 1500 740 1500C726.7 1500 713.3 1500 700 1500C686.7 1500 673.3 1500 660 1500C646.7 1500 633.3 1500 620 1500C606.7 1500 593.3 1500 580 1500C566.7 1500 553.3 1500 540 1500C526.7 1500 513.3 1500 500 1500C486.7 1500 473.3 1500 460 1500C446.7 1500 433.3 1500 420 1500C406.7 1500 393.3 1500 380 1500C366.7 1500 353.3 1500 340 1500C326.7 1500 313.3 1500 300 1500C286.7 1500 273.3 1500 260 1500C246.7 1500 233.3 1500 220 1500C206.7 1500 193.3 1500 180 1500C166.7 1500 153.3 1500 140 1500C126.7 1500 113.3 1500 100 1500C86.7 1500 73.3 1500 60 1500C46.7 1500 33.3 1500 20 1500C6.7 1500 -6.7 1500 -20 1500C-33.3 1500 -46.7 1500 -60 1500C-73.3 1500 -86.7 1500 -100 1500C-113.3 1500 -126.7 1500 -140 1500C-153.3 1500 -166.7 1500 -180 1500C-193.3 1500 -206.7 1500 -220 1500C-233.3 1500 -246.7 1500 -260 1500C-273.3 1500 -293.3 1500 -300 1500Z"/></clipPath><radialGradient id="stain"><stop offset="0" stop-color="#8c8574" stop-opacity="0.10"/><stop offset="1" stop-color="#8c8574" stop-opacity="0"/></radialGradient></defs><path d="M-300 -300H2220L2220 1500C2213.3 1500 2193.3 1500 2180 1500C2166.7 1500 2153.3 1500 2140 1500C2126.7 1500 2113.3 1500 2100 1500C2086.7 1500 2073.3 1500 2060 1500C2046.7 1500 2033.3 1500 2020 1500C2006.7 1500 1993.3 1500 1980 1500C1966.7 1500 1953.3 1500 1940 1500C1926.7 1500 1913.3 1500 1900 1500C1886.7 1500 1873.3 1500 1860 1500C1846.7 1500 1833.3 1500 1820 1500C1806.7 1500 1793.3 1500 1780 1500C1766.7 1500 1753.3 1500 1740 1500C1726.7 1500 1713.3 1500 1700 1500C1686.7 1500 1673.3 1500 1660 1500C1646.7 1500 1633.3 1500 1620 1500C1606.7 1500 1593.3 1500 1580 1500C1566.7 1500 1553.3 1500 1540 1500C1526.7 1500 1513.3 1500 1500 1500C1486.7 1500 1473.3 1500 1460 1500C1446.7 1500 1433.3 1500 1420 1500C1406.7 1500 1393.3 1500 1380 1500C1366.7 1500 1353.3 1500 1340 1500C1326.7 1500 1313.3 1500 1300 1500C1286.7 1500 1273.3 1500 1260 1500C1246.7 1500 1233.3 1500 1220 1500C1206.7 1500 1193.3 1500 1180 1500C1166.7 1500 1153.3 1500 1140 1500C1126.7 1500 1113.3 1500 1100 1500C1086.7 1500 1073.3 1500 1060 1500C1046.7 1500 1033.3 1500 1020 1500C1006.7 1500 993.3 1500 980 1500C966.7 1500 953.3 1500 940 1500C926.7 1500 913.3 1500 900 1500C886.7 1500 873.3 1500 860 1500C846.7 1500 833.3 1500 820 1500C806.7 1500 793.3 1500 780 1500C766.7 1500 753.3 1500 740 1500C726.7 1500 713.3 1500 700 1500C686.7 1500 673.3 1500 660 1500C646.7 1500 633.3 1500 620 1500C606.7 1500 593.3 1500 580 1500C566.7 1500 553.3 1500 540 1500C526.7 1500 513.3 1500 500 1500C486.7 1500 473.3 1500 460 1500C446.7 1500 433.3 1500 420 1500C406.7 1500 393.3 1500 380 1500C366.7 1500 353.3 1500 340 1500C326.7 1500 313.3 1500 300 1500C286.7 1500 273.3 1500 260 1500C246.7 1500 233.3 1500 220 1500C206.7 1500 193.3 1500 180 1500C166.7 1500 153.3 1500 140 1500C126.7 1500 113.3 1500 100 1500C86.7 1500 73.3 1500 60 1500C46.7 1500 33.3 1500 20 1500C6.7 1500 -6.7 1500 -20 1500C-33.3 1500 -46.7 1500 -60 1500C-73.3 1500 -86.7 1500 -100 1500C-113.3 1500 -126.7 1500 -140 1500C-153.3 1500 -166.7 1500 -180 1500C-193.3 1500 -206.7 1500 -220 1500C-233.3 1500 -246.7 1500 -260 1500C-273.3 1500 -293.3 1500 -300 1500Z" fill="#EFEADF"/><g clip-path="url(#cp)"><ellipse cx="560" cy="360" rx="520" ry="300" fill="url(#stain)" opacity="1"/><ellipse cx="1380" cy="460" rx="560" ry="320" fill="url(#stain)" opacity="0.8"/><ellipse cx="980" cy="880" rx="640" ry="240" fill="url(#stain)" opacity="0.5"/><path d="M18 30L150 130" stroke="#111" stroke-width="3" stroke-linecap="round" opacity="0.55"/><path d="M18 80L110 160" stroke="#111" stroke-width="2.5" stroke-linecap="round" opacity="0.55"/><path d="M60 22L200 70" stroke="#111" stroke-width="2.5" stroke-linecap="round" opacity="0.55"/><path d="M1902 30L1770 130" stroke="#111" stroke-width="3" stroke-linecap="round" opacity="0.55"/><path d="M1902 80L1810 160" stroke="#111" stroke-width="2.5" stroke-linecap="round" opacity="0.55"/><path d="M1860 22L1720 70" stroke="#111" stroke-width="2.5" stroke-linecap="round" opacity="0.55"/><path d="M16 1050L150 960" stroke="#111" stroke-width="3" stroke-linecap="round" opacity="0.55"/><path d="M16 1000L100 940" stroke="#111" stroke-width="2.5" stroke-linecap="round" opacity="0.55"/><path d="M1904 1050L1770 960" stroke="#111" stroke-width="3" stroke-linecap="round" opacity="0.55"/><path d="M1904 1000L1820 940" stroke="#111" stroke-width="2.5" stroke-linecap="round" opacity="0.55"/></g><path d="M-300 1500C-293.3 1500 -273.3 1500 -260 1500C-246.7 1500 -233.3 1500 -220 1500C-206.7 1500 -193.3 1500 -180 1500C-166.7 1500 -153.3 1500 -140 1500C-126.7 1500 -113.3 1500 -100 1500C-86.7 1500 -73.3 1500 -60 1500C-46.7 1500 -33.3 1500 -20 1500C-6.7 1500 6.7 1500 20 1500C33.3 1500 46.7 1500 60 1500C73.3 1500 86.7 1500 100 1500C113.3 1500 126.7 1500 140 1500C153.3 1500 166.7 1500 180 1500C193.3 1500 206.7 1500 220 1500C233.3 1500 246.7 1500 260 1500C273.3 1500 286.7 1500 300 1500C313.3 1500 326.7 1500 340 1500C353.3 1500 366.7 1500 380 1500C393.3 1500 406.7 1500 420 1500C433.3 1500 446.7 1500 460 1500C473.3 1500 486.7 1500 500 1500C513.3 1500 526.7 1500 540 1500C553.3 1500 566.7 1500 580 1500C593.3 1500 606.7 1500 620 1500C633.3 1500 646.7 1500 660 1500C673.3 1500 686.7 1500 700 1500C713.3 1500 726.7 1500 740 1500C753.3 1500 766.7 1500 780 1500C793.3 1500 806.7 1500 820 1500C833.3 1500 846.7 1500 860 1500C873.3 1500 886.7 1500 900 1500C913.3 1500 926.7 1500 940 1500C953.3 1500 966.7 1500 980 1500C993.3 1500 1006.7 1500 1020 1500C1033.3 1500 1046.7 1500 1060 1500C1073.3 1500 1086.7 1500 1100 1500C1113.3 1500 1126.7 1500 1140 1500C1153.3 1500 1166.7 1500 1180 1500C1193.3 1500 1206.7 1500 1220 1500C1233.3 1500 1246.7 1500 1260 1500C1273.3 1500 1286.7 1500 1300 1500C1313.3 1500 1326.7 1500 1340 1500C1353.3 1500 1366.7 1500 1380 1500C1393.3 1500 1406.7 1500 1420 1500C1433.3 1500 1446.7 1500 1460 1500C1473.3 1500 1486.7 1500 1500 1500C1513.3 1500 1526.7 1500 1540 1500C1553.3 1500 1566.7 1500 1580 1500C1593.3 1500 1606.7 1500 1620 1500C1633.3 1500 1646.7 1500 1660 1500C1673.3 1500 1686.7 1500 1700 1500C1713.3 1500 1726.7 1500 1740 1500C1753.3 1500 1766.7 1500 1780 1500C1793.3 1500 1806.7 1500 1820 1500C1833.3 1500 1846.7 1500 1860 1500C1873.3 1500 1886.7 1500 1900 1500C1913.3 1500 1926.7 1500 1940 1500C1953.3 1500 1966.7 1500 1980 1500C1993.3 1500 2006.7 1500 2020 1500C2033.3 1500 2046.7 1500 2060 1500C2073.3 1500 2086.7 1500 2100 1500C2113.3 1500 2126.7 1500 2140 1500C2153.3 1500 2166.7 1500 2180 1500C2193.3 1500 2213.3 1500 2220 1500" fill="none" stroke="#D8D1C0" stroke-width="26" stroke-linecap="round" transform="translate(0 -13)" opacity="0.7"/><path d="M-300 1497L-282.5 1497.1L-260 1497.2L-240 1497.2L-220 1497.3L-200 1497.3L-180 1497.3L-160 1497.2L-140 1497.2L-120 1497.2L-100 1497.2L-80 1497.1L-60 1497.1L-40 1497.1L-20 1497.2L0 1497.2L20 1497.3L40 1497.3L60 1497.4L80 1497.5L100 1497.6L120 1497.7L140 1497.7L160 1497.8L180 1497.8L200 1497.8L220 1497.8L240 1497.8L260 1497.7L280 1497.6L300 1497.5L320 1497.3L340 1497.2L360 1497L380 1496.9L400 1496.7L420 1496.6L440 1496.5L460 1496.4L480 1496.3L500 1496.3L520 1496.3L540 1496.3L560 1496.4L580 1496.4L600 1496.5L620 1496.6L640 1496.7L660 1496.8L680 1496.8L700 1496.9L720 1496.9L740 1496.9L760 1497L780 1497L800 1496.9L820 1496.9L840 1496.9L860 1496.9L880 1496.8L900 1496.8L920 1496.8L940 1496.8L960 1496.9L980 1496.9L1000 1497L1020 1497.1L1040 1497.2L1060 1497.4L1080 1497.5L1100 1497.6L1120 1497.7L1140 1497.8L1160 1497.9L1180 1497.9L1200 1498L1220 1498L1240 1497.9L1260 1497.9L1280 1497.8L1300 1497.7L1320 1497.5L1340 1497.4L1360 1497.3L1380 1497.1L1400 1497L1420 1496.9L1440 1496.8L1460 1496.7L1480 1496.6L1500 1496.6L1520 1496.6L1540 1496.6L1560 1496.6L1580 1496.7L1600 1496.7L1620 1496.7L1640 1496.8L1660 1496.8L1680 1496.8L1700 1496.9L1720 1496.8L1740 1496.8L1760 1496.8L1780 1496.7L1800 1496.7L1820 1496.6L1840 1496.6L1860 1496.5L1880 1496.5L1900 1496.5L1920 1496.5L1940 1496.5L1960 1496.6L1980 1496.7L2000 1496.8L2020 1496.9L2040 1497L2060 1497.2L2080 1497.3L2100 1497.4L2120 1497.6L2140 1497.7L2160 1497.8L2180 1497.9L2202.5 1497.9L2220 1497.9L2220 1502.1L2202.5 1502.1L2180 1502.1L2160 1502.2L2140 1502.3L2120 1502.4L2100 1502.6L2080 1502.7L2060 1502.8L2040 1503L2020 1503.1L2000 1503.2L1980 1503.3L1960 1503.4L1940 1503.5L1920 1503.5L1900 1503.5L1880 1503.5L1860 1503.5L1840 1503.4L1820 1503.4L1800 1503.3L1780 1503.3L1760 1503.2L1740 1503.2L1720 1503.2L1700 1503.1L1680 1503.2L1660 1503.2L1640 1503.2L1620 1503.3L1600 1503.3L1580 1503.3L1560 1503.4L1540 1503.4L1520 1503.4L1500 1503.4L1480 1503.4L1460 1503.3L1440 1503.2L1420 1503.1L1400 1503L1380 1502.9L1360 1502.7L1340 1502.6L1320 1502.5L1300 1502.3L1280 1502.2L1260 1502.1L1240 1502.1L1220 1502L1200 1502L1180 1502.1L1160 1502.1L1140 1502.2L1120 1502.3L1100 1502.4L1080 1502.5L1060 1502.6L1040 1502.8L1020 1502.9L1000 1503L980 1503.1L960 1503.1L940 1503.2L920 1503.2L900 1503.2L880 1503.2L860 1503.1L840 1503.1L820 1503.1L800 1503.1L780 1503L760 1503L740 1503.1L720 1503.1L700 1503.1L680 1503.2L660 1503.2L640 1503.3L620 1503.4L600 1503.5L580 1503.6L560 1503.6L540 1503.7L520 1503.7L500 1503.7L480 1503.7L460 1503.6L440 1503.5L420 1503.4L400 1503.3L380 1503.1L360 1503L340 1502.8L320 1502.7L300 1502.5L280 1502.4L260 1502.3L240 1502.2L220 1502.2L200 1502.2L180 1502.2L160 1502.2L140 1502.3L120 1502.3L100 1502.4L80 1502.5L60 1502.6L40 1502.7L20 1502.7L0 1502.8L-20 1502.8L-40 1502.9L-60 1502.9L-80 1502.9L-100 1502.8L-120 1502.8L-140 1502.8L-160 1502.8L-180 1502.7L-200 1502.7L-220 1502.7L-240 1502.8L-260 1502.8L-282.5 1502.9L-300 1503Z" fill="#111"/><path d="M14 16.9L23.9 16.1L37.9 14.8L52 13.5L64.6 13.4L77.3 13.3L89.9 13.2L102.6 13.1L115.3 12.8L127.9 12.6L140.6 12.3L153.2 12L165.9 11.7L178.6 11.3L191.2 11L203.9 10.6L216.6 10.2L229.2 9.8L241.9 9.4L254.6 9.1L267.3 8.7L279.9 8.4L292.6 8.2L305.3 8L318 7.8L330.7 7.8L343.3 7.7L356 7.8L368.7 7.9L381.4 8.1L394.1 8.4L406.7 8.7L419.4 9.1L432.1 9.5L444.8 10L457.4 10.5L470.1 11L482.8 11.5L495.4 12.1L508.1 12.6L520.7 13.1L533.4 13.6L546.1 14L558.7 14.3L571.4 14.6L584 14.8L596.7 15L609.3 15L622 15L634.7 14.9L647.3 14.7L660 14.5L672.6 14.1L685.3 13.8L697.9 13.3L710.6 12.9L723.2 12.4L735.9 11.8L748.6 11.3L761.2 10.8L773.9 10.3L786.5 9.8L799.2 9.4L811.9 8.9L824.6 8.6L837.2 8.3L849.9 8L862.6 7.8L875.3 7.7L888 7.6L900.7 7.6L913.3 7.6L926 7.7L938.7 7.8L951.4 8L964.1 8.2L976.7 8.5L989.4 8.8L1002.1 9.1L1014.8 9.5L1027.4 9.9L1040.1 10.3L1052.8 10.7L1065.5 11.1L1078.1 11.5L1090.8 11.9L1103.4 12.3L1116.1 12.7L1128.7 13L1141.4 13.4L1154 13.6L1166.7 13.9L1179.4 14.1L1192 14.2L1204.7 14.3L1217.3 14.4L1230 14.4L1242.6 14.3L1255.3 14.1L1267.9 13.9L1280.6 13.7L1293.3 13.4L1305.9 13L1318.6 12.6L1331.3 12.2L1343.9 11.7L1356.6 11.2L1369.3 10.7L1381.9 10.3L1394.6 9.8L1407.3 9.4L1419.9 9L1432.6 8.6L1445.3 8.3L1458 8.1L1470.7 7.9L1483.3 7.8L1496 7.8L1508.7 7.9L1521.4 8L1534.1 8.2L1546.7 8.5L1559.4 8.8L1572.1 9.1L1584.8 9.6L1597.4 10L1610.1 10.5L1622.8 10.9L1635.4 11.4L1648.1 11.8L1660.8 12.3L1673.4 12.6L1686.1 13L1698.7 13.3L1711.4 13.5L1724 13.7L1736.7 13.8L1749.4 13.8L1762 13.8L1774.7 13.7L1787.3 13.6L1800 13.4L1812.6 13.1L1825.3 12.9L1837.9 12.5L1852 13.5L1866.1 14.5L1876 15.1L1876 15.1L1866.2 16.4L1852.1 18.2L1838.1 19.9L1825.4 20.2L1812.7 20.4L1800 20.6L1787.4 20.6L1774.7 20.7L1762 20.6L1749.3 20.5L1736.6 20.3L1724 20.1L1711.3 19.8L1698.6 19.5L1685.9 19.1L1673.2 18.7L1660.6 18.3L1647.9 17.9L1635.2 17.5L1622.6 17.1L1609.9 16.6L1597.2 16.2L1584.6 15.8L1571.9 15.5L1559.2 15.1L1546.6 14.8L1533.9 14.5L1521.3 14.3L1508.6 14.1L1496 13.9L1483.3 13.8L1470.7 13.7L1458 13.7L1445.4 13.7L1432.7 13.8L1420.1 14L1407.4 14.2L1394.7 14.4L1382.1 14.7L1369.4 15L1356.7 15.4L1344.1 15.8L1331.4 16.2L1318.7 16.7L1306.1 17.1L1293.4 17.6L1280.7 18.1L1268.1 18.5L1255.4 18.9L1242.7 19.2L1230 19.6L1217.4 19.8L1204.7 20L1192 20.2L1179.3 20.2L1166.6 20.2L1154 20.1L1141.3 20L1128.6 19.8L1115.9 19.5L1103.2 19.1L1090.6 18.7L1077.9 18.3L1065.2 17.9L1052.5 17.4L1039.9 16.9L1027.2 16.4L1014.6 16L1001.9 15.5L989.2 15.2L976.6 14.8L963.9 14.5L951.3 14.3L938.6 14.1L926 14L913.3 14L900.7 14.1L888 14.2L875.4 14.4L862.7 14.6L850.1 14.9L837.4 15.2L824.8 15.6L812.1 15.9L799.4 16.3L786.8 16.7L774.1 17.1L761.5 17.5L748.8 17.9L736.1 18.2L723.4 18.5L710.8 18.8L698.1 19L685.4 19.2L672.7 19.3L660 19.4L647.4 19.4L634.7 19.4L622 19.4L609.3 19.3L596.6 19.1L584 19L571.3 18.8L558.6 18.5L545.9 18.2L533.3 18L520.6 17.6L507.9 17.3L495.2 17L482.6 16.6L469.9 16.3L457.2 15.9L444.6 15.6L431.9 15.3L419.3 15L406.6 14.7L393.9 14.4L381.3 14.2L368.6 14.1L356 13.9L343.3 13.9L330.7 13.9L318 13.9L305.4 14L292.7 14.2L280.1 14.4L267.4 14.7L254.7 15L242.1 15.4L229.4 15.8L216.8 16.3L204.1 16.8L191.4 17.3L178.8 17.8L166.1 18.3L153.4 18.8L140.8 19.3L128.1 19.7L115.4 20.1L102.7 20.4L90.1 20.6L77.4 20.8L64.7 20.9L52 20.9L37.9 19.5L23.8 18L14 16.9Z" fill="#111"/><path d="M16.8 14L18.3 23.3L20.1 36.7L20 50L19.8 62L19.6 74L19.4 86.1L19.1 98.1L18.8 110.1L18.5 122.1L18.1 134.1L17.7 146.1L17.2 158.1L16.7 170.1L16.1 182.1L15.6 194.1L15.1 206.1L14.5 218.1L14.1 230.1L13.7 242L13.4 254L13.2 266L13.2 278L13.3 290L13.5 302L13.8 314L14.2 325.9L14.7 337.9L15.2 349.9L15.8 361.9L16.3 373.9L16.8 385.9L17.3 397.9L17.8 409.9L18.2 421.9L18.5 433.9L18.8 445.9L19.1 457.9L19.4 469.9L19.6 481.9L19.8 493.9L20 506L20.1 518L20.2 530L20.2 542L20.1 554L19.9 566.1L19.6 578.1L19.3 590.1L18.8 602.1L18.2 614.1L17.6 626.1L17 638.1L16.4 650.1L15.7 662.1L15.2 674.1L14.6 686.1L14.2 698.1L13.9 710.1L13.7 722L13.6 734L13.6 746L13.7 758L13.9 770L14.1 782L14.3 794L14.6 805.9L14.9 817.9L15.2 829.9L15.6 841.9L15.9 853.9L16.3 865.9L16.7 877.9L17.1 889.9L17.6 901.9L18.1 913.9L18.6 925.9L19 937.9L19.5 949.9L19.9 961.9L20.2 973.9L20.4 986L20.5 998L20.5 1010L20.4 1022L20.2 1034.2L19.8 1046.3L19.4 1058.1L18.7 1070.2L16.7 1081.9L15.5 1090L15.5 1090L14.8 1081.8L13.6 1070.1L13.5 1057.9L13.5 1046.2L13.6 1034.1L13.5 1022L13.5 1010L13.4 998L13.3 986L13.1 974.1L13 962.1L12.8 950.1L12.5 938.1L12.2 926.1L11.8 914.1L11.4 902.1L10.9 890.1L10.4 878.1L9.9 866.1L9.4 854.1L8.9 842.1L8.6 830.1L8.3 818.1L8.1 806.1L8 794L8 782L8.1 770L8.4 758L8.7 746L9 734L9.4 722L9.8 709.9L10.1 697.9L10.5 685.9L10.9 673.9L11.2 661.9L11.5 649.9L11.8 637.9L12.1 625.9L12.3 613.9L12.6 601.9L12.9 589.9L13.1 577.9L13.4 565.9L13.6 554L13.7 542L13.8 530L13.9 518L13.8 506L13.6 494.1L13.4 482.1L13 470.1L12.6 458.1L12.1 446.1L11.6 434.1L11 422.1L10.5 410.1L10 398.1L9.6 386.1L9.3 374.1L9 362.1L8.8 350.1L8.7 338.1L8.6 326.1L8.6 314L8.7 302L8.7 290L8.8 278L9 266L9.1 254L9.3 242L9.4 229.9L9.6 217.9L9.9 205.9L10.2 193.9L10.5 181.9L10.9 169.9L11.3 157.9L11.8 145.9L12.2 133.9L12.7 121.9L13.1 109.9L13.5 97.9L13.7 85.9L13.9 74L14 62L14 50L13.8 36.7L15.4 23.3L16.8 14Z" fill="#111"/><path d="M1908.5 14L1909.6 23.4L1911 36.8L1910.4 50.1L1909.9 62.1L1909.4 74.1L1908.9 86.1L1908.5 98.1L1908 110.1L1907.6 122.1L1907.2 134.1L1906.9 146.1L1906.6 158.1L1906.3 170.1L1906 182L1905.8 194L1905.6 206L1905.5 218L1905.4 230L1905.5 242L1905.7 254L1905.9 265.9L1906.3 277.9L1906.8 289.9L1907.4 301.9L1908 313.9L1908.7 325.9L1909.3 337.9L1910 349.9L1910.6 361.9L1911.2 373.9L1911.6 385.9L1912 397.9L1912.2 409.9L1912.4 422L1912.4 434L1912.4 446L1912.3 458L1912.1 470L1911.9 482L1911.6 494.1L1911.4 506.1L1911.1 518.1L1910.7 530.1L1910.3 542.1L1909.9 554.1L1909.5 566.1L1909 578.1L1908.5 590.1L1907.9 602.1L1907.4 614.1L1906.8 626.1L1906.3 638.1L1905.9 650L1905.5 662L1905.2 674L1905.1 686L1905 698L1905.2 710L1905.4 722L1905.7 734L1906.2 745.9L1906.7 757.9L1907.3 769.9L1907.8 781.9L1908.4 793.9L1909 805.9L1909.5 817.9L1910 829.9L1910.4 841.9L1910.8 853.9L1911.1 865.9L1911.4 877.9L1911.7 889.9L1911.9 902L1912 914L1912.2 926L1912.3 938L1912.3 950L1912.2 962L1912.1 974.1L1911.9 986.1L1911.6 998.1L1911.2 1010.1L1910.7 1022.1L1910.1 1034.3L1909.5 1046.4L1908.8 1058.1L1907.9 1070.2L1905.9 1081.9L1904.7 1090L1904.7 1090L1904 1081.8L1902.9 1070.1L1902.9 1057.9L1903.2 1046.2L1903.5 1034L1903.8 1021.9L1904.1 1009.9L1904.4 997.9L1904.8 985.9L1905.1 973.9L1905.3 962L1905.6 950L1905.7 938L1905.8 926L1905.8 914L1905.6 902L1905.4 890.1L1905.1 878.1L1904.7 866.1L1904.3 854.1L1903.8 842.1L1903.3 830.1L1902.9 818.1L1902.5 806.1L1902.1 794.1L1901.8 782.1L1901.6 770.1L1901.4 758.1L1901.2 746.1L1901.1 734L1901.1 722L1901 710L1901 698L1901 686L1900.9 674L1901 662L1901 650L1901.1 637.9L1901.2 625.9L1901.5 613.9L1901.7 601.9L1902.1 589.9L1902.5 577.9L1902.9 565.9L1903.4 553.9L1903.9 541.9L1904.3 529.9L1904.8 517.9L1905.1 505.9L1905.4 493.9L1905.6 482L1905.7 470L1905.7 458L1905.6 446L1905.5 434L1905.2 422L1905 410.1L1904.7 398.1L1904.4 386.1L1904.1 374.1L1903.8 362.1L1903.6 350.1L1903.3 338.1L1903.1 326.1L1902.8 314.1L1902.5 302.1L1902.3 290.1L1902 278.1L1901.7 266.1L1901.4 254L1901.1 242L1900.8 230L1900.6 218L1900.4 206L1900.4 194L1900.4 182L1900.5 169.9L1900.7 157.9L1901 145.9L1901.4 133.9L1901.8 121.9L1902.3 109.9L1902.8 97.9L1903.2 85.9L1903.7 73.9L1904.1 61.9L1904.4 49.9L1904.6 36.6L1906.7 23.3L1908.5 14Z" fill="#111"/></g><g id="duck" stroke-linejoin="round" stroke-linecap="round"><ellipse cx="960" cy="1046" rx="235.8" ry="21.1" fill="#000" opacity="0.1"/><path d="M917.1 904.8Q883.5 962.7 863.9 1016.6" stroke="#fff" stroke-opacity="0.4" stroke-width="25.3" stroke-linecap="round" fill="none"/><path d="M917.1 904.8Q883.5 962.7 863.9 1016.6" stroke="#111" stroke-width="8.4" stroke-linecap="round" fill="none"/><path d="M1013.4 894.5Q1050.2 957.6 1073 1016.6" stroke="#fff" stroke-opacity="0.4" stroke-width="25.3" stroke-linecap="round" fill="none"/><path d="M1013.4 894.5Q1050.2 957.6 1073 1016.6" stroke="#111" stroke-width="8.4" stroke-linecap="round" fill="none"/><path transform="translate(863.9 1020.6) rotate(-11.2) scale(-1.126 1.126)" d="M-20 -6C-2-18 34-24 74-20L98-10L82-4L98 6L74 10L84 20C56 26 18 24-10 15C-22 9-24 0-20-6Z" fill="#F7C05A" stroke="#111" stroke-width="10.2" stroke-linejoin="round"/><path transform="translate(1073 1020.6) rotate(11.2) scale(1.126 1.126)" d="M-20 -6C-2-18 34-24 74-20L98-10L82-4L98 6L74 10L84 20C56 26 18 24-10 15C-22 9-24 0-20-6Z" fill="#F7C05A" stroke="#111" stroke-width="10.2" stroke-linejoin="round"/><g transform="translate(960 1040) scale(0.88) translate(0 45) translate(0 -190) rotate(-4) scale(1 1) translate(0 190)"><path d="M113.5 -398.2C117 -386.3 133.9 -393.2 143.3 -390.2C152.8 -387.2 161.6 -383.7 170.2 -380.1C178.7 -376.5 186.8 -372.5 194.7 -368.4C202.6 -364.2 210.2 -359.8 217.7 -355.1C225.3 -350.4 232.6 -345.5 240 -340C247.4 -334.6 254.7 -328.8 262 -322.3C269.2 -315.8 276.5 -308.9 283.6 -301.2C290.6 -293.4 302.1 -283.1 304.3 -275.9C306.6 -268.7 297.7 -261.9 297 -257.9C296.3 -253.8 298.9 -253.3 300.4 -251.5C301.9 -249.7 304 -248.1 306.1 -247.1C308.2 -246.1 310.7 -245.7 313 -245.5C315.3 -245.3 317.7 -246.4 319.8 -246.2C321.9 -245.9 323.6 -244.4 325.7 -244C327.7 -243.7 329.9 -243.6 332 -243.9C334.1 -244.1 336.3 -244.8 338.2 -245.7C340.1 -246.6 342 -248 343.5 -249.5C345 -250.9 346.3 -252.8 347.3 -254.6C348.2 -256.4 348.1 -258.7 349.2 -260.5C350.3 -262.3 352.6 -263.5 353.9 -265.5C355.2 -267.4 356.4 -269.7 356.9 -271.9C357.4 -274.2 357.4 -276.8 356.9 -279.1C356.5 -281.4 357.6 -283.7 354 -285.7C350.4 -287.7 340.5 -284.3 335.3 -291C330.1 -297.7 327.5 -314.7 322.6 -325.8C317.7 -337 312.3 -347.9 305.9 -358.1C299.6 -368.3 292.6 -378.1 284.8 -387.1C276.9 -396.1 268.3 -404.5 259 -412C249.8 -419.5 239.7 -426.2 229.2 -432C218.6 -437.8 207.4 -442.8 195.9 -446.9C184.4 -451 172.4 -454.1 160.2 -456.6C147.9 -459.1 130.2 -471.5 122.5 -461.8C114.7 -452.1 110.1 -410.1 113.5 -398.2Z" fill="#FBF8F0"/><path d="M113.5 -398.2L119.2 -397.7L127.3 -397.1L136.4 -396.2L144.6 -394.4L151.7 -392L158.6 -389.3L165.2 -386.5L171.7 -383.7L178.1 -380.8L184.3 -377.8L190.4 -374.8L196.5 -371.7L202.5 -368.7L208.4 -365.6L214.3 -362.4L220.2 -359.1L226.1 -355.7L231.9 -352.3L237.7 -348.6L243.5 -344.7L249.2 -340.6L254.9 -336.3L260.5 -331.8L266 -326.9L271.5 -321.7L276.9 -316.4L282.2 -310.7L287.4 -304.8L293.1 -298.5L299.4 -291.6L305 -284.5L308.9 -277.1L309 -269.4L306.1 -263.1L303.1 -258.7L301.8 -256.5L301.7 -256.4L301.7 -256.8L302.4 -256.2L303.8 -255L304.9 -253.7L306 -252.9L307.1 -252.1L308.1 -251.6L309.3 -251.1L310.6 -250.8L312 -250.5L313.2 -250.4L314.3 -250.4L315.7 -250.6L317.7 -250.9L320.3 -250.9L322.9 -250.3L324.7 -249.5L325.9 -248.9L326.7 -248.6L327.7 -248.5L329 -248.3L330.2 -248.3L331.4 -248.4L332.7 -248.6L333.9 -248.8L335.1 -249.2L336.3 -249.7L337.4 -250.2L338.5 -250.9L339.6 -251.6L340.6 -252.4L341.5 -253.3L342.3 -254.3L343.1 -255.3L343.7 -256.3L344.1 -257.2L344.4 -258.5L344.9 -260.3L346 -262.5L347.5 -264.3L349 -265.7L350.2 -266.7L351 -267.6L351.7 -268.7L352.5 -270.1L353.1 -271.4L353.5 -272.7L353.8 -274.1L353.9 -275.6L353.7 -277L353.5 -278.7L353.3 -280.5L353.2 -281.6L353 -281.7L352.5 -281.9L349.9 -282.2L344.8 -282.3L338.1 -283.6L331.9 -288.2L327.6 -296L324.1 -305.3L320.8 -315L317.3 -323.7L313.4 -331.6L309.4 -339.5L305.2 -347.3L300.8 -354.9L296.2 -362.4L291.3 -369.7L286.1 -376.7L280.6 -383.4L274.7 -389.9L268.5 -396L262 -401.9L255.3 -407.4L248.4 -412.6L241.2 -417.6L233.9 -422.4L226.4 -427L218.7 -431.3L210.8 -435.4L202.7 -439.2L194.5 -442.7L186 -445.8L177.3 -448.5L168.4 -450.7L159.4 -452.5L149.3 -453.9L138.7 -456.7L129.1 -459.6L122.5 -461.8L122.5 -461.8L129.4 -462.3L139.5 -462.9L150.7 -462.8L161 -460.7L170.2 -458.5L179.4 -456.2L188.5 -453.7L197.4 -451L206.3 -448L215 -444.7L223.6 -441.1L231.9 -437L240 -432.5L247.9 -427.6L255.5 -422.3L262.7 -416.6L269.7 -410.5L276.4 -404.2L282.8 -397.6L289 -390.7L294.9 -383.7L300.6 -376.4L306 -369L311.1 -361.3L315.9 -353.3L320.3 -345.1L324.3 -336.7L328 -328L331.1 -318.3L333.5 -308.2L336 -299.4L338.7 -293.8L341.7 -291.7L345.8 -290.9L350.7 -290.6L355.6 -289.5L358.9 -286.6L360.1 -283.4L360.3 -281.1L360.4 -279.5L360.7 -277.7L360.7 -275.5L360.6 -273.3L360.3 -271.2L359.7 -269.1L358.9 -267L357.9 -265.2L356.8 -263.3L355.4 -261.6L354 -260.2L353 -259.2L352.4 -258.5L352.2 -257.8L352 -256.6L351.6 -254.9L350.9 -252.9L349.9 -251.1L348.9 -249.5L347.7 -247.9L346.4 -246.5L345 -245.1L343.5 -243.9L341.9 -242.8L340.2 -241.8L338.4 -240.9L336.5 -240.2L334.6 -239.7L332.6 -239.3L330.7 -239.1L328.7 -239.1L326.7 -239.2L324.6 -239.5L322.5 -240.1L320.8 -240.8L319.8 -241.3L319.3 -241.4L318.6 -241.3L317.3 -241.1L315.3 -240.7L312.9 -240.6L310.6 -240.9L308.4 -241.2L306.2 -241.8L304 -242.7L301.9 -243.8L300 -245.2L298.3 -246.7L297 -248.1L295.8 -249.1L294 -250.9L292.3 -254.4L292.2 -259.2L294.3 -264L297.4 -268.3L299.5 -271.8L299.8 -274.6L297.2 -279.1L292.1 -285.1L285.8 -291.5L279.7 -297.5L274.3 -303L268.8 -308.1L263.4 -313L257.9 -317.8L252.5 -322.3L247.2 -326.8L241.9 -331.1L236.5 -335.3L231.3 -339.5L226 -343.5L220.6 -347.3L215.3 -351.1L209.8 -354.8L204.3 -358.4L198.7 -361.7L192.9 -365L187.1 -368.1L181.1 -371L174.9 -373.8L168.6 -376.5L162.2 -379L155.6 -381.5L148.9 -383.8L142 -386L134.4 -388.9L126.2 -392.6L118.7 -395.9L113.5 -398.2Z" fill="#111"/><path d="M67.1 -465.4C56.9 -477.2 64 -482.4 62 -490.8C59.9 -499.2 57.4 -507.6 54.7 -515.8C52 -524.1 48.9 -532.3 45.6 -540.4C42.3 -548.6 38.6 -556.7 34.8 -564.8C30.9 -572.8 26.7 -580.9 22.3 -588.9C17.9 -597 13.2 -605 8.3 -613C3.4 -621.1 -5.5 -636.2 -7.3 -637.2C-9.1 -638.1 -3.8 -614.2 -2.3 -618.5C-0.8 -622.9 4.8 -649.4 1.8 -663.4C-1.2 -677.4 -9.6 -692.2 -20.3 -702.6C-31.1 -713 -47.1 -721.8 -62.7 -725.8C-78.3 -729.8 -97.7 -730.1 -114 -726.6C-130.3 -723.1 -147.9 -714.9 -160.5 -704.8C-173.1 -694.8 -184.1 -680.3 -189.7 -666.4C-195.2 -652.5 -196.8 -635.6 -193.8 -621.6C-190.8 -607.5 -184.1 -592.4 -171.7 -582.3C-159.3 -572.2 -130.2 -567.6 -119.6 -561C-109 -554.5 -111.6 -548.8 -108.1 -542.9C-104.7 -536.9 -101.5 -531.1 -98.7 -525.4C-95.9 -519.7 -93.5 -514.1 -91.3 -508.7C-89.2 -503.3 -87.4 -498 -86 -492.9C-84.5 -487.8 -83.4 -482.9 -82.5 -478.1C-81.7 -473.4 -81.2 -468.8 -80.9 -464.4C-80.6 -460 -78.9 -457.6 -80.8 -451.8C-82.6 -446.1 -85.1 -443.3 -92 -430C-98.9 -416.7 -113.2 -393.7 -122 -372C-130.8 -350.3 -142.4 -322.3 -145 -300C-147.7 -277.7 -147.8 -254.2 -138 -238C-128.2 -221.8 -107.3 -210.7 -86 -203C-64.7 -195.3 -36 -192.8 -10 -192C16 -191.2 46.2 -190.7 70 -198C93.8 -205.3 115.1 -219.7 133 -236C150.8 -252.3 170.8 -274.3 177.2 -296C183.6 -317.7 180.1 -345.3 171.2 -366C162.3 -386.7 140.9 -403.4 123.6 -420C106.3 -436.6 77.4 -453.6 67.1 -465.4Z" fill="#FBF8F0"/><g transform="translate(-98 -384) scale(0.9)"><g transform="translate(0 150) scale(1 -1)"><path d="M215 147 c0 -13 6 -38 10 -39 2 0 6 2 6 4 0 3 6 13 7 13 1 0 2 -3 3 -6 3 -8 4 -10 7 -10 7 1 -1 27 -9 27 -3 0 -10 -6 -10 -8 0 -3 -2 0 -3 5 -3 15 -4 17 -8 17 -3 0 -3 0 -3 -3z M156 134 c-15 -7 -20 -9 -21 -12 0 -3 3 -3 9 -1 7 3 7 3 6 -11 0 -16 1 -23 3 -26 3 -3 4 -1 3 21 l0 21 7 3 c15 7 7 11 -7 5z M198 127 c-13 -6 -10 -24 3 -24 7 0 15 8 12 12 -1 1 -2 1 -5 -1 -10 -8 -15 1 -4 9 6 5 2 8 -6 4z M170 121 c-13 -10 -2 -31 13 -23 5 2 4 5 -1 5 -8 0 -11 2 -5 3 4 1 9 7 9 10 0 8 -10 11 -16 5z m8 -4 c1 -1 -5 -6 -6 -5 0 1 0 2 1 3 2 3 4 4 5 2z M118 102 c-2 0 -5 -3 -7 -5 -4 -3 -4 -3 -6 -1 -6 8 -8 3 -5 -14 3 -15 4 -14 -1 -12 -4 2 -6 5 -6 11 -1 7 -6 12 -13 12 -11 0 -17 -10 -5 -10 5 0 6 -1 6 -3 0 -6 -6 -13 -8 -9 -2 6 -6 4 -6 -2 0 -2 0 -3 -4 -4 -2 -1 -7 -4 -11 -6 -4 -2 -7 -4 -8 -4 0 0 4 8 8 17 14 32 13 34 -14 23 -23 -9 -29 -13 -29 -16 0 -5 5 -4 22 3 9 4 16 7 16 7 1 0 2 2 -9 -21 -11 -25 -12 -26 -10 -30 3 -3 7 -3 16 3 22 13 30 18 32 18 4 0 9 3 11 6 1 3 1 3 5 0 4 -2 9 -3 11 -1 1 1 2 2 3 1 4 -1 7 4 7 12 0 9 1 11 8 18 7 8 6 11 -3 7z M137 102 c-1 -1 -1 -4 -1 -6 -2 -8 -4 -9 -5 -3 -3 8 -5 7 -5 -2 1 -11 6 -16 12 -10 2 3 4 14 4 19 -1 3 -5 5 -5 2z M201 77 c-61 -17 -115 -41 -148 -66 -14 -11 -14 -11 -5 -11 8 0 8 0 19 8 15 11 26 17 43 24 13 6 95 40 107 44 3 1 6 2 6 3 0 3 -8 2 -22 -2z" fill="#111"/></g></g><path d="M-144.8 -454.1C-158.6 -456.7 -165.8 -432.8 -174.4 -421.6C-183 -410.3 -190.6 -398.7 -196.3 -386.6C-202 -374.4 -206.4 -361.5 -208.5 -348.7C-210.6 -335.8 -210.7 -322.1 -208.7 -309.5C-206.7 -296.8 -202.2 -284 -196.4 -272.7C-190.5 -261.4 -182.5 -250.9 -173.6 -241.5C-164.7 -232 -154.2 -223.8 -142.9 -216.1C-131.7 -208.3 -112.7 -201.5 -106.1 -195C-99.4 -188.5 -104.6 -180.7 -103.1 -177.1C-101.6 -173.4 -99.3 -173.9 -97.1 -173.1C-94.9 -172.2 -92.3 -171.8 -90 -171.9C-87.7 -172 -85.2 -172.8 -83.1 -173.7C-81 -174.6 -79.4 -176.7 -77.4 -177.5C-75.5 -178.2 -73.2 -177.7 -71.3 -178.3C-69.3 -179 -67.3 -179.9 -65.5 -181.2C-63.8 -182.4 -62.2 -184 -60.9 -185.7C-59.7 -187.4 -58.7 -189.5 -58 -191.5C-57.4 -193.5 -57.1 -195.7 -57.1 -197.8C-57.1 -199.9 -58.3 -201.8 -58.2 -203.9C-58.1 -206 -56.6 -208.2 -56.4 -210.5C-56.1 -212.8 -56.1 -215.4 -56.8 -217.6C-57.4 -219.9 -58.6 -222.2 -60.1 -224C-61.6 -225.8 -61.8 -228.1 -65.7 -228.4C-69.7 -228.7 -77 -221.5 -83.8 -225.8C-90.5 -230 -100.1 -245.1 -106 -254C-111.9 -263 -116.1 -271.7 -119.3 -279.5C-122.5 -287.3 -124 -294.4 -125.1 -300.8C-126.2 -307.2 -126.3 -312.5 -126.2 -318.1C-126.1 -323.8 -125.6 -328.6 -124.5 -334.6C-123.4 -340.6 -122.2 -346.8 -119.6 -354C-117.1 -361.2 -113.9 -369.3 -109.2 -377.9C-104.5 -386.6 -85.3 -393.2 -91.2 -405.9C-97.2 -418.6 -130.9 -451.5 -144.8 -454.1Z" fill="#FBF8F0"/><path d="M-144.8 -454.1L-149.2 -447.3L-155.5 -437.5L-163.2 -427.4L-170.7 -418.7L-177 -410.5L-182.9 -402.2L-188.1 -393.6L-192.6 -384.8L-196.3 -375.8L-199.4 -366.5L-201.7 -357.1L-203.2 -347.8L-204 -338.4L-204.1 -329L-203.7 -319.6L-202.6 -310.4L-200.9 -301.4L-198.6 -292.4L-195.5 -283.6L-191.8 -275.1L-187.4 -267L-182.3 -259.2L-176.5 -251.8L-170.1 -244.7L-163.3 -238.1L-156 -231.9L-148.3 -225.9L-140.4 -220.1L-131.2 -214.4L-120.9 -208.8L-111.1 -203.3L-103.5 -197.6L-99.7 -191.1L-99.2 -184.9L-99.8 -180.3L-99.7 -177.9L-99.2 -177.3L-98.8 -177.1L-97.7 -176.9L-96 -176.4L-94.5 -175.9L-93 -175.6L-91.6 -175.5L-90.2 -175.5L-88.9 -175.7L-87.5 -176.1L-86 -176.7L-84.8 -177.2L-83.8 -177.9L-82.7 -178.9L-81.1 -180.1L-79 -181.4L-76.6 -182.1L-74.6 -182.3L-73.3 -182.4L-72.4 -182.7L-71.5 -183.1L-70.3 -183.7L-69.3 -184.3L-68.3 -185.1L-67.4 -185.9L-66.5 -186.8L-65.7 -187.7L-65 -188.7L-64.4 -189.7L-63.9 -190.8L-63.5 -192L-63.1 -193.1L-62.9 -194.2L-62.7 -195.4L-62.6 -196.6L-62.7 -197.5L-62.9 -198.2L-63.3 -199.4L-63.8 -201.5L-63.9 -204.3L-63.4 -207L-62.7 -209.1L-62.3 -210.4L-62.1 -211.3L-62 -212.5L-62.1 -213.8L-62.3 -215L-62.6 -216.1L-63 -217.1L-63.5 -218.1L-64.2 -219.2L-65.1 -220.4L-66.1 -221.9L-66.5 -222.5L-66 -222L-65.4 -222L-67.2 -221.6L-71.8 -219.7L-78.8 -218.3L-86.8 -220.7L-93.4 -226.9L-99.6 -234.8L-105.5 -243.3L-110.7 -251L-115 -257.9L-118.7 -264.6L-121.9 -271.2L-124.6 -277.4L-126.7 -283.5L-128.3 -289.3L-129.5 -294.7L-130.3 -299.9L-130.8 -304.9L-131 -309.5L-130.9 -313.9L-130.7 -318.2L-130.4 -322.5L-129.9 -326.6L-129.2 -330.9L-128.4 -335.3L-127.3 -339.9L-126.1 -344.7L-124.6 -349.7L-122.8 -355.1L-120.7 -360.7L-118.3 -366.7L-115.6 -373L-112.4 -379.7L-107.9 -387.2L-101.6 -394.8L-95.6 -401.4L-91.2 -405.9L-91.2 -405.9L-93.7 -400.2L-97.5 -392.1L-101.7 -383.4L-106 -376.2L-109.4 -370.1L-112.2 -364.1L-114.5 -358.4L-116.5 -352.9L-118 -347.8L-119.2 -343L-120 -338.4L-120.7 -333.9L-121.2 -329.7L-121.5 -325.8L-121.6 -322L-121.6 -318L-121.5 -314L-121.2 -310L-120.7 -306L-119.9 -301.7L-118.8 -297L-117.6 -292.1L-116 -287L-114 -281.6L-111.5 -275.9L-108.6 -269.8L-105.3 -263.5L-101.3 -257L-96.4 -249.5L-90.7 -241.5L-85.1 -234.6L-80.7 -230.9L-78.6 -230.6L-75.7 -231.5L-71.4 -233.5L-66.1 -234.8L-60.8 -233.7L-57.5 -231.1L-56 -228.9L-55 -227.6L-53.9 -226L-52.7 -223.8L-51.7 -221.6L-51 -219.2L-50.5 -216.7L-50.4 -214.3L-50.4 -212.1L-50.6 -209.7L-51.2 -207.2L-51.9 -205.2L-52.4 -204L-52.5 -203.6L-52.4 -203.3L-52.1 -202.3L-51.7 -200.4L-51.6 -198.1L-51.7 -195.9L-51.9 -193.9L-52.4 -191.9L-52.9 -189.9L-53.7 -188L-54.6 -186.2L-55.7 -184.4L-56.8 -182.7L-58.2 -181.2L-59.6 -179.7L-61.1 -178.4L-62.8 -177.3L-64.5 -176.2L-66.3 -175.4L-68.1 -174.6L-70.1 -174L-72.2 -173.7L-74.1 -173.6L-75.2 -173.6L-75.9 -173.6L-76.6 -173.2L-77.7 -172.4L-79.4 -171.3L-81.4 -170.2L-83.4 -169.4L-85.5 -168.8L-87.6 -168.4L-89.8 -168.2L-92 -168.3L-94.2 -168.6L-96.3 -169.1L-98.1 -169.7L-99.7 -170.2L-101.8 -170.9L-104.4 -172.7L-106.4 -176.2L-106.7 -180.7L-106.1 -185.1L-106.3 -188.9L-108.6 -192.5L-115 -196.7L-124.7 -201.4L-135.5 -206.4L-145.5 -212.1L-154.1 -218.1L-162.2 -224.4L-169.9 -231.1L-177 -238.2L-183.7 -245.7L-189.9 -253.5L-195.7 -261.7L-200.9 -270.3L-205.5 -279.3L-209.4 -288.7L-212.6 -298.5L-214.8 -308.5L-215.9 -318.7L-216.1 -329L-215.4 -339.4L-213.8 -349.5L-211.3 -359.5L-208.1 -369.3L-204.3 -378.9L-200 -388.4L-195.3 -397.6L-190 -406.7L-184.3 -415.6L-178.1 -424.4L-170.5 -433.8L-160.9 -442.5L-151.3 -449.3L-144.8 -454.1Z" fill="#111"/><path d="M71.4 -469.2L67.9 -474.2L66.9 -477.7L67.2 -481.2L67.7 -486L67.2 -491.7L65.7 -497.2L64.3 -502.3L62.7 -507.3L61.1 -512.4L59.5 -517.4L57.7 -522.4L55.9 -527.4L54 -532.4L52.1 -537.3L50.1 -542.3L48 -547.2L45.9 -552.1L43.7 -557L41.4 -561.9L39.1 -566.8L36.7 -571.7L34.3 -576.6L31.8 -581.5L29.2 -586.4L26.6 -591.3L23.9 -596.1L21.2 -601L18.3 -605.9L15.5 -610.8L12.5 -615.6L9.2 -621.1L5.4 -627.3L1.7 -633.3L-1.5 -638L-7.1 -642.1L-12.7 -634.8L-11.8 -628.7L-10.3 -622L-8.3 -616.1L2.4 -615.9L4 -622.4L5.6 -631.4L6.9 -642.4L7.3 -653.8L6.3 -664.2L3.6 -673.3L-0.3 -682.2L-5.2 -690.6L-11 -698.5L-17.5 -705.5L-25 -711.8L-33.4 -717.4L-42.5 -722.3L-52 -726.3L-61.8 -729.3L-71.9 -731.3L-82.6 -732.5L-93.5 -732.7L-104.3 -732.1L-114.8 -730.5L-125.1 -727.9L-135.4 -724.3L-145.5 -719.9L-154.9 -714.6L-163.6 -708.7L-171.5 -702L-178.7 -694.4L-185.2 -686.2L-190.8 -677.5L-195.1 -668.6L-198.3 -659.3L-200.4 -649.5L-201.4 -639.6L-201.3 -629.8L-200.1 -620.3L-197.8 -611L-194.3 -601.8L-189.7 -592.9L-183.6 -584.4L-175.9 -576.8L-165.6 -570.6L-153.4 -565.9L-141 -562.1L-130.3 -558.7L-122.8 -555.5L-119.1 -552.8L-117.2 -550.6L-116.1 -548.1L-115.1 -544.5L-113.4 -540.2L-111.2 -536.4L-109.2 -533L-107.4 -529.6L-105.6 -526.2L-103.9 -522.9L-102.3 -519.5L-100.7 -516.3L-99.3 -513L-97.9 -509.8L-96.6 -506.6L-95.4 -503.5L-94.3 -500.4L-93.2 -497.4L-92.3 -494.3L-91.4 -491.4L-90.6 -488.4L-89.8 -485.6L-89.1 -482.7L-88.6 -479.9L-88 -477.1L-87.6 -474.4L-87.2 -471.8L-86.8 -469.1L-86.6 -466.6L-86.4 -463.8L-86.1 -461.1L-85.7 -458.9L-85.4 -457.3L-85.5 -455.7L-86 -453.4L-87 -450.8L-88.4 -448.1L-90.4 -444.5L-93.2 -439.5L-96.9 -432.6L-101.8 -423.6L-107.8 -412.7L-114.4 -400.5L-121 -387.4L-126.8 -374L-132.2 -360.2L-137.6 -345.3L-142.6 -330.1L-146.5 -314.9L-148.9 -300.5L-150 -286.7L-150.2 -273.1L-149.1 -259.8L-146.4 -247.3L-141.5 -235.9L-133.9 -225.9L-124.3 -217.3L-113 -209.9L-100.7 -203.5L-87.7 -198.1L-73.7 -193.7L-58.4 -190.3L-42.5 -188L-26.2 -186.4L-10.2 -185.5L5.9 -184.9L22.7 -184.9L39.6 -185.7L56.2 -187.8L71.9 -191.6L86.6 -197.2L100.4 -204.2L113.5 -212.5L125.7 -221.6L137.1 -231.4L148.2 -242.1L159.1 -254L169.1 -266.7L177.3 -280.2L183 -294.2L185.8 -308.9L186.4 -324.2L185 -339.6L181.7 -354.5L176.7 -368.5L169.5 -381.3L160 -393.1L149.3 -403.9L138.1 -414L127.1 -423.9L115.1 -433.8L101.9 -443.4L89 -452.5L77.9 -460.8ZM62.9 -461.7L57.8 -469.4L56 -476.4L56.2 -482.2L56.9 -486.2L56.7 -490L55.6 -494.5L54.3 -499.5L53 -504.4L51.5 -509.3L50 -514.2L48.4 -519.1L46.7 -524L44.9 -528.9L43 -533.8L41.1 -538.6L39.1 -543.4L37.1 -548.3L34.9 -553.1L32.7 -557.9L30.4 -562.7L28.1 -567.5L25.7 -572.3L23.2 -577L20.7 -581.8L18.1 -586.6L15.4 -591.4L12.7 -596.1L9.9 -600.9L7 -605.7L4.1 -610.5L0.7 -616L-3.1 -622.1L-6.7 -627.9L-9.5 -632.1L-7.5 -632.2L-2.6 -635.5L-1.7 -630.8L-0.2 -624.9L1.1 -621.7L-7.1 -621.2L-6 -624.6L-4.3 -633L-2.8 -643.3L-2 -653.7L-2.7 -662.6L-4.8 -670.4L-8.1 -678.4L-12.3 -686.1L-17.4 -693.3L-23.1 -699.8L-29.7 -705.5L-37.4 -710.9L-45.7 -715.5L-54.6 -719.4L-63.6 -722.2L-73 -724.1L-83 -725.1L-93.3 -725.2L-103.4 -724.3L-113.1 -722.6L-122.6 -720L-132.1 -716.3L-141.2 -711.8L-149.8 -706.6L-157.4 -700.9L-164.2 -694.6L-170.5 -687.5L-176 -679.9L-180.7 -672L-184.2 -664.2L-186.7 -656.2L-188.4 -647.8L-189.1 -639.2L-188.8 -630.8L-187.5 -622.8L-185.3 -615.1L-182.2 -607.4L-178.2 -600L-173.3 -593.4L-167.5 -587.8L-159.5 -583.1L-148.8 -578.8L-136.9 -574.8L-125.6 -571L-116.4 -566.6L-110.3 -561.6L-106.8 -556.4L-105.2 -551.7L-104.2 -548.3L-102.9 -545.5L-101 -542.2L-99 -538.6L-97.1 -535L-95.3 -531.5L-93.5 -527.9L-91.9 -524.4L-90.3 -521L-88.8 -517.5L-87.4 -514.1L-86.1 -510.8L-84.8 -507.4L-83.6 -504.1L-82.5 -500.9L-81.5 -497.6L-80.6 -494.5L-79.7 -491.3L-79 -488.2L-78.3 -485.1L-77.6 -482.1L-77.1 -479.1L-76.6 -476.1L-76.2 -473.2L-75.9 -470.3L-75.6 -467.5L-75.4 -464.9L-75 -462.8L-74.6 -460.5L-74.4 -457.6L-74.6 -454.1L-75.5 -450.2L-77 -446.4L-78.7 -442.9L-80.8 -439.1L-83.5 -434.2L-87.1 -427.4L-92 -418.3L-98.1 -407.4L-104.8 -395.4L-111.3 -382.8L-117.2 -370L-122.9 -356.5L-128.7 -342.1L-134.1 -327.4L-138.4 -313L-141.1 -299.5L-142.5 -286.3L-142.9 -273.3L-141.9 -260.9L-139.1 -249.7L-134.5 -240.1L-127.8 -231.8L-118.9 -224.5L-108.4 -218.1L-96.6 -212.5L-84.3 -207.9L-71.1 -204.3L-56.6 -201.8L-41.2 -200.1L-25.4 -199.1L-9.8 -198.5L6.1 -198.3L22.3 -198.4L38.4 -199.3L53.8 -201.1L68.1 -204.4L81.4 -209.2L94.2 -215.5L106.4 -222.9L118 -231.3L128.8 -240.6L139.4 -250.7L149.7 -261.9L159 -273.7L166.4 -285.8L171.4 -297.8L173.9 -310.3L174.4 -323.9L173 -337.7L170 -351.2L165.7 -363.5L159.5 -374.6L151.2 -385.3L141.3 -395.7L130.6 -406L120.1 -416.1L109 -426.1L96.5 -436.1L83.9 -445.7L72.7 -454.7Z" fill="#111" fill-rule="evenodd"/><g transform="translate(-96 -642.5) rotate(-24.1) scale(0.93)"><path d="M14 54C23.3 50.7 42 43.3 64 40C86 36.7 122.3 32.7 146 34C169.7 35.3 194.7 41.3 206 48C217.3 54.7 217.3 64.7 214 74C210.7 83.3 199.7 98.3 186 104C172.3 109.7 149.7 107 132 108C114.3 109 96.7 110.7 80 110C63.3 109.3 43.7 107 32 104C20.3 101 14.3 96.7 10 92C5.7 87.3 6.3 81.3 6 76C5.7 70.7 6.7 63.7 8 60C9.3 56.3 4.7 57.3 14 54Z" fill="#F7C05A"/><path d="M12.6 50.3L21.4 47.3L33.2 43.5L47.3 39.4L63.3 35.5L82.1 32L103.9 29.7L126.2 29.2L146.2 29.9L164.4 31.7L181.6 34.8L196.5 39.3L207.9 44.8L215.2 51.4L218.7 59.2L219.1 67.3L217.4 75.3L213.6 84L207.4 93.5L199 102.6L188.3 109.7L175.2 113.2L160.7 114L146 113.6L132.2 113.5L119.1 114.3L105.9 115.2L92.8 115.8L79.8 115.4L66.7 114.1L53.6 112.1L41.4 110L31 107.9L22.7 105.4L16 102.5L10.7 99L6.3 95.1L3.2 90.3L1.8 85.1L1.3 80.4L1.1 76.1L1 71.5L1.3 66.7L2.1 62.2L3 59L3.1 58L3.5 54.5L7.1 51.3ZM15.4 57.7L23.9 54.4L35.3 50.5L49.1 46.9L64.7 44.5L83.4 42.9L104.8 40.8L126.4 38.6L145.8 38.1L163.2 39.9L179.6 43.2L193.8 47L204.1 51.2L209.8 55.7L212.3 60.8L212.4 66.6L210.6 72.7L206.7 79.7L200.3 87.3L192.3 93.9L183.7 98.3L173.3 100.5L160.3 101.5L145.9 101.9L131.8 102.5L118.4 103.4L105.4 104L92.6 104.5L80.2 104.6L67.5 104.3L54.7 103.6L42.8 102.2L33 100.1L25.8 97.6L20.5 94.8L16.5 91.8L13.7 88.9L12 86.3L11.2 83.4L11 79.8L10.9 75.9L11 72L11.4 68L12.1 64.4L13 61L13.3 58L12.5 59.2L11.5 60.4Z" fill="#111" fill-rule="evenodd"/><path d="M30 78C84 87 148 85 198 70" fill="none" stroke="#111" stroke-width="5" stroke-linecap="round"/><g transform="translate(0 -4) scale(1.12)"><path d="M-62 -22C0 -30 70 -32 150 -20C158 -10 150 22 118 36C84 48 60 30 52 6C40 12 20 12 6 8C-4 30 -28 46 -54 30C-70 16 -72 -8 -62 -22Z" fill="#111"/><path d="M-40 -12C-30 -16 -16 -14 -8 -10M72 -10C84 -14 100 -14 112 -10" stroke="#fff" stroke-width="4" stroke-linecap="round" fill="none" opacity="0.55"/></g><g transform="rotate(-8)"><path d="M-100 -26C-110.7 -28.7 -111.7 -56 -108 -72C-104.3 -88 -91.3 -110.2 -78 -122C-64.7 -133.8 -44.3 -139 -28 -143C-11.7 -147 3.7 -147.2 20 -146C36.3 -144.8 55.3 -143.3 70 -136C84.7 -128.7 101 -114.3 108 -102C115 -89.7 119.3 -68 112 -62C104.7 -56 81.3 -65.7 64 -66C46.7 -66.3 26 -65.7 8 -64C-10 -62.3 -26 -62.3 -44 -56C-62 -49.7 -89.3 -23.3 -100 -26Z" fill="#FBF8F0"/><path d="M-101.2 -19.9L-111.7 -29.2L-115.6 -43.2L-116.2 -58.8L-114 -73.4L-108.8 -87.1L-100.8 -101.1L-91.2 -114.1L-80.7 -125.1L-68.9 -133.4L-55.7 -139.6L-42.1 -144.1L-29 -147.3L-16.5 -149.5L-4.2 -150.4L8 -150.5L20.3 -150.1L33.1 -149.6L46.5 -148.5L60 -146.2L72.8 -141.6L84.7 -134.5L95.8 -125.3L105.3 -115L112.3 -104.5L117.1 -92.9L120 -80.2L120.3 -68.1L115.5 -57.5L104 -54.2L90.8 -55.9L76.9 -59L63.7 -61L50.5 -61.4L36.4 -61.2L22.2 -60.1L8.4 -58.4L-4.6 -56.6L-17.1 -55L-29.3 -52.8L-41.4 -49.7L-55.6 -42.8L-71.5 -32.6L-86.7 -23.1ZM-98.8 -32.1L-100.9 -34.9L-103.2 -44.8L-103.4 -58.1L-102 -70.6L-98.5 -82.7L-92.4 -96.1L-84.4 -108.8L-75.3 -118.9L-64.8 -126L-52.5 -131.3L-39.6 -135.3L-27 -138.7L-15.3 -141.2L-3.8 -142.5L7.8 -142.7L19.7 -141.9L32.2 -140.4L44.7 -138.1L56.6 -134.8L67.2 -130.4L77.6 -124.2L87.9 -116.5L97.1 -108L103.7 -99.5L108.1 -89.9L110.7 -79L110.6 -70L108.5 -66.5L103.7 -65.9L92.7 -67.3L78.6 -69.8L64.3 -71L50.4 -70.7L36.1 -70.3L21.6 -70L7.6 -69.6L-5.7 -69.2L-18.9 -68.5L-32.3 -66.5L-46.6 -62.3L-62.1 -53.7L-78 -42.7L-91.8 -34.2Z" fill="#111" fill-rule="evenodd"/><path d="M-100 -26C-107.7 -31.7 -127 -34.7 -140 -34C-153 -33.3 -168.7 -29.7 -178 -22C-187.3 -14.3 -199 4.7 -196 12C-193 19.3 -172.3 21.7 -160 22C-147.7 22.3 -133 17.7 -122 14C-111 10.3 -97.7 6.7 -94 0C-90.3 -6.7 -92.3 -20.3 -100 -26Z" fill="#FBF8F0"/><path d="M-97.6 -29.1L-106.3 -33.6L-117.2 -36.4L-129.1 -37.4L-140.1 -37.4L-150.8 -36.9L-161.8 -35.5L-172.4 -32L-181.3 -26L-188.8 -17.3L-195.5 -7L-200.2 3.5L-200.4 13.8L-193 20.8L-182.4 23.6L-170.9 25.5L-160 27.2L-149.6 27.3L-139.1 25.4L-129.2 22.3L-120.3 19.3L-111.6 16.7L-102.8 13.5L-95.1 9L-89.9 2.3L-88.7 -5.7L-89.7 -14L-92.6 -22ZM-102.4 -22.9L-109 -25.9L-118.8 -28.3L-129.6 -30.2L-139.9 -30.6L-149.5 -29L-158.9 -25.7L-167.5 -22L-174.7 -18L-181.6 -11.6L-187.7 -2.7L-191.3 5.8L-191.6 10.2L-188.6 12.4L-180.6 15.6L-169.9 17.2L-160 16.8L-151.2 15.5L-141.9 13.6L-132.5 11.4L-123.7 8.7L-115.4 5.7L-107.7 2.7L-101.6 0L-98.1 -2.3L-96 -6.4L-95.8 -12.7L-98 -18.9Z" fill="#111" fill-rule="evenodd"/><path d="M-8 -118L38 -118L-8 -78L40 -78" fill="none" stroke="#111" stroke-width="10" stroke-linecap="round" stroke-linejoin="round"/></g></g></g></g><g id="fx"><path d="M1279 870.7L1297 830.7" stroke="#111" stroke-width="5" stroke-linecap="round"/><path d="M1309 884.7L1335 854.7" stroke="#111" stroke-width="5" stroke-linecap="round"/><path d="M1165 910.7L1153 950.7" stroke="#111" stroke-width="5" stroke-linecap="round"/></g></svg>