<svg xmlns="http://www.w3.org/2000/svg" viewBox="0 0 1920 1080" width="1920" height="1080" preserveAspectRatio="xMidYMax slice"><title>ZaruTech duck opening, frame 151/180</title><g id="cover"><defs><clipPath id="cp"><path d="M-300 -300H2220L2220 46.1C2213.3 46 2193.3 45.9 2180 45.4C2166.7 45 2153.3 44.2 2140 43.3C2126.7 42.5 2113.3 41.3 2100 40.3C2086.7 39.2 2073.3 38 2060 36.9C2046.7 35.9 2033.3 34.9 2020 34.1C2006.7 33.4 1993.3 32.7 1980 32.4C1966.7 32.1 1953.3 32 1940 32.2C1926.7 32.4 1913.3 32.9 1900 33.6C1886.7 34.2 1873.3 35.2 1860 36.2C1846.7 37.1 1833.3 38.4 1820 39.4C1806.7 40.5 1793.3 41.7 1780 42.6C1766.7 43.6 1753.3 44.4 1740 45C1726.7 45.6 1713.3 46 1700 46.1C1686.7 46.2 1673.3 46 1660 45.5C1646.7 45.1 1633.3 44.4 1620 43.6C1606.7 42.7 1593.3 41.6 1580 40.6C1566.7 39.5 1553.3 38.3 1540 37.2C1526.7 36.2 1513.3 35.1 1500 34.3C1486.7 33.5 1473.3 32.9 1460 32.5C1446.7 32.1 1433.3 32 1420 32.2C1406.7 32.3 1393.3 32.8 1380 33.4C1366.7 34 1353.3 34.9 1340 35.9C1326.7 36.9 1313.3 38.1 1300 39.1C1286.7 40.2 1273.3 41.4 1260 42.4C1246.7 43.3 1233.3 44.2 1220 44.9C1206.7 45.5 1193.3 45.9 1180 46C1166.7 46.2 1153.3 46 1140 45.7C1126.7 45.3 1113.3 44.6 1100 43.8C1086.7 43 1073.3 41.9 1060 40.9C1046.7 39.8 1033.3 38.6 1020 37.5C1006.7 36.5 993.3 35.4 980 34.6C966.7 33.7 953.3 33 940 32.6C926.7 32.2 913.3 32 900 32.1C886.7 32.2 873.3 32.6 860 33.2C846.7 33.8 833.3 34.7 820 35.6C806.7 36.6 793.3 37.8 780 38.8C766.7 39.9 753.3 41.1 740 42.1C726.7 43.1 713.3 44 700 44.7C686.7 45.3 673.3 45.8 660 46C646.7 46.2 633.3 46.1 620 45.8C606.7 45.4 593.3 44.8 580 44C566.7 43.2 553.3 42.2 540 41.2C526.7 40.1 513.3 38.9 500 37.8C486.7 36.8 473.3 35.6 460 34.8C446.7 33.9 433.3 33.2 420 32.7C406.7 32.3 393.3 32 380 32.1C366.7 32.2 353.3 32.5 340 33.1C326.7 33.6 313.3 34.5 300 35.4C286.7 36.3 273.3 37.5 260 38.5C246.7 39.6 233.3 40.8 220 41.8C206.7 42.8 193.3 43.8 180 44.5C166.7 45.2 153.3 45.7 140 45.9C126.7 46.2 113.3 46.1 100 45.8C86.7 45.6 73.3 45 60 44.2C46.7 43.5 33.3 42.5 20 41.4C6.7 40.4 -6.7 39.2 -20 38.1C-33.3 37.1 -46.7 35.9 -60 35C-73.3 34.2 -86.7 33.3 -100 32.9C-113.3 32.4 -126.7 32.1 -140 32.1C-153.3 32.1 -166.7 32.4 -180 32.9C-193.3 33.4 -206.7 34.2 -220 35.1C-233.3 36 -246.7 37.2 -260 38.2C-273.3 39.3 -293.3 41 -300 41.5Z"/></clipPath><radialGradient id="stain"><stop offset="0" stop-color="#8c8574" stop-opacity="0.10"/><stop offset="1" stop-color="#8c8574" stop-opacity="0"/></radialGradient></defs><path d="M-300 -300H2220L2220 46.1C2213.3 46 2193.3 45.9 2180 45.4C2166.7 45 2153.3 44.2 2140 43.3C2126.7 42.5 2113.3 41.3 2100 40.3C2086.7 39.2 2073.3 38 2060 36.9C2046.7 35.9 2033.3 34.9 2020 34.1C2006.7 33.4 1993.3 32.7 1980 32.4C1966.7 32.1 1953.3 32 1940 32.2C1926.7 32.4 1913.3 32.9 1900 33.6C1886.7 34.2 1873.3 35.2 1860 36.2C1846.7 37.1 1833.3 38.4 1820 39.4C1806.7 40.5 1793.3 41.7 1780 42.6C1766.7 43.6 1753.3 44.4 1740 45C1726.7 45.6 1713.3 46 1700 46.1C1686.7 46.2 1673.3 46 1660 45.5C1646.7 45.1 1633.3 44.4 1620 43.6C1606.7 42.7 1593.3 41.6 1580 40.6C1566.7 39.5 1553.3 38.3 1540 37.2C1526.7 36.2 1513.3 35.1 1500 34.3C1486.7 33.5 1473.3 32.9 1460 32.5C1446.7 32.1 1433.3 32 1420 32.2C1406.7 32.3 1393.3 32.8 1380 33.4C1366.7 34 1353.3 34.9 1340 35.9C1326.7 36.9 1313.3 38.1 1300 39.1C1286.7 40.2 1273.3 41.4 1260 42.4C1246.7 43.3 1233.3 44.2 1220 44.9C1206.7 45.5 1193.3 45.9 1180 46C1166.7 46.2 1153.3 46 1140 45.7C1126.7 45.3 1113.3 44.6 1100 43.8C1086.7 43 1073.3 41.9 1060 40.9C1046.7 39.8 1033.3 38.6 1020 37.5C1006.7 36.5 993.3 35.4 980 34.6C966.7 33.7 953.3 33 940 32.6C926.7 32.2 913.3 32 900 32.1C886.7 32.2 873.3 32.6 860 33.2C846.7 33.8 833.3 34.7 820 35.6C806.7 36.6 793.3 37.8 780 38.8C766.7 39.9 753.3 41.1 740 42.1C726.7 43.1 713.3 44 700 44.7C686.7 45.3 673.3 45.8 660 46C646.7 46.2 633.3 46.1 620 45.8C606.7 45.4 593.3 44.8 580 44C566.7 43.2 553.3 42.2 540 41.2C526.7 40.1 513.3 38.9 500 37.8C486.7 36.8 473.3 35.6 460 34.8C446.7 33.9 433.3 33.2 420 32.7C406.7 32.3 393.3 32 380 32.1C366.7 32.2 353.3 32.5 340 33.1C326.7 33.6 313.3 34.5 300 35.4C286.7 36.3 273.3 37.5 260 38.5C246.7 39.6 233.3 40.8 220 41.8C206.7 42.8 193.3 43.8 180 44.5C166.7 45.2 153.3 45.7 140 45.9C126.7 46.2 113.3 46.1 100 45.8C86.7 45.6 73.3 45 60 44.2C46.7 43.5 33.3 42.5 20 41.4C6.7 40.4 -6.7 39.2 -20 38.1C-33.3 37.1 -46.7 35.9 -60 35C-73.3 34.2 -86.7 33.3 -100 32.9C-113.3 32.4 -126.7 32.1 -140 32.1C-153.3 32.1 -166.7 32.4 -180 32.9C-193.3 33.4 -206.7 34.2 -220 35.1C-233.3 36 -246.7 37.2 -260 38.2C-273.3 39.3 -293.3 41 -300 41.5Z" fill="#EFEADF"/><g clip-path="url(#cp)"><ellipse cx="560" cy="360" rx="520" ry="300" fill="url(#stain)" opacity="1"/><ellipse cx="1380" cy="460" rx="560" ry="320" fill="url(#stain)" opacity="0.8"/><ellipse cx="980" cy="880" rx="640" ry="240" fill="url(#stain)" opacity="0.5"/><path d="M18 30L150 130" stroke="#111" stroke-width="3" stroke-linecap="round" opacity="0.55"/><path d="M18 80L110 160" stroke="#111" stroke-width="2.5" stroke-linecap="round" opacity="0.55"/><path d="M60 22L200 70" stroke="#111" stroke-width="2.5" stroke-linecap="round" opacity="0.55"/><path d="M1902 30L1770 130" stroke="#111" stroke-width="3" stroke-linecap="round" opacity="0.55"/><path d="M1902 80L1810 160" stroke="#111" stroke-width="2.5" stroke-linecap="round" opacity="0.55"/><path d="M1860 22L1720 70" stroke="#111" stroke-width="2.5" stroke-linecap="round" opacity="0.55"/><path d="M16 1050L150 960" stroke="#111" stroke-width="3" stroke-linecap="round" opacity="0.55"/><path d="M16 1000L100 940" stroke="#111" stroke-width="2.5" stroke-linecap="round" opacity="0.55"/><path d="M1904 1050L1770 960" stroke="#111" stroke-width="3" stroke-linecap="round" opacity="0.55"/><path d="M1904 1000L1820 940" stroke="#111" stroke-width="2.5" stroke-linecap="round" opacity="0.55"/></g><path d="M-300 41.5C-293.3 41 -273.3 39.3 -260 38.2C-246.7 37.2 -233.3 36 -220 35.1C-206.7 34.2 -193.3 33.4 -180 32.9C-166.7 32.4 -153.3 32.1 -140 32.1C-126.7 32.1 -113.3 32.4 -100 32.9C-86.7 33.3 -73.3 34.2 -60 35C-46.7 35.9 -33.3 37.1 -20 38.1C-6.7 39.2 6.7 40.4 20 41.4C33.3 42.5 46.7 43.5 60 44.2C73.3 45 86.7 45.6 100 45.8C113.3 46.1 126.7 46.2 140 45.9C153.3 45.7 166.7 45.2 180 44.5C193.3 43.8 206.7 42.8 220 41.8C233.3 40.8 246.7 39.6 260 38.5C273.3 37.5 286.7 36.3 300 35.4C313.3 34.5 326.7 33.6 340 33.1C353.3 32.5 366.7 32.2 380 32.1C393.3 32 406.7 32.3 420 32.7C433.3 33.2 446.7 33.9 460 34.8C473.3 35.6 486.7 36.8 500 37.8C513.3 38.9 526.7 40.1 540 41.2C553.3 42.2 566.7 43.2 580 44C593.3 44.8 606.7 45.4 620 45.8C633.3 46.1 646.7 46.2 660 46C673.3 45.8 686.7 45.3 700 44.7C713.3 44 726.7 43.1 740 42.1C753.3 41.1 766.7 39.9 780 38.8C793.3 37.8 806.7 36.6 820 35.6C833.3 34.7 846.7 33.8 860 33.2C873.3 32.6 886.7 32.2 900 32.1C913.3 32 926.7 32.2 940 32.6C953.3 33 966.7 33.7 980 34.6C993.3 35.4 1006.7 36.5 1020 37.5C1033.3 38.6 1046.7 39.8 1060 40.9C1073.3 41.9 1086.7 43 1100 43.8C1113.3 44.6 1126.7 45.3 1140 45.7C1153.3 46 1166.7 46.2 1180 46C1193.3 45.9 1206.7 45.5 1220 44.9C1233.3 44.2 1246.7 43.3 1260 42.4C1273.3 41.4 1286.7 40.2 1300 39.1C1313.3 38.1 1326.7 36.9 1340 35.9C1353.3 34.9 1366.7 34 1380 33.4C1393.3 32.8 1406.7 32.3 1420 32.2C1433.3 32 1446.7 32.1 1460 32.5C1473.3 32.9 1486.7 33.5 1500 34.3C1513.3 35.1 1526.7 36.2 1540 37.2C1553.3 38.3 1566.7 39.5 1580 40.6C1593.3 41.6 1606.7 42.7 1620 43.6C1633.3 44.4 1646.7 45.1 1660 45.5C1673.3 46 1686.7 46.2 1700 46.1C1713.3 46 1726.7 45.6 1740 45C1753.3 44.4 1766.7 43.6 1780 42.6C1793.3 41.7 1806.7 40.5 1820 39.4C1833.3 38.4 1846.7 37.1 1860 36.2C1873.3 35.2 1886.7 34.2 1900 33.6C1913.3 32.9 1926.7 32.4 1940 32.2C1953.3 32 1966.7 32.1 1980 32.4C1993.3 32.7 2006.7 33.4 2020 34.1C2033.3 34.9 2046.7 35.9 2060 36.9C2073.3 38 2086.7 39.2 2100 40.3C2113.3 41.3 2126.7 42.5 2140 43.3C2153.3 44.2 2166.7 45 2180 45.4C2193.3 45.9 2213.3 46 2220 46.1" fill="none" stroke="#D8D1C0" stroke-width="26" stroke-linecap="round" transform="translate(0 -13)" opacity="0.7"/><path d="M-300.2 38.6L-282.7 37.2L-260.2 35.4L-240.2 33.8L-220.2 32.4L-200.2 31.1L-180.1 30.2L-160.1 29.6L-140 29.3L-119.9 29.5L-99.9 30L-79.8 30.9L-59.8 32.2L-39.8 33.7L-19.8 35.3L0.2 37L20.2 38.7L40.2 40.3L60.1 41.6L80.1 42.7L100.1 43.4L120 43.8L140 43.7L159.9 43.2L179.9 42.3L199.9 41.1L219.8 39.6L239.8 38L259.8 36.2L279.8 34.5L299.8 32.8L319.8 31.4L339.9 30.2L359.9 29.4L380 29L400.1 28.9L420.1 29.3L440.2 30.1L460.2 31.2L480.3 32.6L500.3 34.2L520.3 35.8L540.3 37.5L560.3 39.1L580.2 40.5L600.2 41.6L620.1 42.3L640 42.7L660 42.7L679.9 42.3L699.8 41.6L719.8 40.4L739.8 39L759.8 37.5L779.7 35.8L799.8 34.1L819.8 32.6L839.8 31.2L859.9 30.1L879.9 29.3L900 28.9L920 29L940.1 29.5L960.2 30.3L980.2 31.5L1000.2 33L1020.2 34.7L1040.2 36.4L1060.2 38.2L1080.2 39.9L1100.1 41.4L1120.1 42.6L1140.1 43.5L1160 43.9L1180 44L1199.9 43.6L1219.9 42.8L1239.9 41.7L1259.8 40.2L1279.8 38.6L1299.8 36.8L1319.8 35L1339.8 33.3L1359.8 31.8L1379.9 30.5L1399.9 29.6L1420 29L1440 28.9L1460.1 29.2L1480.2 29.9L1500.2 30.9L1520.2 32.3L1540.3 33.8L1560.3 35.5L1580.3 37.2L1600.2 38.9L1620.2 40.3L1640.2 41.5L1660.1 42.4L1680 42.8L1700 42.9L1719.9 42.6L1739.9 41.8L1759.8 40.8L1779.8 39.4L1799.7 37.8L1819.7 36.1L1839.7 34.4L1859.7 32.7L1879.8 31.3L1899.8 30.1L1919.9 29.2L1939.9 28.7L1960 28.7L1980.1 29.1L2000.1 29.9L2020.2 31L2040.2 32.4L2060.2 34.1L2080.2 35.9L2100.2 37.7L2120.2 39.5L2140.2 41L2160.1 42.3L2180.1 43.3L2202.5 43.8L2220 44L2220 48.1L2202.5 48L2179.9 47.5L2159.9 46.7L2139.8 45.6L2119.8 44.3L2099.8 42.8L2079.8 41.3L2059.8 39.8L2039.8 38.4L2019.8 37.2L1999.9 36.3L1979.9 35.7L1960 35.5L1940.1 35.7L1920.1 36.2L1900.2 37.1L1880.2 38.2L1860.3 39.6L1840.3 41.2L1820.3 42.8L1800.3 44.4L1780.2 45.9L1760.2 47.2L1740.1 48.2L1720.1 48.9L1700 49.2L1680 49.2L1659.9 48.7L1639.8 47.9L1619.8 46.8L1599.8 45.4L1579.7 43.9L1559.7 42.3L1539.7 40.6L1519.8 39.1L1499.8 37.7L1479.8 36.6L1459.9 35.8L1440 35.4L1420 35.3L1400.1 35.6L1380.1 36.3L1360.2 37.3L1340.2 38.5L1320.2 39.9L1300.2 41.5L1280.2 43L1260.2 44.5L1240.1 45.8L1220.1 46.9L1200.1 47.7L1180 48.1L1160 48.2L1139.9 47.9L1119.9 47.2L1099.9 46.2L1079.8 44.9L1059.8 43.5L1039.8 42L1019.8 40.4L999.8 38.9L979.8 37.6L959.8 36.5L939.9 35.8L920 35.3L900 35.3L880.1 35.7L860.1 36.4L840.2 37.4L820.2 38.7L800.2 40.2L780.3 41.9L760.2 43.5L740.2 45.1L720.2 46.6L700.2 47.8L680.1 48.7L660 49.2L640 49.4L619.9 49.2L599.8 48.5L579.8 47.6L559.7 46.3L539.7 44.8L519.7 43.2L499.7 41.5L479.7 39.9L459.8 38.4L439.8 37.1L419.9 36.1L399.9 35.5L380 35.2L360.1 35.4L340.1 35.9L320.2 36.8L300.2 37.9L280.2 39.3L260.2 40.8L240.2 42.4L220.2 44L200.1 45.4L180.1 46.7L160.1 47.6L140 48.2L120 48.4L99.9 48.2L79.9 47.7L59.9 46.8L39.8 45.6L19.8 44.2L-0.2 42.6L-20.2 40.9L-40.2 39.4L-60.2 37.9L-80.2 36.7L-100.1 35.7L-120.1 35.1L-140 34.9L-159.9 35.1L-179.9 35.6L-199.8 36.6L-219.8 37.9L-239.8 39.4L-259.8 41L-282.3 42.9L-299.8 44.5Z" fill="#111"/><path d="M14 16.9L23.9 16.1L37.9 14.8L52 13.5L64.6 13.4L77.3 13.3L89.9 13.2L102.6 13.1L115.3 12.8L127.9 12.6L140.6 12.3L153.2 12L165.9 11.7L178.6 11.3L191.2 11L203.9 10.6L216.6 10.2L229.2 9.8L241.9 9.4L254.6 9.1L267.3 8.7L279.9 8.4L292.6 8.2L305.3 8L318 7.8L330.7 7.8L343.3 7.7L356 7.8L368.7 7.9L381.4 8.1L394.1 8.4L406.7 8.7L419.4 9.1L432.1 9.5L444.8 10L457.4 10.5L470.1 11L482.8 11.5L495.4 12.1L508.1 12.6L520.7 13.1L533.4 13.6L546.1 14L558.7 14.3L571.4 14.6L584 14.8L596.7 15L609.3 15L622 15L634.7 14.9L647.3 14.7L660 14.5L672.6 14.1L685.3 13.8L697.9 13.3L710.6 12.9L723.2 12.4L735.9 11.8L748.6 11.3L761.2 10.8L773.9 10.3L786.5 9.8L799.2 9.4L811.9 8.9L824.6 8.6L837.2 8.3L849.9 8L862.6 7.8L875.3 7.7L888 7.6L900.7 7.6L913.3 7.6L926 7.7L938.7 7.8L951.4 8L964.1 8.2L976.7 8.5L989.4 8.8L1002.1 9.1L1014.8 9.5L1027.4 9.9L1040.1 10.3L1052.8 10.7L1065.5 11.1L1078.1 11.5L1090.8 11.9L1103.4 12.3L1116.1 12.7L1128.7 13L1141.4 13.4L1154 13.6L1166.7 13.9L1179.4 14.1L1192 14.2L1204.7 14.3L1217.3 14.4L1230 14.4L1242.6 14.3L1255.3 14.1L1267.9 13.9L1280.6 13.7L1293.3 13.4L1305.9 13L1318.6 12.6L1331.3 12.2L1343.9 11.7L1356.6 11.2L1369.3 10.7L1381.9 10.3L1394.6 9.8L1407.3 9.4L1419.9 9L1432.6 8.6L1445.3 8.3L1458 8.1L1470.7 7.9L1483.3 7.8L1496 7.8L1508.7 7.9L1521.4 8L1534.1 8.2L1546.7 8.5L1559.4 8.8L1572.1 9.1L1584.8 9.6L1597.4 10L1610.1 10.5L1622.8 10.9L1635.4 11.4L1648.1 11.8L1660.8 12.3L1673.4 12.6L1686.1 13L1698.7 13.3L1711.4 13.5L1724 13.7L1736.7 13.8L1749.4 13.8L1762 13.8L1774.7 13.7L1787.3 13.6L1800 13.4L1812.6 13.1L1825.3 12.9L1837.9 12.5L1852 13.5L1866.1 14.5L1876 15.1L1876 15.1L1866.2 16.4L1852.1 18.2L1838.1 19.9L1825.4 20.2L1812.7 20.4L1800 20.6L1787.4 20.6L1774.7 20.7L1762 20.6L1749.3 20.5L1736.6 20.3L1724 20.1L1711.3 19.8L1698.6 19.5L1685.9 19.1L1673.2 18.7L1660.6 18.3L1647.9 17.9L1635.2 17.5L1622.6 17.1L1609.9 16.6L1597.2 16.2L1584.6 15.8L1571.9 15.5L1559.2 15.1L1546.6 14.8L1533.9 14.5L1521.3 14.3L1508.6 14.1L1496 13.9L1483.3 13.8L1470.7 13.7L1458 13.7L1445.4 13.7L1432.7 13.8L1420.1 14L1407.4 14.2L1394.7 14.4L1382.1 14.7L1369.4 15L1356.7 15.4L1344.1 15.8L1331.4 16.2L1318.7 16.7L1306.1 17.1L1293.4 17.6L1280.7 18.1L1268.1 18.5L1255.4 18.9L1242.7 19.2L1230 19.6L1217.4 19.8L1204.7 20L1192 20.2L1179.3 20.2L1166.6 20.2L1154 20.1L1141.3 20L1128.6 19.8L1115.9 19.5L1103.2 19.1L1090.6 18.7L1077.9 18.3L1065.2 17.9L1052.5 17.4L1039.9 16.9L1027.2 16.4L1014.6 16L1001.9 15.5L989.2 15.2L976.6 14.8L963.9 14.5L951.3 14.3L938.6 14.1L926 14L913.3 14L900.7 14.1L888 14.2L875.4 14.4L862.7 14.6L850.1 14.9L837.4 15.2L824.8 15.6L812.1 15.9L799.4 16.3L786.8 16.7L774.1 17.1L761.5 17.5L748.8 17.9L736.1 18.2L723.4 18.5L710.8 18.8L698.1 19L685.4 19.2L672.7 19.3L660 19.4L647.4 19.4L634.7 19.4L622 19.4L609.3 19.3L596.6 19.1L584 19L571.3 18.8L558.6 18.5L545.9 18.2L533.3 18L520.6 17.6L507.9 17.3L495.2 17L482.6 16.6L469.9 16.3L457.2 15.9L444.6 15.6L431.9 15.3L419.3 15L406.6 14.7L393.9 14.4L381.3 14.2L368.6 14.1L356 13.9L343.3 13.9L330.7 13.9L318 13.9L305.4 14L292.7 14.2L280.1 14.4L267.4 14.7L254.7 15L242.1 15.4L229.4 15.8L216.8 16.3L204.1 16.8L191.4 17.3L178.8 17.8L166.1 18.3L153.4 18.8L140.8 19.3L128.1 19.7L115.4 20.1L102.7 20.4L90.1 20.6L77.4 20.8L64.7 20.9L52 20.9L37.9 19.5L23.8 18L14 16.9Z" fill="#111"/></g><g id="duck" stroke-linejoin="round" stroke-linecap="round"><ellipse cx="960" cy="1046" rx="288.9" ry="21.1" fill="#000" opacity="0.1"/><path d="M917.5 911.6Q858.3 966.1 813.2 1016.6" stroke="#fff" stroke-opacity="0.4" stroke-width="25.3" stroke-linecap="round" fill="none"/><path d="M917.5 911.6Q858.3 966.1 813.2 1016.6" stroke="#111" stroke-width="8.4" stroke-linecap="round" fill="none"/><path d="M1007.9 885.5Q1077.6 953 1133.2 1016.6" stroke="#fff" stroke-opacity="0.4" stroke-width="25.3" stroke-linecap="round" fill="none"/><path d="M1007.9 885.5Q1077.6 953 1133.2 1016.6" stroke="#111" stroke-width="8.4" stroke-linecap="round" fill="none"/><path transform="translate(813.2 1020.6) rotate(-15.2) scale(-1.126 1.126)" d="M-20 -6C-2-18 34-24 74-20L98-10L82-4L98 6L74 10L84 20C56 26 18 24-10 15C-22 9-24 0-20-6Z" fill="#F7C05A" stroke="#111" stroke-width="10.2" stroke-linejoin="round"/><path transform="translate(1133.2 1020.6) rotate(15.2) scale(1.126 1.126)" d="M-20 -6C-2-18 34-24 74-20L98-10L82-4L98 6L74 10L84 20C56 26 18 24-10 15C-22 9-24 0-20-6Z" fill="#F7C05A" stroke="#111" stroke-width="10.2" stroke-linejoin="round"/><g transform="translate(960 1040) scale(0.88) translate(0 45) translate(0 -190) rotate(-13.9) scale(0.9802000000000001 1.0407) translate(0 190)"><path d="M138.4 -413.2C150.6 -414.7 161.1 -441.4 171.2 -456C181.3 -470.6 190.6 -485.5 199 -500.8C207.3 -516 214.7 -531.6 221.2 -547.5C227.6 -563.4 233.1 -579.6 237.6 -596C242.1 -612.4 245.6 -629.2 248.1 -646C250.6 -662.9 252.1 -680 252.7 -697.2C253.3 -714.4 252.9 -731.7 251.7 -749.2C250.4 -766.7 243.8 -790.7 245.3 -802C246.9 -813.2 258.6 -813 261.1 -816.6C263.5 -820.2 260.9 -821.5 260.1 -823.7C259.3 -825.9 257.9 -828.1 256.3 -829.8C254.7 -831.5 252.4 -832.8 250.3 -833.7C248.2 -834.7 245.6 -834.5 243.7 -835.5C241.9 -836.4 240.8 -838.4 239 -839.5C237.2 -840.6 235.1 -841.4 233.1 -841.9C231 -842.4 228.7 -842.5 226.6 -842.3C224.5 -842.1 222.3 -841.5 220.4 -840.6C218.5 -839.8 216.6 -838.5 215.1 -837.1C213.5 -835.7 212.9 -833.6 211.2 -832.3C209.5 -830.9 206.9 -830.6 205.1 -829.3C203.2 -827.9 201.3 -826.2 200 -824.2C198.7 -822.3 197.8 -819.8 197.5 -817.5C197.1 -815.2 194.8 -813.4 197.9 -810.3C201 -807.3 213.3 -809.3 216.2 -799.1C219.1 -788.8 216.4 -765.3 215.4 -748.9C214.4 -732.6 212.6 -716.7 210.2 -701C207.9 -685.4 204.8 -670.1 201.1 -655.1C197.4 -640.1 193.1 -625.5 188.2 -611C183.3 -596.6 177.8 -582.4 171.6 -568.4C165.5 -554.4 158.7 -540.6 151.2 -526.9C143.7 -513.2 135.6 -499.7 126.7 -486.4C117.7 -473 95.7 -459 97.6 -446.8C99.6 -434.6 126.1 -411.7 138.4 -413.2Z" fill="#FBF8F0"/><path d="M138.4 -413.2L143.5 -421.6L150.6 -433.7L158.3 -447.4L166.5 -459.3L173.6 -470.3L180.5 -481.4L187.1 -492.6L193.6 -503.7L199.8 -515L205.7 -526.3L211.4 -537.7L216.7 -549.3L221.6 -561L226.1 -572.9L230.1 -585L233.6 -597.1L236.7 -609.4L239.4 -621.7L241.7 -634.2L243.7 -646.7L245.4 -659.2L246.7 -671.9L247.8 -684.6L248.6 -697.3L249.1 -710.1L249.1 -723L248.7 -735.9L247.8 -748.8L245.8 -762.6L243 -777.2L240.6 -791L240.2 -802.8L243.8 -811.7L250 -816.9L255 -819.4L256.8 -820.6L256.3 -820L256 -818.7L255.4 -819.1L254.4 -821L253.7 -822.6L253.1 -823.5L252.3 -824.4L251.6 -825.2L250.8 -825.8L249.8 -826.4L248.7 -827L247.8 -827.4L247 -827.7L245.7 -827.9L243.5 -828.3L240.7 -829.4L238.2 -831.2L236.7 -832.7L235.8 -833.5L235.3 -833.9L234.6 -834.2L233.6 -834.7L232.6 -835L231.6 -835.3L230.5 -835.5L229.4 -835.6L228.3 -835.7L227.3 -835.6L226.2 -835.5L225.2 -835.3L224.1 -835L223.1 -834.7L222.1 -834.3L221.1 -833.7L220.2 -833.1L219.5 -832.6L218.9 -832.2L218.2 -831.2L217 -829.5L215 -827.4L212.6 -825.8L210.6 -825L209.2 -824.6L208.4 -824.2L207.5 -823.6L206.4 -822.7L205.5 -821.9L204.8 -821.1L204.1 -820.2L203.5 -819L203 -817.9L202.6 -816.2L202 -814.2L201.5 -813.5L201.2 -814.3L200.8 -814.4L203.2 -813.4L208.8 -812L215.8 -808.3L220.7 -800.5L222.2 -789.4L222 -776.1L221.2 -761.9L220.3 -748.6L219.4 -736.3L218.2 -724.2L216.7 -712.2L214.9 -700.3L212.7 -688.6L210.3 -677L207.6 -665.6L204.8 -654.2L201.7 -643L198.6 -631.9L195.3 -620.8L191.9 -609.8L188.3 -598.8L184.6 -587.9L180.7 -577.1L176.5 -566.3L172 -555.5L167.2 -544.9L162.1 -534.4L156.6 -523.9L150.8 -513.6L144.7 -503.4L138.2 -493.2L131.4 -483.1L123.4 -472.3L113.2 -462.1L104 -453.1L97.6 -446.8L97.6 -446.8L101.9 -454.7L108.1 -466L114.7 -478.6L121.9 -489.6L128.2 -499.6L134.3 -509.6L140.2 -519.7L145.8 -529.8L151.3 -540L156.7 -550.1L161.8 -560.3L166.8 -570.5L171.6 -580.8L176.2 -591.2L180.5 -601.7L184.6 -612.3L188.3 -623L191.7 -633.9L194.7 -644.9L197.5 -656L199.9 -667.3L202 -678.7L203.9 -690.1L205.6 -701.7L207.1 -713.4L208.4 -725.2L209.6 -737.2L210.5 -749.3L211.5 -762.6L212.5 -776.5L212.7 -789L211.7 -797.6L209.3 -801.2L205.4 -802.8L200.2 -804L195 -806.2L191.8 -810.6L191.2 -814.9L191.8 -817.5L192.3 -818.8L192.6 -820.6L193.2 -822.9L194.1 -825.2L195.2 -827.3L196.6 -829.4L198.2 -831.2L199.8 -832.8L201.7 -834.3L203.9 -835.7L205.9 -836.5L207 -837L207.4 -837.1L207.6 -837.3L208.1 -838.1L209.1 -839.7L210.7 -841.6L212.4 -843.2L214 -844.4L215.8 -845.6L217.7 -846.6L219.7 -847.5L221.7 -848.1L223.8 -848.7L226 -849L228.1 -849.1L230.3 -849.1L232.5 -848.9L234.6 -848.5L236.7 -847.9L238.7 -847.2L240.6 -846.3L242.7 -845.1L244.6 -843.6L246 -842.2L246.7 -841.6L246.8 -841.5L247.1 -841.5L248.3 -841.3L250.4 -840.9L252.9 -840L255.1 -838.9L257.1 -837.7L259.1 -836.2L261 -834.4L262.6 -832.5L263.9 -830.4L265.1 -828.2L265.8 -826.5L266.4 -825.3L267.6 -822.7L267.9 -817.9L265.3 -812.6L260.5 -809.3L255.8 -807.3L252.5 -805.2L250.5 -801.2L250.4 -791.9L251.9 -778.6L254 -763.8L255.5 -749.6L256.2 -736.3L256.7 -723.2L256.9 -710.1L256.8 -697L256.4 -684L255.5 -671.1L254.3 -658.2L252.5 -645.4L250.4 -632.6L247.8 -620L244.9 -607.4L241.6 -594.9L238.1 -582.5L234.2 -570.2L230.1 -557.9L225.7 -545.7L220.9 -533.6L215.8 -521.5L210.3 -509.6L204.4 -497.8L198 -486.2L191.1 -474.9L183.7 -463.7L176 -452.7L166.9 -440.9L155.5 -429.9L145.3 -420.1L138.4 -413.2Z" fill="#111"/><path d="M-97.9 -447.3C-96.2 -459.5 -118.5 -473.1 -127.7 -486.2C-137 -499.4 -145.5 -512.7 -153.3 -526.3C-161.2 -539.8 -168.4 -553.4 -175 -567.3C-181.7 -581.3 -187.6 -595.3 -193.1 -609.7C-198.5 -624 -203.4 -638.6 -207.7 -653.5C-211.9 -668.4 -215.7 -683.6 -218.7 -699.1C-221.8 -714.7 -224.3 -730.6 -226.1 -746.9C-227.8 -763.2 -231.7 -786.5 -229.3 -796.9C-226.9 -807.3 -214.6 -805.8 -211.7 -809C-208.7 -812.3 -211.1 -813.9 -211.6 -816.2C-212 -818.5 -213.1 -820.9 -214.4 -822.8C-215.8 -824.7 -217.8 -826.4 -219.7 -827.6C-221.7 -828.8 -224.3 -829.1 -226 -830.3C-227.7 -831.5 -228.5 -833.6 -230.1 -835C-231.7 -836.3 -233.6 -837.4 -235.6 -838.2C-237.6 -839 -239.8 -839.5 -241.9 -839.6C-244 -839.7 -246.3 -839.4 -248.3 -838.8C-250.4 -838.3 -252.4 -837.3 -254.1 -836.2C-255.8 -835 -256.8 -833 -258.7 -831.9C-260.5 -830.9 -263.1 -830.9 -265.2 -829.9C-267.2 -828.8 -269.4 -827.4 -270.9 -825.6C-272.5 -823.9 -273.7 -821.6 -274.4 -819.3C-275.1 -817.1 -277.7 -815.7 -275 -812.2C-272.4 -808.7 -260.8 -809.5 -258.7 -798.4C-256.6 -787.2 -262.1 -762.9 -262.5 -745.5C-262.9 -728 -262.6 -710.6 -261.3 -693.4C-260 -676.3 -257.8 -659.2 -254.6 -642.5C-251.4 -625.7 -247.3 -609.1 -242.3 -592.8C-237.2 -576.5 -231.2 -560.5 -224.2 -544.8C-217.3 -529.1 -209.4 -513.7 -200.7 -498.7C-191.9 -483.7 -182.3 -469 -171.8 -454.7C-161.4 -440.3 -150.4 -413.9 -138.1 -412.7C-125.8 -411.5 -99.6 -435 -97.9 -447.3Z" fill="#FBF8F0"/><path d="M-97.9 -447.3L-104.3 -453.5L-113.6 -462.4L-124.2 -472.3L-132.7 -482.7L-139.8 -492.6L-146.6 -502.6L-153 -512.7L-159.1 -522.9L-164.8 -533.3L-170.2 -543.7L-175.3 -554.3L-180.1 -565L-184.6 -575.7L-189 -586.4L-193.2 -597.2L-197.3 -608.1L-201.2 -619L-205 -630L-208.6 -641.1L-212 -652.2L-215.2 -663.5L-218.2 -675L-220.8 -686.5L-223.2 -698.3L-225.3 -710.1L-227.1 -722.1L-228.7 -734.2L-230 -746.4L-231.5 -759.7L-233.1 -773.8L-234 -787L-233.3 -797.9L-229 -805.7L-222.4 -809.7L-216.9 -811.5L-214.6 -812.7L-214.9 -812.7L-215.2 -812.1L-215.8 -812.8L-216.5 -814.7L-217 -816.4L-217.6 -817.5L-218.3 -818.6L-219 -819.5L-219.8 -820.3L-220.8 -821.1L-221.9 -821.8L-222.8 -822.4L-223.7 -822.7L-225 -823.1L-227.1 -823.8L-229.6 -825.2L-231.7 -827.2L-233 -828.9L-233.8 -829.8L-234.3 -830.2L-235 -830.7L-236 -831.2L-237 -831.7L-238 -832.1L-239 -832.4L-240.1 -832.6L-241.2 -832.8L-242.2 -832.8L-243.3 -832.8L-244.4 -832.7L-245.5 -832.5L-246.5 -832.3L-247.5 -832L-248.5 -831.6L-249.5 -831.1L-250.2 -830.7L-250.7 -830.4L-251.5 -829.5L-253 -827.9L-255.3 -826L-258.1 -824.8L-260.2 -824.2L-261.5 -824L-262.3 -823.7L-263.2 -823.2L-264.3 -822.6L-265.3 -821.9L-266 -821.3L-266.8 -820.5L-267.5 -819.6L-268.1 -818.5L-268.7 -816.9L-269.6 -815L-270.1 -814.5L-270.4 -815.8L-271 -816.3L-269.2 -815.3L-264 -813.1L-257.5 -808.2L-253.5 -799.4L-253.2 -787.6L-254.7 -773.8L-256.6 -759.1L-257.8 -745.2L-257.9 -732.4L-257.7 -719.4L-257.2 -706.6L-256.4 -693.8L-255.3 -681.1L-254 -668.4L-252.4 -655.8L-250.5 -643.2L-248.3 -630.7L-245.7 -618.3L-242.6 -606L-239 -593.8L-235 -581.8L-230.5 -569.9L-225.5 -558.2L-220.1 -546.6L-214.4 -535.2L-208.4 -523.9L-202.2 -512.7L-195.7 -501.6L-189 -490.6L-182.1 -479.6L-174.9 -468.7L-167.5 -457.9L-158.8 -446.3L-150.7 -433L-143.3 -421L-138.1 -412.7L-138.1 -412.7L-145.3 -419.4L-155.7 -428.9L-167.1 -439.8L-176.2 -451.5L-184.1 -462.3L-191.7 -473.3L-198.9 -484.5L-205.6 -495.8L-212 -507.4L-217.8 -519.1L-223.3 -531L-228.3 -543L-233 -555.1L-237.5 -567.3L-241.6 -579.5L-245.5 -591.8L-249.2 -604.2L-252.6 -616.6L-255.8 -629.1L-258.7 -641.7L-261.2 -654.4L-263.2 -667.2L-264.9 -680.1L-266.1 -693.1L-267 -706.1L-267.4 -719.2L-267.5 -732.4L-267.3 -745.7L-266.2 -760L-264.6 -774.8L-263.5 -788.1L-263.9 -797.3L-266 -801.3L-269.3 -803.2L-274.2 -805L-279.1 -808L-281.9 -813.1L-281.8 -817.9L-280.8 -820.6L-280.2 -821.8L-279.6 -823.5L-278.5 -825.8L-277.3 -827.9L-275.8 -830L-274 -831.8L-272.1 -833.4L-270.2 -834.7L-268 -836L-265.6 -837L-263.5 -837.5L-262.3 -837.8L-262 -837.8L-261.9 -837.8L-261.2 -838.5L-259.9 -839.9L-258.1 -841.6L-256.1 -842.9L-254.2 -843.9L-252.2 -844.7L-250.2 -845.4L-248.1 -845.9L-245.9 -846.2L-243.8 -846.4L-241.6 -846.3L-239.4 -846.1L-237.3 -845.7L-235.2 -845.1L-233.2 -844.4L-231.2 -843.4L-229.4 -842.4L-227.7 -841.2L-225.9 -839.7L-224.3 -837.9L-223.2 -836.3L-222.6 -835.5L-222.4 -835.4L-222.1 -835.2L-220.9 -834.8L-218.9 -834L-216.6 -832.8L-214.7 -831.4L-213 -829.8L-211.3 -828.1L-209.9 -826.1L-208.7 -824L-207.7 -821.8L-207 -819.6L-206.6 -817.8L-206.1 -816.4L-205.4 -813.9L-205.8 -809.7L-208.7 -805.3L-213.7 -802.9L-219 -801.6L-222.9 -799.7L-225.4 -795.9L-226.2 -787L-225.4 -774.5L-223.9 -760.6L-222.2 -747.4L-220.6 -735.3L-218.7 -723.4L-216.5 -711.7L-214.2 -700L-211.8 -688.5L-209.1 -677.2L-206.3 -665.9L-203.3 -654.7L-200.1 -643.7L-196.6 -632.8L-192.9 -622L-188.9 -611.3L-184.6 -600.7L-180 -590.3L-175.1 -580L-170 -569.7L-164.7 -559.6L-159.1 -549.6L-153.5 -539.6L-147.6 -529.6L-141.7 -519.6L-135.6 -509.6L-129.3 -499.6L-122.8 -489.7L-115.6 -478.8L-108.8 -466.1L-102.4 -455L-97.9 -447.3Z" fill="#111"/><path d="M66.2 -466.1C55 -477.6 62.6 -481.6 60.3 -489.2C58 -496.7 55.3 -504.2 52.4 -511.6C49.5 -519 46.2 -526.3 42.8 -533.6C39.3 -540.9 35.6 -548 31.7 -555.2C27.7 -562.4 23.6 -569.5 19.1 -576.6C14.7 -583.8 10.1 -590.9 5.2 -598C0.3 -605.1 -8.3 -622.1 -10.2 -619.3C-12.1 -616.5 -8.5 -580.1 -6.2 -581C-3.9 -582 4.8 -610.7 3.7 -625C2.5 -639.3 -3.9 -655.1 -13.2 -666.8C-22.5 -678.4 -37.3 -689.2 -52.2 -695.2C-67.2 -701.1 -86.4 -703.9 -103 -702.6C-119.6 -701.2 -138.1 -695.3 -151.9 -687C-165.7 -678.7 -178.5 -665.7 -185.8 -652.7C-193.1 -639.6 -196.8 -623 -195.7 -608.7C-194.5 -594.4 -191.6 -578.8 -178.8 -566.9C-166 -555.1 -130.6 -545.4 -118.7 -537.9C-106.8 -530.4 -111 -527.2 -107.6 -522.1C-104.2 -516.9 -101.2 -511.8 -98.5 -506.9C-95.7 -502 -93.4 -497.2 -91.3 -492.6C-89.2 -488 -87.5 -483.5 -86.1 -479.2C-84.7 -475 -83.6 -470.8 -82.8 -466.9C-81.9 -463 -81.4 -459.3 -81.1 -455.8C-80.8 -452.3 -79.2 -450.3 -81 -446C-82.8 -441.7 -85.2 -442.3 -92 -430C-98.8 -417.7 -113.6 -393.7 -122 -372C-130.4 -350.3 -140 -322.3 -142.7 -300C-145.3 -277.7 -147.4 -254.2 -138 -238C-128.6 -221.8 -107.3 -210.7 -86 -203C-64.7 -195.3 -36 -192.8 -10 -192C16 -191.2 45.8 -190.7 70 -198C94.2 -205.3 116.1 -219.7 135.3 -236C154.5 -252.3 177.8 -274.3 185.1 -296C192.4 -317.7 188.7 -345.3 179.1 -366C169.5 -386.7 146.4 -403.3 127.6 -420C108.7 -436.7 77.4 -454.6 66.2 -466.1Z" fill="#FBF8F0"/><g transform="translate(-98 -384) scale(0.9)"><g transform="translate(0 150) scale(1 -1)"><path d="M215 147 c0 -13 6 -38 10 -39 2 0 6 2 6 4 0 3 6 13 7 13 1 0 2 -3 3 -6 3 -8 4 -10 7 -10 7 1 -1 27 -9 27 -3 0 -10 -6 -10 -8 0 -3 -2 0 -3 5 -3 15 -4 17 -8 17 -3 0 -3 0 -3 -3z M156 134 c-15 -7 -20 -9 -21 -12 0 -3 3 -3 9 -1 7 3 7 3 6 -11 0 -16 1 -23 3 -26 3 -3 4 -1 3 21 l0 21 7 3 c15 7 7 11 -7 5z M198 127 c-13 -6 -10 -24 3 -24 7 0 15 8 12 12 -1 1 -2 1 -5 -1 -10 -8 -15 1 -4 9 6 5 2 8 -6 4z M170 121 c-13 -10 -2 -31 13 -23 5 2 4 5 -1 5 -8 0 -11 2 -5 3 4 1 9 7 9 10 0 8 -10 11 -16 5z m8 -4 c1 -1 -5 -6 -6 -5 0 1 0 2 1 3 2 3 4 4 5 2z M118 102 c-2 0 -5 -3 -7 -5 -4 -3 -4 -3 -6 -1 -6 8 -8 3 -5 -14 3 -15 4 -14 -1 -12 -4 2 -6 5 -6 11 -1 7 -6 12 -13 12 -11 0 -17 -10 -5 -10 5 0 6 -1 6 -3 0 -6 -6 -13 -8 -9 -2 6 -6 4 -6 -2 0 -2 0 -3 -4 -4 -2 -1 -7 -4 -11 -6 -4 -2 -7 -4 -8 -4 0 0 4 8 8 17 14 32 13 34 -14 23 -23 -9 -29 -13 -29 -16 0 -5 5 -4 22 3 9 4 16 7 16 7 1 0 2 2 -9 -21 -11 -25 -12 -26 -10 -30 3 -3 7 -3 16 3 22 13 30 18 32 18 4 0 9 3 11 6 1 3 1 3 5 0 4 -2 9 -3 11 -1 1 1 2 2 3 1 4 -1 7 4 7 12 0 9 1 11 8 18 7 8 6 11 -3 7z M137 102 c-1 -1 -1 -4 -1 -6 -2 -8 -4 -9 -5 -3 -3 8 -5 7 -5 -2 1 -11 6 -16 12 -10 2 3 4 14 4 19 -1 3 -5 5 -5 2z M201 77 c-61 -17 -115 -41 -148 -66 -14 -11 -14 -11 -5 -11 8 0 8 0 19 8 15 11 26 17 43 24 13 6 95 40 107 44 3 1 6 2 6 3 0 3 -8 2 -22 -2z" fill="#111"/></g></g><path d="M69.5 -469.4L65.6 -474.5L64.5 -477.7L64.9 -480.6L65.3 -484.9L64.8 -490.1L63.2 -495.1L61.6 -499.7L60 -504.2L58.3 -508.8L56.5 -513.3L54.7 -517.7L52.8 -522.2L50.8 -526.6L48.8 -531L46.7 -535.4L44.5 -539.8L42.3 -544.2L40 -548.5L37.7 -552.9L35.3 -557.2L32.9 -561.5L30.4 -565.9L27.8 -570.2L25.2 -574.5L22.6 -578.8L19.9 -583.1L17.1 -587.4L14.3 -591.7L11.5 -596L8.7 -600.2L5.5 -605.4L1.8 -611.6L-1.8 -617.5L-5.4 -622.2L-14.1 -621.3L-15.2 -614.2L-14.9 -604L-14 -592.7L-12.7 -583.2L-5.8 -575L0.9 -582.5L4 -591.2L7 -602.4L9.1 -614.4L9.6 -625.3L8.3 -635L5.8 -644.5L2.2 -653.8L-2.5 -662.7L-8.1 -670.8L-14.8 -678.3L-22.5 -685.2L-31.1 -691.4L-40.3 -696.8L-49.9 -701.1L-59.9 -704.4L-70.6 -706.8L-81.6 -708.3L-92.7 -708.8L-103.5 -708.3L-114.1 -706.7L-124.8 -704.1L-135.3 -700.7L-145.3 -696.4L-154.5 -691.3L-163 -685.5L-171 -678.7L-178.3 -671.2L-184.7 -663.3L-190 -655L-194.2 -646.3L-197.4 -637L-199.6 -627.4L-200.7 -617.8L-200.6 -608.4L-199.7 -599.2L-198 -589.9L-194.9 -580.4L-190 -571.2L-182.6 -562.6L-171.7 -555L-157.9 -548.4L-143.5 -542.6L-130.6 -537.5L-121.5 -533.2L-116.8 -530L-114.9 -528L-114 -526.3L-113.3 -523.4L-111.8 -519.7L-109.7 -516.4L-107.8 -513.4L-105.9 -510.5L-104.2 -507.6L-102.5 -504.7L-100.9 -501.9L-99.3 -499.1L-97.9 -496.3L-96.5 -493.6L-95.3 -490.9L-94.1 -488.2L-92.9 -485.6L-91.9 -483L-90.9 -480.5L-90 -478L-89.2 -475.5L-88.4 -473.1L-87.8 -470.7L-87.1 -468.4L-86.6 -466.1L-86.1 -463.9L-85.7 -461.7L-85.4 -459.6L-85.1 -457.5L-84.9 -455.3L-84.6 -453.2L-84.2 -451.4L-83.9 -450.2L-83.9 -449L-84.3 -447.4L-85.2 -445.9L-86.5 -444.4L-88.6 -442L-91.5 -438L-95.2 -431.9L-100.3 -423.2L-106.6 -412.4L-113.5 -400.2L-120.3 -387.1L-126.4 -373.8L-131.9 -360L-137.3 -345.4L-142.1 -330.2L-146.1 -315.2L-148.7 -300.8L-150.3 -287L-151.1 -273.3L-150.8 -259.7L-148.6 -246.7L-143.8 -234.7L-135.9 -224.2L-125.8 -215.4L-114.1 -208.1L-101.4 -201.9L-88.1 -196.8L-73.9 -192.7L-58.5 -189.7L-42.5 -187.7L-26.2 -186.4L-10.2 -185.6L5.9 -185.2L22.6 -185.2L39.4 -186L56 -188L71.9 -191.7L86.8 -197.2L101 -204.2L114.4 -212.5L127.1 -221.7L139 -231.6L150.9 -242.5L162.7 -254.4L173.7 -267.3L182.8 -280.8L188.9 -294.7L191.9 -309.1L192.4 -324.1L190.9 -339.2L187.5 -353.9L182.4 -367.6L175 -380.2L165.2 -392L154 -403L142.3 -413.5L130.7 -423.8L118.2 -434.2L104.2 -444.6L90.5 -454.3L78.6 -463ZM62.9 -462.8L57.5 -469.9L55.3 -476.3L55.4 -481.5L56 -485L55.7 -488.2L54.5 -492.3L53 -496.7L51.5 -501.2L49.9 -505.6L48.2 -510L46.5 -514.4L44.7 -518.7L42.8 -523.1L40.9 -527.4L38.9 -531.8L36.9 -536.1L34.8 -540.4L32.6 -544.7L30.4 -548.9L28.1 -553.2L25.7 -557.5L23.3 -561.8L20.8 -566L18.3 -570.3L15.7 -574.5L13 -578.7L10.3 -583L7.5 -587.2L4.7 -591.4L1.7 -595.7L-1.7 -601L-5.4 -607.2L-8.9 -612.6L-11.2 -615.6L-6.3 -617.3L-6.3 -614.1L-5.6 -604.7L-4.2 -593.9L-2.6 -585.6L-6.6 -587.1L-9.3 -586.7L-6.7 -594.4L-4.2 -604.8L-2.5 -615.6L-2.2 -624.7L-3.6 -632.4L-6 -640.5L-9.3 -648.4L-13.4 -655.9L-18.3 -662.7L-24 -669L-30.7 -675L-38.3 -680.5L-46.3 -685.3L-54.6 -689.2L-63.4 -692.3L-72.9 -694.6L-82.9 -696.2L-92.9 -697L-102.5 -696.8L-112.1 -695.7L-122 -693.7L-131.7 -690.7L-140.9 -687L-149.3 -682.7L-157 -677.5L-164.4 -671.5L-171.1 -664.8L-176.9 -657.6L-181.6 -650.3L-185.3 -642.6L-188.1 -634.4L-190 -625.8L-190.9 -617.3L-190.7 -609L-189.7 -600.8L-187.9 -592.6L-185 -584.9L-180.8 -577.7L-175 -571.3L-165.9 -565.2L-153.2 -559.1L-139.1 -553.3L-126 -547.8L-115.9 -542.6L-109.8 -537.7L-106.4 -533.2L-105.1 -529.1L-104.5 -526.5L-103.4 -524.4L-101.5 -521.6L-99.6 -518.4L-97.8 -515.3L-96.1 -512.2L-94.4 -509.2L-92.9 -506.1L-91.4 -503.2L-89.9 -500.2L-88.6 -497.3L-87.4 -494.4L-86.2 -491.5L-85.1 -488.7L-84 -486L-83.1 -483.2L-82.2 -480.5L-81.4 -477.9L-80.7 -475.3L-80 -472.7L-79.5 -470.2L-78.9 -467.7L-78.5 -465.3L-78.1 -462.9L-77.8 -460.6L-77.6 -458.4L-77.4 -456.3L-77 -454.6L-76.6 -452.8L-76.5 -450.5L-76.7 -447.7L-77.6 -444.6L-79.1 -441.8L-80.9 -439.7L-82.8 -437.5L-85.3 -434L-88.8 -428.1L-93.6 -419.4L-99.6 -408.6L-106 -396.3L-112.2 -383.3L-117.6 -370.2L-122.4 -356.6L-127 -342.1L-131.2 -327.3L-134.5 -312.8L-136.7 -299.2L-138 -286L-138.7 -273.1L-138.2 -261L-136.1 -250.3L-132.2 -241.3L-126.1 -233.6L-117.7 -226.4L-107.5 -219.9L-96 -214.1L-83.9 -209.2L-70.9 -205.3L-56.5 -202.4L-41.2 -200.3L-25.4 -199.1L-9.8 -198.4L6 -198L22.2 -198.1L38.3 -199L53.7 -201L68.1 -204.3L81.7 -209.2L94.9 -215.5L107.6 -222.9L119.9 -231.3L131.6 -240.4L143.5 -250.4L155.4 -261.5L166.3 -273.2L175.2 -285.2L181.3 -297.3L184.5 -310.1L185.4 -324L184 -338.1L180.7 -351.8L175.8 -364.4L168.7 -375.7L159.3 -386.3L148.1 -396.5L136.2 -406.4L124.4 -416.2L111.9 -425.9L97.9 -435.7L84 -445.1L71.6 -454Z" fill="#111" fill-rule="evenodd"/><g transform="translate(-96 -616.9) rotate(-9.3) scale(0.93)"><path d="M14 54.6C23.3 51.2 42 43.4 64 40C86 36.6 122.3 32.5 146 34C169.7 35.5 194.7 42 206 48.9C217.3 55.9 217.3 66.4 214 75.9C210.7 85.4 199.7 100.5 186 105.9C172.3 111.2 149.7 107.3 132 108C114.3 108.7 96.7 110.7 80 110C63.3 109.3 43.7 107 32 104C20.3 101 14.3 96.7 10 92C5.7 87.3 6.3 81.3 6 76C5.7 70.7 6.7 63.6 8 60C9.3 56.4 4.7 57.9 14 54.6Z" fill="#F7C05A"/><path d="M12.1 49.4L20.7 46L32.6 42L47 38.4L63.3 36L82.3 33.8L104.1 31.3L126.2 29.8L146.2 30.2L164.3 32.4L181.6 35.4L196.9 39.3L208.9 44.3L217 51.3L221.1 60.2L221.4 69.2L219.3 77.8L214.8 86.6L207.7 95.8L198.6 104.2L187.8 110.5L174.8 113.4L160.5 113.9L145.8 113.2L132.1 112.6L119 112.9L105.8 113.7L92.8 114.6L79.8 115.2L66.6 115.1L53.3 114.2L41 112.4L30.5 109.9L22.1 106.9L15.5 103.5L10.3 99.6L6 95.3L3.1 90.3L1.9 85.1L1.5 80.4L1.4 76.1L1.3 71.6L1.7 66.7L2.5 62.2L3.4 59L3.4 58.1L4 54.7L7.4 52ZM15.9 59.7L24.6 56.7L35.9 52.6L49.4 48.1L64.7 44L83.2 41L104.7 39L126.4 37.9L145.8 37.8L163.2 39.6L179.6 43.4L193.4 48.5L203.1 53.6L208 58.2L209.9 62.8L210.1 68.1L208.7 73.9L205.5 81L200 89.1L192.7 96.3L184.2 101.2L173.7 103.3L160.5 103.5L146.1 103.1L131.9 103.4L118.5 104.5L105.4 105.3L92.6 105.5L80.2 104.8L67.6 103.3L54.9 101.6L43.2 99.8L33.5 98.1L26.4 96.1L21 93.8L17 91.2L14 88.7L12.1 86.3L11.1 83.4L10.8 79.8L10.6 75.9L10.6 72L11 67.9L11.7 64.3L12.6 61L12.9 58.1L12 59.7L11.2 60.7Z" fill="#111" fill-rule="evenodd"/><path d="M30 78C84 87 148 85 198 70" fill="none" stroke="#111" stroke-width="5" stroke-linecap="round"/><g transform="translate(0 -4.1) scale(1.12)"><path d="M-62 -22C0 -30 70 -32 150 -20C158 -10 150 22 118 36C84 48 60 30 52 6C40 12 20 12 6 8C-4 30 -28 46 -54 30C-70 16 -72 -8 -62 -22Z" fill="#111"/><path d="M-40 -12C-30 -16 -16 -14 -8 -10M72 -10C84 -14 100 -14 112 -10" stroke="#fff" stroke-width="4" stroke-linecap="round" fill="none" opacity="0.55"/></g><g transform="rotate(-10.3)"><path d="M-100 -26C-110.7 -28.7 -111.7 -56 -108 -72C-104.3 -88 -91.3 -110.2 -78 -122C-64.7 -133.8 -44.3 -139 -28 -143C-11.7 -147 3.7 -147.2 20 -146C36.3 -144.8 55.3 -143.3 70 -136C84.7 -128.7 101 -114.3 108 -102C115 -89.7 119.3 -68 112 -62C104.7 -56 81.3 -65.7 64 -66C46.7 -66.3 26 -65.7 8 -64C-10 -62.3 -26 -62.3 -44 -56C-62 -49.7 -89.3 -23.3 -100 -26Z" fill="#FBF8F0"/><path d="M-101 -20.8L-110.2 -30L-113.2 -43.5L-113.6 -58.6L-112 -72.9L-107.7 -86.7L-100.6 -101L-91.4 -114.3L-80.9 -125.4L-69 -133.6L-55.8 -139.9L-42.3 -144.8L-29.3 -148.7L-16.8 -151.5L-4.3 -152.8L8 -152.7L20.4 -151.6L33.2 -150L46.4 -147.7L59.5 -144.5L71.8 -139.7L83.6 -132.9L94.9 -124.2L104.6 -114.4L111.8 -104.2L116.5 -92.7L119.3 -80.1L119.5 -68.3L115 -58.2L103.9 -54.8L90.8 -55.9L76.8 -57.9L63.6 -58.9L50.5 -58.7L36.5 -58.7L22.3 -58.5L8.5 -58L-4.7 -57.2L-17.3 -56.1L-29.6 -54L-41.8 -50.6L-56 -43.5L-72.1 -33.5L-87.4 -24.6ZM-99 -31.2L-102.3 -34.1L-105.6 -44.5L-106 -58.3L-104 -71.1L-99.5 -83.1L-92.6 -96.2L-84.2 -108.6L-75.1 -118.6L-64.7 -125.8L-52.4 -131L-39.4 -134.6L-26.7 -137.3L-15 -139.1L-3.7 -140.1L7.8 -140.5L19.6 -140.4L32.1 -140L44.9 -138.9L57.1 -136.5L68.2 -132.3L78.7 -125.8L88.9 -117.5L97.7 -108.5L104.2 -99.8L108.7 -90.1L111.5 -79.1L111.4 -69.8L109 -65.8L103.7 -65.3L92.7 -67.4L78.8 -70.9L64.4 -73.1L50.4 -73.4L36 -72.8L21.5 -71.6L7.5 -70L-5.7 -68.7L-18.7 -67.4L-32.1 -65.4L-46.2 -61.4L-61.7 -53.1L-77.4 -41.8L-91.2 -32.8Z" fill="#111" fill-rule="evenodd"/><path d="M-100 -26C-107.7 -31.7 -127 -34.7 -140 -34C-153 -33.3 -168.7 -29.7 -178 -22C-187.3 -14.3 -199 4.7 -196 12C-193 19.3 -172.3 21.7 -160 22C-147.7 22.3 -133 17.7 -122 14C-111 10.3 -97.7 6.7 -94 0C-90.3 -6.7 -92.3 -20.3 -100 -26Z" fill="#FBF8F0"/><path d="M-97.7 -29L-106.3 -33.4L-117.1 -37.1L-128.9 -39.5L-140.2 -39.5L-150.9 -37.5L-161.5 -34.4L-171.7 -30.6L-180.7 -25.2L-188.2 -16.9L-194.6 -6.5L-199.3 3.8L-200.4 13.8L-193.6 21.8L-183 25.9L-171.1 27.3L-160 27.5L-149.7 26.7L-139.3 24.9L-129.4 21.8L-120.6 18.2L-112.2 14.9L-103.6 11.9L-95.6 8.4L-89.6 2.6L-87.1 -5.6L-87.7 -14.4L-91 -23ZM-102.3 -23L-109 -26L-118.9 -27.7L-129.8 -28.2L-139.8 -28.5L-149.4 -28.4L-159.2 -26.8L-168.2 -23.4L-175.3 -18.8L-182.2 -12.1L-188.7 -3.3L-192.2 5.6L-191.6 10.2L-188.1 11.4L-180 13.3L-169.7 15.3L-160 16.5L-151.1 16.1L-141.7 14.1L-132.3 11.9L-123.4 9.8L-114.8 7.5L-106.9 4.3L-101.2 0.6L-98.4 -2.6L-97.5 -6.6L-97.8 -12.3L-99.6 -18Z" fill="#111" fill-rule="evenodd"/><path d="M-8 -118L38 -118L-8 -78L40 -78" fill="none" stroke="#111" stroke-width="10" stroke-linecap="round" stroke-linejoin="round"/></g></g></g></g><g id="fx"><g opacity="1"><path d="M855.2 428.4L819.2 468.4" stroke="#111" stroke-width="6" stroke-linecap="round"/><path d="M911.2 418.4L927.2 470.4" stroke="#111" stroke-width="6" stroke-linecap="round"/><path d="M680 980L630 980" stroke="#111" stroke-width="6" stroke-linecap="round"/></g></g></svg>